<?xml version="1.0" encoding="UTF-8"?>
<svg version="1.1" xmlns="http://www.w3.org/2000/svg" width="512" height="512">
<path d="M0 0 C4.10762371 3.56029481 8.07726713 7.23816778 12 11 C12.79688232 11.75603516 12.79688232 11.75603516 13.60986328 12.52734375 C21.90601625 20.4317271 29.190956 28.787764 36 38 C36.63421875 38.85078125 37.2684375 39.7015625 37.921875 40.578125 C67.52135308 81.58290656 85.68691417 137.54849342 78.48828125 188.359375 C78.32714844 189.23078125 78.16601562 190.1021875 78 191 C78.57443848 190.90388428 79.14887695 190.80776855 79.74072266 190.70874023 C82.3672819 190.27503778 84.99600369 189.85616492 87.625 189.4375 C88.52863281 189.28603516 89.43226563 189.13457031 90.36328125 188.97851562 C99.70934053 187.51179829 99.70934053 187.51179829 104 189 C108.60820339 193.09242282 110.07752756 199.05454795 111.9375 204.75 C112.28304932 205.79607422 112.62859863 206.84214844 112.98461914 207.91992188 C122.34398249 237.27954827 127.29778144 273.69408667 119 304 C118.80132324 304.72848145 118.60264648 305.45696289 118.39794922 306.20751953 C110.15249218 335.25499852 91.84694064 363.18243043 65.08203125 378.28515625 C49.21578667 386.75218289 32.95979246 391.38531835 14.9375 391.1875 C13.81794922 391.18685547 12.69839844 391.18621094 11.54492188 391.18554688 C6.71283823 391.16004028 1.98428797 391.06380473 -2.80859375 390.42578125 C-7.08362967 389.87666278 -10.73613271 390.3733343 -15 391 C-33.13303761 391.94386182 -53.14371821 389.73372708 -69.01953125 380.18359375 C-73.04695095 378.58423835 -75.62345869 379.64096292 -79.5 381.0625 C-130.11927588 397.62364308 -189.6316775 391.53012656 -237 368 C-237.7739209 367.62117676 -238.5478418 367.24235352 -239.34521484 366.85205078 C-254.7476889 359.25507378 -268.9090837 350.14649695 -282 339 C-283.10408203 338.06220703 -283.10408203 338.06220703 -284.23046875 337.10546875 C-297.01059985 325.9094745 -309.24335736 313.95013896 -319 300 C-319.40234863 299.4313623 -319.80469727 298.86272461 -320.21923828 298.27685547 C-353.7738523 250.60499052 -368.00929283 191.53971596 -358.50048828 133.83789062 C-348.29048823 75.9447001 -317.16013448 24.19557307 -269 -10 C-268.39542969 -10.43860352 -267.79085937 -10.87720703 -267.16796875 -11.32910156 C-243.80323257 -28.20507232 -216.20527915 -40.15191337 -188 -46 C-187.07606445 -46.19464844 -186.15212891 -46.38929687 -185.20019531 -46.58984375 C-120.02605608 -59.68888257 -51.09568506 -42.45865772 0 0 Z M-259.53466797 4.56445312 C-264.36422664 9.2958435 -267.65968424 15.1824427 -271 21 C-271.41733398 21.70189453 -271.83466797 22.40378906 -272.26464844 23.12695312 C-285.11610477 44.74386151 -293.96181898 68.13806465 -298 93 C-298.13148438 93.80566406 -298.26296875 94.61132812 -298.3984375 95.44140625 C-301.45577535 119.19774762 -298.94289542 147.8179518 -285 168 C-281.6009195 172.25979775 -277.84472357 176.14418055 -274 180 C-273.36449219 180.65871094 -272.72898437 181.31742188 -272.07421875 181.99609375 C-257.73370979 195.76425424 -235.83933056 202.91659929 -217.48538208 209.42480469 C-175.9431285 224.1928541 -175.9431285 224.1928541 -164 234 C-163.2884375 234.54011719 -162.576875 235.08023437 -161.84375 235.63671875 C-153.07855526 242.65214514 -147.80039581 252.97456727 -146 264 C-145.23474483 276.34709792 -145.50713183 289.87507696 -153.2890625 300.10546875 C-158.94110824 306.36401255 -164.6244482 308.81645498 -172.69921875 311.0703125 C-175.73700148 311.92592468 -178.66551882 312.90765931 -181.625 314 C-182.50929688 314.32613281 -183.39359375 314.65226562 -184.3046875 314.98828125 C-186.16663793 315.68718728 -188.02586148 316.39338591 -189.8828125 317.10546875 C-203.30800806 322.17192538 -215.26944291 322.03542318 -228.7421875 316.96875 C-233.47621824 314.78608162 -236.93852388 312.24753511 -240.6875 308.625 C-244.05359415 305.47866688 -244.05359415 305.47866688 -248.5625 304.5625 C-257.24200548 308.19211138 -266.16649453 317.42301554 -270 326 C-238.66462285 356.23413387 -190.72474972 371.37818269 -148 373 C-146.41638672 373.061875 -146.41638672 373.061875 -144.80078125 373.125 C-130.05507715 373.4042086 -115.26696411 371.85539899 -100.8125 369 C-99.96929199 368.8340332 -99.12608398 368.66806641 -98.25732422 368.49707031 C-94.52852258 367.71262723 -92.23401347 367.15600898 -89 365 C-89.67482422 364.48566406 -89.67482422 364.48566406 -90.36328125 363.9609375 C-113.18829864 345.38988127 -124.96958932 316.28173369 -128.25 287.75 C-131.56690672 255.13720567 -123.87138588 222.87391641 -111.375 192.875 C-110.97788818 191.88898804 -110.97788818 191.88898804 -110.57275391 190.88305664 C-109.34771978 188.08089397 -108.09898303 186.09178426 -105.8515625 184.0078125 C-89.3069629 178.16054305 -59.41859516 192.8183877 -44.375 199.75 C-30.89760668 206.19460398 -15.26114394 214.24638476 -5.46484375 225.8125 C-4.07976074 227.20148208 -4.07976074 227.20148208 -2.19140625 226.93359375 C3.68399836 224.43052476 10.258727 220.12659517 13.4140625 214.4609375 C14.180454 211.96048846 14.66289975 209.5914582 15 207 C15.12375 206.32066406 15.2475 205.64132812 15.375 204.94140625 C16.80255754 196.07270501 15.96553864 187.19161954 14.625 178.375 C14.43550781 177.04082031 14.43550781 177.04082031 14.2421875 175.6796875 C13.45840267 170.34995065 12.39483522 165.20334182 11 160 C9.69289063 159.79697266 9.69289063 159.79697266 8.359375 159.58984375 C-8.50180318 156.54242302 -21.46006496 146.96219957 -31.5 133.25 C-38.62762449 122.41601078 -44.22771366 110.57214775 -50.00390625 98.98046875 C-56.15686567 86.94579407 -64.5130927 77.09125246 -77.375 72.125 C-83.4388616 70.31964716 -89.73814623 70.44479085 -95.9375 71.5 C-107.49650664 73.38718476 -117.35204159 71.59451851 -126.9375 64.75 C-132.05801075 60.40031883 -134.57106231 56.60307662 -135.37109375 49.8828125 C-135.63532783 42.94866955 -135.0640445 37.68722143 -131 32 C-130.56042969 31.35804687 -130.12085938 30.71609375 -129.66796875 30.0546875 C-121.73534581 19.81256674 -108.2964142 13.83585518 -97 8 C-98.26733445 4.50264435 -99.75510049 1.82704285 -102 -1.125 C-105.37820541 -6.12574249 -107.03582561 -10.92755989 -107 -17 C-105.63987986 -21.95946246 -102.89468837 -25.66169568 -99 -29 C-148.60019304 -44.00562802 -220.17718653 -29.45959621 -259.53466797 4.56445312 Z M-80.9375 -19.75 C-81.79214844 -19.33234375 -82.64679688 -18.9146875 -83.52734375 -18.484375 C-86.11233512 -16.93256344 -87.96432944 -15.2104265 -90 -13 C-89.37351562 -12.04738281 -88.74703125 -11.09476563 -88.1015625 -10.11328125 C-87.27581151 -8.84650416 -86.45030348 -7.57956868 -85.625 -6.3125 C-85.2125 -5.68666016 -84.8 -5.06082031 -84.375 -4.41601562 C-80.45248333 1.62592537 -78.03398826 6.67317251 -79 14 C-81.94144323 20.61824728 -87.16104936 22.59625771 -93.5625 25.1875 C-103.23426035 29.27323115 -113.32713097 34.7872607 -119 44 C-120.08361039 46.54565133 -120.08361039 46.54565133 -119 49 C-115.88893933 52.94643807 -112.57931812 55.26684897 -107.5625 55.9375 C-104.08228015 56.11267885 -100.79708371 55.7838594 -97.34765625 55.26953125 C-82.72840858 53.59111513 -67.28601624 55.87433911 -55.45166016 65.22314453 C-43.70631105 75.35530363 -36.77533749 87.97550531 -30.37646484 101.87866211 C-22.55647515 118.75167597 -13.41410625 132.79612812 3.375 141.8125 C7.60268946 143.19743275 11.71968284 143.77871741 16.1328125 144.27734375 C19.74037952 145.18660792 21.4234561 146.30972072 24 149 C25.11882955 151.5672368 25.95135727 153.83195449 26.6875 156.5 C26.89536133 157.21486572 27.10322266 157.92973145 27.31738281 158.66625977 C31.70380488 174.1942634 32.09088138 189.96448479 32 206 C35.97262433 204.62175033 39.94177574 203.23404784 43.90795898 201.83740234 C45.2582759 201.36341885 46.60951433 200.89205232 47.96166992 200.42333984 C49.90269997 199.74999389 51.84024456 199.06737177 53.77734375 198.3828125 C55.52905884 197.77010498 55.52905884 197.77010498 57.31616211 197.14501953 C60.12529865 196.28872856 60.12529865 196.28872856 61 194 C64.2822306 173.92108457 62.77368064 151.89315266 59 132 C58.79117188 130.89108398 58.79117188 130.89108398 58.578125 129.75976562 C49.45297808 83.24686396 23.18341032 40.32149245 -14 11 C-15.010625 10.18402344 -16.02125 9.36804688 -17.0625 8.52734375 C-30.04174085 -1.83798039 -64.42230891 -27.99517811 -80.9375 -19.75 Z M-306 51 C-305 53 -305 53 -305 53 Z M-307 53 C-337.72233509 93.48837538 -349.08554761 147.42114736 -342.41040039 197.25170898 C-335.72446499 242.56915069 -315.12112163 280.84160404 -284 314 C-280.60093151 310.66710806 -277.42939626 307.22102246 -274.3125 303.625 C-268.08133372 296.7335161 -260.56029297 289.72238821 -250.94921875 288.6640625 C-239.36666321 288.52534926 -234.4958113 291.50990804 -226.14453125 299.1640625 C-220.35761487 304.11825321 -213.41516456 305.17387282 -206 305 C-200.95711801 304.08790924 -196.42814328 302.23659739 -191.8125 300.0625 C-186.60964678 297.61901715 -181.12276211 296.42107862 -175.55078125 295.125 C-170.54757098 293.53982447 -167.01078777 291.60331853 -164.1875 287.125 C-160.96014563 278.6319622 -160.45556287 267.79541014 -163.76953125 259.22265625 C-174.20918228 240.3650009 -197.439998 234.09719926 -216.30615234 227.26342773 C-263.63290454 210.11247442 -263.63290454 210.11247442 -281 196 C-281.84949219 195.31421875 -282.69898438 194.6284375 -283.57421875 193.921875 C-304.19240487 176.36642097 -311.77973513 151.6333413 -314.6875 125.625 C-314.81949788 123.75175355 -314.91990424 121.87618239 -315 120 C-315.02723145 119.36497559 -315.05446289 118.72995117 -315.08251953 118.07568359 C-315.77348429 99.15020224 -313.66844555 80.57132027 -307.89404297 62.51025391 C-307.63510254 61.6960498 -307.37616211 60.8818457 -307.109375 60.04296875 C-306.87186523 59.33164795 -306.63435547 58.62032715 -306.38964844 57.88745117 C-305.79186761 55.7885631 -305.79186761 55.7885631 -307 53 Z M-97 201 C-101.22051515 211.865113 -105.19874436 222.7028613 -107.875 234.0625 C-108.06537842 234.86840576 -108.25575684 235.67431152 -108.4519043 236.50463867 C-111.11846307 248.37703069 -112.3916637 259.95140896 -112.375 272.125 C-112.37445618 272.80087158 -112.37391235 273.47674316 -112.37335205 274.1730957 C-112.27141966 301.84325545 -103.57566529 327.13618012 -83.96484375 347.06640625 C-82.97796016 348.04568136 -81.98975374 349.02362583 -81 350 C-80.17628906 350.83402344 -79.35257812 351.66804687 -78.50390625 352.52734375 C-62.51270679 367.88834816 -42.1316118 374.3961419 -20.3671875 374.0703125 C-19.25601563 374.04710937 -18.14484375 374.02390625 -17 374 C-18.59518313 368.61625692 -20.96906101 363.79970741 -23.5 358.8125 C-23.88414062 358.04486328 -24.26828125 357.27722656 -24.6640625 356.48632812 C-27.61234566 350.63148279 -30.66268131 344.83206784 -33.72265625 339.03515625 C-38.4438054 330.08976568 -43.07455461 321.10028567 -47.6763916 312.0930481 C-55.03784719 297.68633534 -62.44052143 283.30405921 -70 269 C-66.71708087 266.23170062 -63.5567288 264.10722982 -59.6875 262.25 C-58.36298828 261.60804688 -58.36298828 261.60804688 -57.01171875 260.953125 C-56.01591797 260.48132813 -56.01591797 260.48132813 -55 260 C-54.773125 260.77988281 -54.54625 261.55976563 -54.3125 262.36328125 C-52.57689268 267.17235987 -50.30871244 271.63116917 -48 276.1875 C-47.56816406 277.05052734 -47.13632812 277.91355469 -46.69140625 278.80273438 C-43.62818883 284.8901197 -40.46730553 290.92352518 -37.28515625 296.94921875 C-31.45326332 307.99453624 -25.77619001 319.1173293 -20.10180664 330.24414062 C-14.16445224 341.88200711 -8.14975565 353.47284027 -2 365 C1.93840406 363.68719865 3.1774453 361.29000169 5.3125 357.9375 C5.70767822 357.31770264 6.10285645 356.69790527 6.51000977 356.05932617 C19.09407685 335.54466183 20.4872539 312.66752632 15.1953125 289.6328125 C11.41232296 274.40798225 4.27113115 260.81857087 -6 249 C-6.65355469 248.20207031 -7.30710937 247.40414062 -7.98046875 246.58203125 C-26.92926968 224.22031307 -54.43696348 211.95373148 -81.875 203.5 C-83.11455444 203.11642334 -83.11455444 203.11642334 -84.37915039 202.72509766 C-88.70804105 201.45402551 -92.43720632 200.70657275 -97 201 Z M30 226 C28.89914062 226.59941406 27.79828125 227.19882812 26.6640625 227.81640625 C20.33672847 231.37851999 14.58416234 235.3606328 9 240 C9.3403125 240.48726563 9.680625 240.97453125 10.03125 241.4765625 C28.11557289 267.92969438 38.27305545 297.65743403 33.3515625 330.04296875 C30.4401435 345.52348016 24.1679837 359.27662749 15 372 C14.505 372.99 14.505 372.99 14 374 C33.53178646 375.33171271 53.09452583 367.49532686 68 355 C83.85565468 340.93441762 94.67722805 324.67036009 100.8125 304.375 C101.00755127 303.73135498 101.20260254 303.08770996 101.40356445 302.42456055 C104.45082153 291.61331721 105.36763887 280.69319016 105.3125 269.5 C105.30686035 268.2816748 105.3012207 267.06334961 105.29541016 265.80810547 C105.02105991 245.1014524 100.73112473 225.54924742 94 206 C72.42599092 206 48.63831708 215.69878926 30 226 Z " fill="#000000" transform="translate(379,90)"/>
<path d="M0 0 C8.84070191 7.66318771 12.65699737 20.34175138 13.84765625 31.6015625 C14.99723872 49.63185606 14.99723872 49.63185606 9.5234375 56.1875 C7.19797699 58.29933553 5.02555809 59.54621526 2.03515625 60.4765625 C-1.14856785 61.60022983 -2.70981223 62.73277072 -5.27734375 64.8515625 C-13.30790054 71.36872064 -22.6216393 76.45081286 -33.15234375 75.6015625 C-41.18981179 73.45651476 -46.79744724 69.66019955 -51.3984375 62.72265625 C-59.25578026 48.47582597 -56.81032441 30.76272489 -53.15234375 15.6015625 C-52.06889168 12.54292827 -50.91040687 10.37184378 -49.15234375 7.6015625 C-48.61609375 6.7353125 -48.07984375 5.8690625 -47.52734375 4.9765625 C-35.5351886 -7.01559265 -14.25766756 -9.69408013 0 0 Z M-34.52734375 16.8515625 C-39.57488809 25.39356061 -40.55197013 37.46016176 -38.65625 47.1328125 C-37.21322022 52.02443887 -35.45811093 55.59753889 -31.15234375 58.6015625 C-25.71739416 59.09564883 -22.42826127 55.70509252 -18.45703125 52.44921875 C-13.71207543 48.6452118 -8.83134573 45.76545808 -3.15234375 43.6015625 C-2.59361516 32.90294466 -4.19736819 23.63007383 -10.15234375 14.6015625 C-13.23379688 11.52010937 -15.57337969 11.6401601 -19.90234375 11.3515625 C-25.62890553 11.44771746 -30.339499 12.88413064 -34.52734375 16.8515625 Z " fill="#000000" transform="translate(155.15234375,175.3984375)"/>
</svg>
