<svg version="1.1" xmlns="http://www.w3.org/2000/svg" width="1920" height="1080" class="svg-preview" style="max-width: 100%; max-height: 500px;">
<path d="M0 0 C1.08410154 0.00037972 2.16820309 0.00075944 3.28515619 0.00115067 C4.53071946 -0.00084038 5.77628273 -0.00283143 7.05959034 -0.00488281 C8.4597478 -0.00202922 9.85990507 0.00091639 11.26006216 0.00394398 C12.73347913 0.00350841 14.20689603 0.00263376 15.68031251 0.00135481 C19.74842481 -0.0008929 23.81651104 0.00313489 27.88462001 0.00813287 C32.26432979 0.01243324 36.64403799 0.01099125 41.02374929 0.0102306 C48.61829696 0.0097051 56.21283606 0.0128546 63.80738157 0.01846844 C74.78795115 0.02657995 85.76851657 0.0291983 96.74908882 0.03045643 C114.56239555 0.0326475 132.37569772 0.03930908 150.18900198 0.04875904 C167.49759549 0.05793174 184.80618777 0.06501327 202.11478323 0.06926686 C203.71392527 0.06966094 203.71392527 0.06966094 205.34537322 0.07006299 C210.69341602 0.07136798 216.04145882 0.0726317 221.38950163 0.07387489 C265.78857327 0.08424922 310.18763993 0.10186903 354.58670706 0.1241985 C357.01350186 5.37597488 359.43961354 10.62806615 361.86514944 15.88042408 C362.68674869 17.65931494 363.50852004 19.43812633 364.33048147 21.21684986 C369.62207473 32.6682263 374.88137191 44.13335585 380.08670706 55.6241985 C380.74484444 57.07576639 381.40304769 58.52730442 382.06131643 59.97881275 C382.35800222 60.63305477 382.65468801 61.28729679 382.96036428 61.96136433 C387.45518787 71.87082552 392.01915613 81.74809978 396.58670706 91.6241985 C402.43541616 104.27045672 408.24253781 116.93415779 413.99344534 129.62517506 C419.14109455 140.98150264 424.35284053 152.30737177 429.58670706 163.6241985 C435.43541616 176.27045672 441.24253781 188.93415779 446.99344534 201.62517506 C452.14109455 212.98150264 457.35284053 224.30737177 462.58670706 235.6241985 C468.43541616 248.27045672 474.24253781 260.93415779 479.99344534 273.62517506 C485.14109455 284.98150264 490.35284053 296.30737177 495.58670706 307.6241985 C501.43541616 320.27045672 507.24253781 332.93415779 512.99344534 345.62517506 C518.14109455 356.98150264 523.35284053 368.30737177 528.58670706 379.6241985 C534.43541616 392.27045672 540.24253781 404.93415779 545.99344534 417.62517506 C551.51833441 429.81373872 557.11966074 441.96615223 562.73743337 454.11214405 C568.31092373 466.16453331 573.83436871 478.2383958 579.3152532 490.33315235 C585.64891483 504.30610165 592.10696405 518.21823317 598.58670706 532.1241985 C612.44670706 532.1241985 626.30670706 532.1241985 640.58670706 532.1241985 C645.86025897 519.526346 645.86025897 519.526346 651.13358206 506.92839772 C655.1167125 497.41241375 659.10058215 487.89674104 663.08670706 478.382011 C671.36436757 458.6214929 679.62117081 438.85243243 687.85666555 419.07430226 C693.75155838 404.91790927 699.66115787 390.76778564 705.58670706 376.6241985 C711.89410596 361.56823656 718.1849671 346.5054684 724.46170706 331.4366985 C724.8770873 330.43949787 725.29246755 329.44229725 725.72043508 328.41487843 C728.67637622 321.31820044 731.63162038 314.22123231 734.58670706 307.1241985 C737.96122985 299.01983303 741.3360587 290.91559521 744.71170706 282.8116985 C745.33501913 281.31529331 745.33501913 281.31529331 745.97092336 279.78865772 C752.19069779 264.85826711 758.42880717 249.93563747 764.67865652 235.01781422 C772.20049438 217.06278513 779.6904997 199.09454159 787.17383474 181.12343556 C787.94903753 179.26208853 788.72451997 177.40085795 789.50031179 175.53975636 C791.08495144 171.73732043 792.66739793 167.93415144 794.23270315 164.12371022 C794.68339163 163.02945729 795.1340801 161.93520436 795.59842581 160.80779225 C795.96798391 159.9047234 796.33754202 159.00165455 796.71829885 158.07121998 C797.58670706 156.1241985 797.58670706 156.1241985 798.58670706 155.1241985 C801.05020006 154.99924822 803.48707473 154.93817646 805.95218557 154.91887623 C807.10820272 154.90402683 807.10820272 154.90402683 808.28757375 154.88887745 C810.84688852 154.85717149 813.40622189 154.83246929 815.96561331 154.80779225 C817.73538865 154.78723056 819.50515899 154.7662343 821.27492422 154.74481922 C825.94216525 154.6895174 830.60945119 154.64014404 835.27677053 154.59197193 C840.03572252 154.54181597 844.79460896 154.48609915 849.55350393 154.43083912 C858.89784904 154.32315842 868.24225095 154.22173561 877.58670706 154.1241985 C876.17300833 153.54303272 876.17300833 153.54303272 874.73075002 152.95012623 C873.47166085 152.42384338 872.21271671 151.89721347 870.95389456 151.37029225 C870.33538625 151.11711231 869.71687795 150.86393238 869.07962698 150.60308033 C862.89698575 147.99954206 857.78942439 144.34105061 852.58670706 140.1241985 C851.88030081 139.58150318 851.17389456 139.03880787 850.44608206 138.47966725 C835.0547326 126.02721719 826.32568956 106.58926527 823.83670706 87.2491985 C823.73203206 85.87565833 823.647811 84.50036555 823.58670706 83.1241985 C823.54674612 82.43583912 823.50678518 81.74747975 823.46561331 81.038261 C822.81079517 59.69889355 831.37006126 39.68160113 845.58670706 24.1241985 C860.07299632 9.00061055 880.09178815 0.41540166 900.98978323 -0.23151439 C922.40384329 -0.42277621 941.66679711 7.17864728 957.24686331 21.82341725 C958.01901174 22.58267506 958.79116018 23.34193287 959.58670706 24.1241985 C960.63664846 25.15480397 960.63664846 25.15480397 961.70780081 26.20622975 C976.62880057 41.88345952 982.09212995 62.05482949 981.79764456 83.2335735 C981.13812037 104.28949366 971.26643521 123.66944758 956.12576956 138.03435475 C947.69271875 144.97540426 938.56317402 149.58944078 928.58670706 154.1241985 C973.13670706 154.4541985 1017.68670706 154.7841985 1063.58670706 155.1241985 C1064.76819855 158.66867298 1064.35824512 159.46444329 1063.10575002 162.8844524 C1062.75216421 163.86377735 1062.39857839 164.8431023 1062.03427786 165.85210377 C1061.63650137 166.92416065 1061.23872488 167.99621754 1060.82889456 169.100761 C1060.41887197 170.22776417 1060.00884939 171.35476734 1059.58640188 172.51592213 C1058.45730019 175.61346706 1057.31998254 178.70776056 1056.17899984 181.80093342 C1054.97010814 185.08444823 1053.77204099 188.37190983 1052.5725469 191.65886647 C1049.59173139 199.81931015 1046.59139279 207.9725187 1043.58670706 216.1241985 C1043.13481008 217.3504192 1042.68291311 218.5766399 1042.21732229 219.84001881 C1038.7865295 229.14700395 1035.35400202 238.45335536 1031.91501516 247.75731617 C1024.61231936 267.5167697 1017.45946961 287.32696719 1010.35798544 307.15930134 C1002.94766031 327.85292731 995.42441241 348.50089707 987.79471487 369.11492115 C980.77906799 388.07834704 973.90268663 407.08841024 967.08670706 426.1241985 C959.43410393 447.49652379 951.67456965 468.82501873 943.79471487 490.11492115 C936.77906799 509.07834704 929.90268663 528.08841024 923.08670706 547.1241985 C915.43410393 568.49652379 907.67456965 589.82501873 899.79471487 611.11492115 C892.77906799 630.07834704 885.90268663 649.08841024 879.08670706 668.1241985 C871.43410393 689.49652379 863.67456965 710.82501873 855.79471487 732.11492115 C848.53179291 751.74673624 841.42218521 771.43011381 834.36606115 791.13685948 C824.95309382 817.42376526 815.35643778 843.63948461 805.65453237 869.8211742 C805.3077091 870.75753208 804.96088583 871.69388996 804.60355276 872.65862232 C804.10560705 874.00157871 804.10560705 874.00157871 803.59760183 875.37166554 C802.88110285 877.32259763 802.17419434 879.27706412 801.47400564 881.23390919 C801.11569662 882.23499714 800.7573876 883.23608509 800.38822073 884.26750904 C799.90526792 885.62866085 799.90526792 885.62866085 799.4125585 887.01731068 C798.58670706 889.1241985 798.58670706 889.1241985 797.58670706 890.1241985 C795.69450332 890.22183891 793.79859643 890.24791184 791.90387529 890.24724633 C790.66179542 890.24923737 789.41971554 890.25122842 788.13999689 890.25327981 C786.74376968 890.25042621 785.34754266 890.2474806 783.95131582 890.24445301 C782.48202365 890.24488859 781.01273155 890.24576323 779.54343987 890.24704218 C775.48672911 890.24928989 771.43004451 890.24526211 767.37333709 890.24026412 C763.00589736 890.23596374 758.63845922 890.23740575 754.27101797 890.23816639 C746.69775122 890.23869189 739.12449305 890.2355424 731.55122846 890.22992855 C720.60142797 890.22181704 709.65163166 890.21919869 698.70182849 890.21794056 C680.93843604 890.21574949 663.17504818 890.20908792 645.41165823 890.19963795 C628.15156732 890.19046525 610.89147765 890.18338372 593.63138479 890.17913014 C592.56827709 890.17886741 591.50516939 890.17860469 590.4098463 890.17833401 C585.07678757 890.17702901 579.74372884 890.17576529 574.4106701 890.1745221 C530.13601258 890.16414778 485.86136005 890.14652797 441.58670706 890.1241985 C440.94277829 888.68315451 440.29967649 887.24174097 439.65692514 885.80017143 C439.29870937 884.99752391 438.94049361 884.19487639 438.57142282 883.36790621 C437.48854164 880.90052531 436.5019817 878.41376715 435.56986135 875.88567311 C435.04962644 874.48090969 435.04962644 874.48090969 434.51888174 873.04776722 C434.15325628 872.05076298 433.78763082 871.05375874 433.41092581 870.02654225 C433.01335577 868.94909245 432.61578573 867.87164265 432.20616812 866.76154286 C430.89209291 863.19617706 429.58293017 859.62903204 428.27420706 856.0616985 C427.81257993 854.80620036 427.35082729 853.55074836 426.88895315 852.29534107 C419.0279877 830.92513695 411.31082166 809.50441737 403.63391775 788.06752735 C396.88235557 769.21640102 390.0372027 750.40314533 383.08670706 731.6241985 C375.38727959 710.82177711 367.83494168 689.97078746 360.35758108 669.08788258 C353.3658286 649.56284881 346.28554703 630.07412556 339.08670706 610.6241985 C331.38727959 589.82177711 323.83494168 568.97078746 316.35758108 548.08788258 C309.3658286 528.56284881 302.28554703 509.07412556 295.08670706 489.6241985 C287.3907936 468.83127133 279.84144968 447.98994786 272.36784643 427.11644703 C264.89557253 406.24817609 257.32641728 385.41798498 249.64920706 364.6241985 C249.29996679 363.67827839 249.29996679 363.67827839 248.94367117 362.71324879 C246.16255828 355.18188285 243.37707895 347.65213875 240.58670706 340.1241985 C238.49453296 343.26245965 237.18927647 346.26167174 235.74295706 349.74529225 C235.4621076 350.41966328 235.18125814 351.09403431 234.8918981 351.78884083 C233.95350106 354.04509164 233.02000384 356.30333365 232.08670706 358.5616985 C231.41945081 360.17007482 230.75204845 361.77839054 230.08450979 363.38664967 C222.9763066 380.53203127 215.96235982 397.71623498 208.94644827 414.89952809 C200.2229163 436.26252002 191.46419164 457.61127133 182.64920706 478.9366985 C181.89534719 480.76189015 181.89534719 480.76189015 181.12625784 482.62395436 C180.67105764 483.72360523 180.21585745 484.82325611 179.74686331 485.95622975 C179.35120168 486.91247242 178.95554006 487.8687151 178.5478887 488.85393482 C176.54547283 493.58354243 174.0603613 494.42651689 169.46951956 496.37029225 C168.72254308 496.69298084 167.97556661 497.01566944 167.20595449 497.34813648 C165.57295523 498.0528085 163.93866989 498.75450567 162.30329031 499.45363575 C158.77406993 500.96259658 155.25106605 502.4858104 151.72777456 504.00855213 C149.86697288 504.81276722 148.00587246 505.61629138 146.14449209 506.41916615 C136.86168133 510.42643621 127.61331346 514.51019214 118.36945242 518.60634571 C113.84645275 520.61050693 109.32209433 522.61159478 104.79764456 524.61247975 C103.92541754 524.99823673 103.05319052 525.38399372 102.15453237 525.78144032 C95.34924854 528.78992978 88.53977909 531.78864478 81.72147268 534.76750904 C79.12009395 535.90503364 76.52585663 537.05691415 73.93631643 538.22112232 C68.14297571 540.81034963 62.37217004 543.25770704 56.36354727 545.30886036 C53.59890578 546.26011798 50.86013719 547.2765133 48.12055105 548.29735523 C46.24056945 548.96667141 44.32695116 549.53917028 42.41361135 550.10613209 C36.04210997 552.50691062 32.90734409 554.8387796 30.08914846 560.97112232 C28.01796484 566.14422996 26.32098691 571.42625964 24.66382498 576.74419361 C22.90078226 582.27663616 20.85976463 587.70416104 18.85233206 593.15154225 C18.03219334 595.41858149 17.21403393 597.68633764 16.39774221 599.9547649 C13.68707632 607.47789524 10.97170042 614.99930616 8.25076956 622.51872975 C8.01508135 623.17007138 7.77939314 623.821413 7.53656286 624.49249226 C2.48959811 638.43406855 -2.64474403 652.3429945 -7.78829294 666.2491985 C-15.52731811 687.17673666 -23.12018582 708.15306977 -30.64201456 729.15930134 C-38.0466779 749.83711655 -45.56219627 770.47008021 -53.18816477 791.06758839 C-61.3459921 813.11035565 -69.31566913 835.21832837 -77.2239247 857.35164505 C-78.16902452 859.99607226 -79.11539811 862.64004278 -80.06188112 865.28397518 C-80.70589057 867.08496094 -81.34772721 868.88672321 -81.98948008 870.68851429 C-82.57933947 872.33685009 -82.57933947 872.33685009 -83.18111521 874.01848561 C-83.68566988 875.43272061 -83.68566988 875.43272061 -84.20041758 876.87552601 C-85.86031724 881.32154783 -87.65075649 885.71785737 -89.41329294 890.1241985 C-207.22329294 890.1241985 -325.03329294 890.1241985 -446.41329294 890.1241985 C-452.03692266 876.62748717 -452.03692266 876.62748717 -453.75899607 871.79143482 C-454.15216013 870.69269535 -454.54532419 869.59395588 -454.95040232 868.46192127 C-455.36096873 867.30504307 -455.77153513 866.14816487 -456.19454294 864.95622975 C-456.64472476 863.69578858 -457.09525574 862.43547208 -457.54610544 861.17526966 C-458.50472249 858.49455495 -459.46174091 855.8132779 -460.41744334 853.13152272 C-462.99030314 845.91358848 -465.57591465 838.70022019 -468.16329294 831.48747975 C-468.42652857 830.75349587 -468.6897642 830.01951199 -468.96097666 829.26328617 C-474.19167371 814.68465056 -479.53460087 800.14890564 -484.91329294 785.6241985 C-492.61366532 764.8221331 -500.16506202 743.97077713 -507.64241892 723.08788258 C-514.6341714 703.56284881 -521.71445297 684.07412556 -528.91329294 664.6241985 C-536.61272041 643.82177711 -544.16505832 622.97078746 -551.64241892 602.08788258 C-558.6341714 582.56284881 -565.71445297 563.07412556 -572.91329294 543.6241985 C-580.61272041 522.82177711 -588.16505832 501.97078746 -595.64241892 481.08788258 C-602.6341714 461.56284881 -609.71445297 442.07412556 -616.91329294 422.6241985 C-624.61272041 401.82177711 -632.16505832 380.97078746 -639.64241892 360.08788258 C-646.63417162 340.56284818 -653.71450537 321.07414543 -660.91329294 301.6241985 C-669.16920979 279.31756615 -677.25919665 256.95528166 -685.27031904 234.55989891 C-690.07272459 221.13687644 -694.90536308 207.72788908 -699.86641794 194.36247975 C-700.29352564 193.21000752 -700.72063334 192.05753529 -701.16068369 190.87013966 C-703.15736905 185.48580494 -705.16289168 180.1050482 -707.18355662 174.72966725 C-707.88410662 172.84695642 -708.58439955 170.96414991 -709.28438669 169.08122975 C-709.60502085 168.23861088 -709.925655 167.39599201 -710.25600535 166.52783924 C-710.54308359 165.75115391 -710.83016184 164.97446858 -711.12593943 164.17424732 C-711.50153246 163.17473797 -711.50153246 163.17473797 -711.88471323 162.15503651 C-712.41329294 160.1241985 -712.41329294 160.1241985 -712.41329294 155.1241985 C-624.96329294 155.1241985 -537.51329294 155.1241985 -447.41329294 155.1241985 C-440.52648794 168.89780851 -440.52648794 168.89780851 -437.81173044 175.5773235 C-437.49761713 176.33904866 -437.18350382 177.10077381 -436.85987192 177.88558155 C-436.18472904 179.52418954 -435.5115907 181.16362468 -434.84032542 182.80382496 C-433.37240885 186.39030542 -431.89422217 189.97252994 -430.41703135 193.55519825 C-429.62970968 195.46515743 -428.84292382 197.37533755 -428.05664927 199.28572804 C-423.56228531 210.20379504 -419.0198766 221.10175366 -414.47579294 231.9991985 C-413.62665428 234.03662607 -412.77753323 236.07406098 -411.92842966 238.11150318 C-406.0695641 252.16693768 -400.19317476 266.21499327 -394.30907542 280.25987965 C-387.9006429 295.55690368 -381.51803111 310.86458713 -375.14278513 326.17546803 C-369.24807192 340.33140172 -363.3386516 354.48106612 -357.41329294 368.6241985 C-351.10589404 383.68016044 -344.8150329 398.74292859 -338.53829294 413.8116985 C-337.91522257 415.30749943 -337.91522257 415.30749943 -337.27956492 416.83351856 C-333.89991732 424.94743884 -330.52121165 433.06175127 -327.14254099 441.17607838 C-324.60931778 447.25985516 -322.07575931 453.34349214 -319.54180247 459.42696339 C-318.71045928 461.42305734 -317.87926064 463.4192115 -317.04821116 465.41542774 C-312.44599685 476.47005744 -307.83146435 487.51931126 -303.19063669 498.55779225 C-302.34767671 500.56453681 -301.50474009 502.57129119 -300.6618281 504.57805592 C-299.07226567 508.36213287 -297.47894939 512.14459915 -295.88350779 515.92620045 C-295.17064263 517.62235044 -294.45790725 519.31855498 -293.74532419 521.0148235 C-293.42031428 521.78221348 -293.09530436 522.54960346 -292.76044565 523.34024769 C-291.39338198 526.60218998 -290.27365727 529.6827412 -289.41329294 533.1241985 C-275.22329294 533.1241985 -261.03329294 533.1241985 -246.41329294 533.1241985 C-245.42329294 530.1541985 -244.43329294 527.1841985 -243.41329294 524.1241985 C-242.36907183 521.71905029 -241.28042017 519.33269119 -240.14766794 516.9679485 C-239.83783472 516.31638279 -239.5280015 515.66481709 -239.20877939 514.99350697 C-238.54405516 513.59631189 -237.87715693 512.20014932 -237.20824534 510.80495411 C-235.39335972 507.01739208 -233.59712539 503.22099848 -231.80001169 499.42497975 C-231.43121393 498.64669316 -231.06241617 497.86840657 -230.68244272 497.06653553 C-227.03345534 489.35100548 -223.49238529 481.58827201 -219.97579294 473.8116985 C-218.73648519 471.07329245 -217.4968689 468.33502621 -216.25704294 465.59685475 C-215.79054079 464.56633991 -215.79054079 464.56633991 -215.31461436 463.5150066 C-211.56734061 455.2449043 -207.77113975 446.99731903 -203.97579294 438.7491985 C-198.4393512 426.71462101 -192.91642258 414.67404641 -187.41329294 402.6241985 C-181.57362013 389.83826342 -175.71283812 377.06217156 -169.84053904 364.29119068 C-164.68372435 353.07541241 -159.54186712 341.85291689 -154.41329294 330.6241985 C-148.57350402 317.83831627 -142.71283827 305.0621719 -136.84053904 292.29119068 C-131.68372435 281.07541241 -126.54186712 269.85291689 -121.41329294 258.6241985 C-115.57350402 245.83831627 -109.71283827 233.0621719 -103.84053904 220.29119068 C-98.68372435 209.07541241 -93.54186712 197.85291689 -88.41329294 186.6241985 C-82.57350402 173.83831627 -76.71283827 161.0621719 -70.84053904 148.29119068 C-65.68372435 137.07541241 -60.54186712 125.85291689 -55.41329294 114.6241985 C-49.92911119 102.61689775 -44.42797991 90.61751921 -38.91329294 78.6241985 C-33.61510423 67.10153991 -28.32706288 55.57433811 -23.05614573 44.03917652 C-22.05228529 41.84231947 -21.04812896 39.64559788 -20.04390818 37.44890553 C-17.30028905 31.44661996 -14.55777656 25.44384928 -11.82344919 19.43732411 C-10.54232125 16.62396619 -9.25874482 13.81172503 -7.97579294 10.9991985 C-7.52091501 9.9971941 -7.06603709 8.99518971 -6.59737498 7.96282154 C-6.18729197 7.06474781 -5.77720896 6.16667408 -5.35469919 5.241386 C-5.0009321 4.46392018 -4.64716501 3.68645436 -4.28267771 2.88542897 C-2.93286874 0.15093811 -2.93286874 0.15093811 0 0 Z M323.58670706 97.3116985 C322.125539 98.42378486 320.66325912 99.53441163 319.19998831 100.64372975 C318.43895803 101.22074635 317.67792776 101.79776295 316.89383596 102.3922649 C313.22466808 105.14666458 309.50133122 107.82401904 305.77420706 110.4991985 C299.51370796 114.99927011 293.28684845 119.54131984 287.08670706 124.1241985 C280.83883034 128.73968939 274.57223535 133.32734242 268.27420706 137.8741985 C267.17036672 138.67132252 267.17036672 138.67132252 266.04422659 139.48455006 C262.48980274 142.04665428 258.92684566 144.5957042 255.34842581 147.1241985 C254.36193044 147.82270924 254.36193044 147.82270924 253.35550588 148.53533131 C252.12181479 149.40751926 250.88606973 150.27681144 249.64798635 151.14275318 C248.27662001 152.1121284 246.92866007 153.11449751 245.58670706 154.1241985 C245.58670706 154.4541985 245.58670706 154.7841985 245.58670706 155.1241985 C268.85170706 155.6191985 268.85170706 155.6191985 292.58670706 156.1241985 C294.61440237 161.22372975 296.64209768 166.323261 298.73123831 171.5773235 C314.93729647 212.33221028 331.14945991 253.08466627 347.37122244 293.83330494 C349.19594968 298.41698046 351.02051211 303.00072153 352.84491628 307.58452564 C362.08440906 330.79829571 371.33470397 354.00762191 380.61989683 377.20315319 C386.80250508 392.64940771 392.96504507 408.1035918 399.11795706 423.5616985 C399.56633869 424.68816603 400.01472032 425.81463356 400.47668928 426.97523648 C404.14069521 436.18076188 407.80374945 445.38666593 411.46677297 454.59258229 C414.66256207 462.62412908 417.85871759 470.65552992 421.05545706 478.6866985 C421.72859693 480.37785282 421.72859693 480.37785282 422.4153356 482.10317189 C428.45792779 497.28267987 434.51463081 512.45646211 440.58670706 527.6241985 C447.11432896 543.92986466 453.62259339 560.243155 460.11795706 576.5616985 C460.56643499 577.68840962 461.01491293 578.81512074 461.4769811 579.97597462 C465.1408897 589.181254 468.80384727 598.38691176 472.46677297 607.59258229 C475.66256207 615.62412908 478.85871139 623.65553239 482.05545706 631.6866985 C482.50074821 632.80541088 482.94603937 633.92412327 483.4048242 635.07673603 C490.41315127 652.6820654 497.44137404 670.2793655 504.48317617 687.87132984 C505.20047268 689.66329918 505.91776307 691.45527096 506.6350469 693.24724537 C506.97786608 694.10370026 507.32068527 694.96015515 507.67389292 695.84256321 C510.68466557 703.36583866 513.68584377 710.89290669 516.68436331 718.4210735 C517.93426343 721.55623695 519.18439102 724.6913096 520.43460745 727.82634693 C521.2756025 729.93669512 522.11571269 732.04739607 522.95511526 734.15837818 C524.21667578 737.33022136 525.48143039 740.50077365 526.74686331 743.6710735 C527.12271063 744.61843373 527.49855795 745.56579396 527.88579458 746.54186207 C528.22803564 747.39757801 528.5702767 748.25329396 528.9228887 749.13494068 C529.22167425 749.88523548 529.5204598 750.63553028 529.82829946 751.40856129 C530.46094051 753.11871249 530.46094051 753.11871249 531.58670706 754.1241985 C533.85228093 754.2212746 536.12095008 754.24606471 538.3886022 754.24445301 C539.10816184 754.24530744 539.82772148 754.24616186 540.56908596 754.24704218 C542.99824286 754.2486991 545.42733183 754.24317218 547.85648245 754.23772389 C549.59059803 754.23744203 551.32471373 754.23759971 553.05882925 754.23816639 C557.78177026 754.23845444 562.50468611 754.23255649 567.22762126 754.22559243 C572.15773496 754.21936016 577.08784918 754.2187552 582.01796621 754.21756703 C591.36067067 754.21445334 600.7033635 754.20623944 610.04606283 754.19621754 C620.6794976 754.18505757 631.31293292 754.17954624 641.94637209 754.1745221 C663.82649025 754.16405686 685.70659792 754.14645669 707.58670706 754.1241985 C710.90419351 746.97099631 714.01055309 739.76892925 716.91116995 732.43743092 C717.3120281 731.43062779 717.71288625 730.42382466 718.12589163 729.38651234 C719.43958058 726.085231 720.74947981 722.78246014 722.05936331 719.47966725 C722.98729638 717.14577411 723.91547799 714.81197978 724.84389395 712.4782787 C727.03781121 706.96193985 729.22938508 701.44467397 731.41975152 695.92692459 C734.10801584 689.15523813 736.7994386 682.38480786 739.49100393 675.61443287 C740.4461104 673.21186342 741.40120893 670.80929081 742.35629934 668.40671498 C742.82377836 667.23074946 743.29125738 666.05478394 743.77290243 664.8431831 C745.18505548 661.29042585 746.59683696 657.73752115 748.00852102 654.18457752 C752.98166854 641.66902058 757.96500957 629.15775738 762.97365469 616.65636402 C767.84379283 604.49500185 772.68742312 592.32309755 777.53201956 580.15154225 C778.2065747 578.45686723 778.2065747 578.45686723 778.89475721 576.72795635 C783.10250993 566.15672017 787.30958492 555.58521431 791.51639456 545.01360279 C800.86647085 521.51756751 810.21953694 498.02282047 819.61795706 474.5460735 C826.11170682 458.32503505 832.58616734 442.09640105 839.04764456 425.86247975 C839.49367151 424.74189608 839.93969846 423.62131241 840.39924139 422.46677166 C844.0432933 413.31115266 847.68644014 404.15517357 851.32944387 394.99913746 C883.6427841 313.78614582 883.6427841 313.78614582 897.47733206 279.50310475 C898.58037113 276.76578893 899.68320445 274.02839036 900.78592581 271.29094654 C901.52065894 269.46998967 902.25712949 267.6497333 902.99491018 265.83000904 C904.11876715 263.05624936 905.23619958 260.27997991 906.35233206 257.50310475 C906.68331899 256.69112126 907.01430593 255.87913777 907.35532278 255.04254872 C909.09294548 250.71956821 909.09294548 250.71956821 909.58670706 246.1241985 C880.87670706 246.1241985 852.16670706 246.1241985 822.58670706 246.1241985 C819.54584658 252.20591945 816.63743412 258.11796378 814.08280081 264.382011 C813.60950842 265.52884358 813.60950842 265.52884358 813.12665457 266.69884449 C812.44587734 268.34954503 811.76676403 270.00093262 811.08917898 271.65294605 C809.60914668 275.26105759 808.12059826 278.86563886 806.63277334 282.47054249 C805.84004193 284.39157124 805.04774158 286.31277793 804.25585073 288.23415333 C799.748766 299.16769312 795.2001492 310.08385794 790.64920706 320.9991985 C789.80016424 323.03646934 788.95112453 325.07374148 788.10208791 327.1110149 C782.24308286 341.16658791 776.36665903 355.21482581 770.48248953 369.25987965 C764.49976521 383.54073185 758.53844995 397.83040859 752.58670706 412.1241985 C746.26880665 427.29735746 739.93779491 442.46490073 733.58670706 457.6241985 C727.27930815 472.68016044 720.98844702 487.74292859 714.71170706 502.8116985 C714.29632681 503.80889912 713.88094656 504.80609974 713.45297903 505.83351856 C710.4970379 512.93019655 707.54179373 520.02716468 704.58670706 527.1241985 C701.21218426 535.22856396 697.83729964 543.33277854 694.46170706 551.4366985 C694.05214773 552.42001148 693.6425884 553.40332447 693.22061819 554.41643482 C686.21594551 571.23235921 679.18810192 588.0385243 672.14481252 604.83830982 C671.78435842 605.69844685 671.42390432 606.55858387 671.05252737 607.44478565 C670.38442399 609.03898909 669.71599175 610.63305476 669.04715627 612.22695118 C668.7506719 612.93449543 668.45418752 613.64203968 668.14871877 614.37102467 C667.89371603 614.97903416 667.63871328 615.58704365 667.37598318 616.21347767 C666.42757419 618.50943564 665.50928983 620.81774155 664.58670706 623.1241985 C634.88670706 623.1241985 605.18670706 623.1241985 574.58670706 623.1241985 C564.42697906 601.1114545 554.28115661 579.10226696 544.26731008 557.02446705 C540.72382805 549.21674024 537.15457536 541.42080284 533.58670706 533.6241985 C528.09322462 521.61821436 522.61839537 509.60393548 517.15946096 497.58220631 C512.31830846 486.9219936 507.45791996 476.27070634 502.58670706 465.6241985 C497.09343411 453.61811813 491.61839567 441.60393614 486.15946096 429.58220631 C481.31830846 418.9219936 476.45791996 408.27070634 471.58670706 397.6241985 C466.09343411 385.61811813 460.61839567 373.60393614 455.15946096 361.58220631 C450.31830846 350.9219936 445.45791996 340.27070634 440.58670706 329.6241985 C435.09343411 317.61811813 429.61839567 305.60393614 424.15946096 293.58220631 C419.31830846 282.9219936 414.45791996 272.27070634 409.58670706 261.6241985 C404.09343411 249.61811813 398.61839567 237.60393614 393.15946096 225.58220631 C388.31830846 214.9219936 383.45791996 204.27070634 378.58670706 193.6241985 C373.09605943 181.62385603 367.62245453 169.61594421 362.1675176 157.59932667 C358.56948779 149.6735975 354.96212092 141.75228799 351.33670706 133.83904225 C350.98080496 133.06190876 350.62490286 132.28477528 350.25821584 131.4840923 C348.54979006 127.75395151 346.84001877 124.0244392 345.12772268 120.2960735 C340.84208165 110.95042214 336.67827295 101.55639269 332.58670706 92.1241985 C329.00936477 92.1241985 326.33602438 95.19089939 323.58670706 97.3116985 Z M-558.41329294 246.1241985 C-556.20953605 253.68975338 -556.20953605 253.68975338 -553.56812388 261.0120464 C-553.06699831 262.26153317 -553.06699831 262.26153317 -552.555749 263.53626209 C-552.0205665 264.8513702 -552.0205665 264.8513702 -551.47457224 266.19304615 C-550.89706972 267.62765942 -550.89706972 267.62765942 -550.30790049 269.09125477 C-549.03850715 272.24191557 -547.76297461 275.39005301 -546.48751169 278.538261 C-545.58804609 280.76809326 -544.6890329 282.99810807 -543.79044443 285.22829396 C-541.88666451 289.95136022 -539.98044872 294.67343229 -538.07222849 299.39470631 C-533.57973715 310.5109872 -529.10117 321.63287029 -524.62335497 332.75506932 C-523.22298259 336.2316673 -521.82072091 339.70749788 -520.41809946 343.18318897 C-513.11073902 361.30608242 -505.95510981 379.48614563 -498.85041147 397.68932301 C-492.72723968 413.37738413 -486.46143966 429.00717097 -480.17891794 444.632011 C-479.71268519 445.79159069 -479.24645243 446.95117039 -478.76609141 448.14588886 C-474.02255002 459.94175585 -469.27425507 471.73569989 -464.51924998 483.52695042 C-455.34706732 506.27463741 -446.23611633 529.04156505 -437.33390909 551.89637333 C-431.27762896 567.4377149 -425.11047884 582.93232411 -418.88204294 598.4054485 C-418.43358767 599.51963028 -417.98513239 600.63381207 -417.52308756 601.78175694 C-414.32285819 609.73046188 -411.11853229 617.67751271 -407.91329294 625.6241985 C-404.25424957 634.69599155 -400.59721541 643.76858817 -396.94454294 652.8429485 C-396.49894022 653.94964894 -396.0533375 655.05634938 -395.59423167 656.19658619 C-388.5370786 673.73321301 -381.59316994 691.31194718 -374.77376658 708.9424358 C-368.88293014 724.11185021 -362.64136984 739.07301266 -356.41329294 754.1241985 C-298.00329294 754.1241985 -239.59329294 754.1241985 -179.41329294 754.1241985 C-165.89222103 720.1578952 -165.89222103 720.1578952 -152.37178904 686.19133717 C-136.50027461 646.32168402 -136.50027461 646.32168402 -129.34298044 628.44841725 C-123.63480066 614.193888 -117.9512134 599.9296199 -112.27266794 585.663261 C-111.82332014 584.53437521 -111.37397234 583.40548943 -110.91100794 582.24239498 C-107.19562721 572.90803118 -103.48088769 563.57341223 -99.76638132 554.23870045 C-80.19161288 505.04655326 -80.19161288 505.04655326 -70.47188669 480.75310475 C-70.11377342 479.85801512 -69.75566015 478.96292549 -69.38669497 478.04071194 C-65.38554524 468.04103343 -61.38087655 458.04276788 -57.37392336 448.04541355 C-52.59845303 436.13037906 -47.82804875 424.21333863 -43.06578737 412.29301792 C-40.62154752 406.17559032 -38.1743515 400.05937539 -35.72066599 393.9457317 C-33.2938787 387.8990736 -30.87509113 381.84925367 -28.46134859 375.79737622 C-27.55056386 373.51761988 -26.63707507 371.23894188 -25.72081286 368.96138149 C-24.46052141 365.82745437 -23.20978199 362.68988226 -21.96138865 359.55120045 C-21.39529131 358.15321217 -21.39529131 358.15321217 -20.81775767 356.7269817 C-20.48333658 355.88053593 -20.1489155 355.03409016 -19.80436045 354.16199452 C-19.5097206 353.4258558 -19.21508076 352.68971709 -18.91151243 351.93127114 C-18.17452274 350.04435855 -18.17452274 350.04435855 -19.41329294 348.1241985 C-28.61685956 354.7411853 -37.79715507 361.3871295 -46.91329294 368.1241985 C-53.05344354 372.66172525 -59.21683966 377.16386433 -65.41329294 381.6241985 C-74.80110067 388.38403599 -84.1102579 395.24837194 -93.41329294 402.1241985 C-102.99075459 409.20285238 -112.57675316 416.26826065 -122.22579294 423.2491985 C-122.96063914 423.78166188 -123.69548533 424.31412525 -124.45259959 424.86272389 C-125.14732371 425.36408863 -125.84204783 425.86545338 -126.55782419 426.382011 C-127.15957468 426.81658619 -127.76132517 427.25116139 -128.38131052 427.69890553 C-130.41329294 429.1241985 -130.41329294 429.1241985 -133.40450388 430.81047779 C-137.21764756 433.74273701 -138.53179327 436.55049136 -140.40938669 440.88591725 C-140.93456133 442.04082409 -140.93456133 442.04082409 -141.47034556 443.21906239 C-142.6134895 445.74293761 -143.73199723 448.27694828 -144.85079294 450.8116985 C-145.64845509 452.58425375 -146.44779304 454.35605576 -147.24874216 456.12712818 C-148.87584428 459.73143264 -150.49363034 463.33968316 -152.10323435 466.95183522 C-154.16815322 471.58301427 -156.25758341 476.20249124 -158.36251169 480.81560475 C-158.67053217 481.49080662 -158.97855265 482.16600849 -159.29590708 482.86167103 C-159.90717074 484.2014554 -160.51849308 485.54121301 -161.1298762 486.88094288 C-162.65887116 490.2358764 -164.18013389 493.59431282 -165.70235544 496.9523235 C-169.58729942 505.5181755 -173.4994352 514.07152848 -177.41329294 522.6241985 C-182.59573394 533.9504028 -187.763223 545.28323884 -192.91329294 556.6241985 C-197.88935895 567.58046495 -202.87489458 578.53235663 -207.87545115 589.47746998 C-208.55257956 590.95963416 -209.22950942 592.44188907 -209.90621287 593.92424732 C-210.8558417 596.00421525 -211.80632685 598.08378985 -212.75704294 600.163261 C-213.29522654 601.34098072 -213.83341013 602.51870045 -214.38790232 603.73210865 C-217.3736178 610.2066773 -220.39818968 616.66326293 -223.41329294 623.1241985 C-252.78329294 623.1241985 -282.15329294 623.1241985 -312.41329294 623.1241985 C-315.65833768 616.63410903 -318.70356829 610.28958995 -321.42501169 603.59685475 C-321.79040049 602.70764836 -322.15578928 601.81844197 -322.53225046 600.90228993 C-323.31629632 598.99337731 -324.09869401 597.08378702 -324.87957102 595.17357594 C-326.99212481 590.00666963 -329.11767541 584.84510728 -331.24141794 579.68279225 C-331.67530329 578.62721119 -332.10918864 577.57163014 -332.55622202 576.48406178 C-336.77760912 566.22081839 -341.05717671 555.98239085 -345.35079294 545.7491985 C-346.84193599 542.1933169 -348.3327513 538.63729798 -349.82344919 535.08122975 C-350.38308108 533.74637028 -350.38308108 533.74637028 -350.95401865 532.38454396 C-355.41434732 521.74175476 -359.85162647 511.08936833 -364.28829294 500.4366985 C-364.91122736 498.94116947 -364.91122736 498.94116947 -365.54674631 497.41542774 C-368.92648408 489.30132378 -372.30529573 481.18683427 -375.6840449 473.07231861 C-378.6350233 465.98526294 -381.58636987 458.89836075 -384.53829294 451.8116985 C-384.95383433 450.81409504 -385.36937571 449.81649159 -385.79750925 448.78865772 C-392.02162311 433.84785041 -398.26406408 418.91480058 -404.51833445 403.98659474 C-410.92648739 388.69020959 -417.30882282 373.38316614 -423.68380076 358.07292897 C-429.93875317 343.05189428 -436.21198439 328.038637 -442.49965769 313.03127247 C-451.83720469 290.7426523 -461.12350645 268.43277028 -470.41329294 246.1241985 C-499.45329294 246.1241985 -528.49329294 246.1241985 -558.41329294 246.1241985 Z " fill="#585858" transform="translate(796.4132929444313,94.8758015036583)"></path>
</svg>