<?xml version="1.0" encoding="UTF-8"?>
<svg version="1.1" xmlns="http://www.w3.org/2000/svg" width="512" height="512">
<path d="M0 0 C0.66887741 -0.0049649 1.33775482 -0.00992981 2.02690125 -0.01504517 C4.23449749 -0.02961958 6.44202179 -0.0364622 8.6496582 -0.04199219 C10.19179789 -0.04774917 11.73393758 -0.05350683 13.27607727 -0.05926514 C16.50990124 -0.06976286 19.74370046 -0.07561301 22.97753906 -0.07910156 C27.10197339 -0.08457231 31.22607527 -0.10857484 35.35040569 -0.13707352 C38.53763248 -0.15579037 41.7247808 -0.16091036 44.91205788 -0.16243744 C46.43136212 -0.16544602 47.95066559 -0.17341326 49.46991539 -0.18662262 C59.99217143 -0.27155203 69.93978669 -0.05226625 78.26293945 7.16113281 C83.07644223 13.31925257 85.76651636 19.27585534 85.26293945 27.16113281 C84.4455233 32.70607952 82.81745694 36.88968312 79.02075195 41.04785156 C78.08150879 42.08522461 78.08150879 42.08522461 77.12329102 43.14355469 C76.509375 43.80935547 75.89545898 44.47515625 75.26293945 45.16113281 C74.76503906 45.71349609 74.26713867 46.26585937 73.75415039 46.83496094 C60.18527721 61.83359302 45.59721843 75.902931 31.26293945 90.16113281 C26.7451825 94.65510253 22.22919019 99.15081946 17.71737671 103.65075684 C15.93426444 105.42747397 14.14813292 107.20111474 12.36181641 108.97460938 C7.30319882 114.01046991 2.32675558 119.06578943 -2.30950928 124.49981689 C-28.10470766 154.51903553 -58.85532536 174.63064336 -98.93334961 177.88769531 C-128.63915007 179.70324886 -156.92763514 173.02125296 -185.18530273 164.76269531 C-195.60193045 161.72383202 -205.99273161 158.8173224 -216.73706055 157.16113281 C-217.81205811 156.98960693 -218.88705566 156.81808105 -219.99462891 156.64135742 C-232.96885833 154.78124987 -245.92620382 154.78449719 -259.01269531 154.70483398 C-261.99792228 154.68323115 -264.98251998 154.6438743 -267.9675293 154.60253906 C-269.33001045 154.60236534 -269.33001045 154.60236534 -270.72001648 154.60218811 C-275.52161106 154.52674176 -278.87697094 154.34192899 -282.73706055 151.16113281 C-285.15891619 147.52834934 -285.00058691 145.80144731 -285.02758789 141.47412109 C-285.03430511 140.79896454 -285.04102234 140.12380798 -285.04794312 139.42819214 C-285.06694323 137.19586835 -285.07084835 134.96384493 -285.07299805 132.73144531 C-285.07942494 131.17829261 -285.08615321 129.62514112 -285.09317017 128.07199097 C-285.10514819 124.8153808 -285.10885049 121.55887674 -285.10766602 118.30224609 C-285.10746287 114.1335339 -285.13475717 109.9655038 -285.16921043 105.7969532 C-285.1914727 102.58841846 -285.19550376 99.380048 -285.19444656 96.17144394 C-285.19680385 94.6348727 -285.20563465 93.09829702 -285.2211113 91.56180191 C-285.24075767 89.40969672 -285.23494023 87.25906362 -285.22290039 85.10693359 C-285.22575043 83.88354279 -285.22860046 82.66015198 -285.23153687 81.39968872 C-284.64438889 77.55418294 -283.44854342 75.89788139 -280.73706055 73.16113281 C-278.79272461 72.44506836 -278.79272461 72.44506836 -276.75268555 72.29785156 C-275.99093018 72.22058838 -275.2291748 72.1433252 -274.44433594 72.0637207 C-273.63343506 71.9927417 -272.82253418 71.9217627 -271.98706055 71.84863281 C-256.99526389 69.96628671 -245.66707954 62.20145106 -232.97021484 54.46435547 C-226.43666594 50.50558856 -219.89901664 46.88052215 -212.73706055 44.16113281 C-212.04515625 43.89695557 -211.35325195 43.63277832 -210.64038086 43.3605957 C-203.35364758 40.85271777 -196.39446693 40.65843352 -188.73706055 40.72363281 C-187.44251953 40.73410645 -186.14797852 40.74458008 -184.81420898 40.75537109 C-174.53679772 40.94940574 -165.53337761 42.17544055 -155.73706055 45.16113281 C-154.54064941 45.52094238 -153.34423828 45.88075195 -152.11157227 46.25146484 C-146.4220015 47.96525026 -140.7371715 49.69428717 -135.05737305 51.44018555 C-112.20052119 58.45152251 -89.55584238 63.40986906 -65.55004883 63.6953125 C-59.38054087 63.82950397 -52.94535722 64.17532759 -48.17749023 68.61254883 C-43.68300933 73.86752393 -43.38712329 77.43362776 -43.4597168 84.17675781 C-43.83372452 88.20129163 -44.9631476 90.24122445 -47.73706055 93.16113281 C-52.87848182 97.41951297 -56.67334406 97.73187077 -63.05957031 97.65942383 C-63.97900421 97.66494263 -64.89843811 97.67046143 -65.84573364 97.67614746 C-67.83454316 97.68544712 -69.82341223 97.6855895 -71.81222725 97.67755318 C-74.96064586 97.66490984 -78.10818958 97.67622479 -81.25657654 97.69358826 C-86.80310229 97.72027502 -92.34941309 97.72588433 -97.89599609 97.7244873 C-106.77712555 97.72225763 -115.65798951 97.7363501 -124.53901482 97.78007317 C-127.63956016 97.78991556 -130.73968843 97.78119296 -133.84022522 97.77137756 C-135.74146804 97.77752139 -137.64270858 97.784433 -139.54394531 97.79223633 C-140.40486282 97.78451706 -141.26578033 97.77679779 -142.15278625 97.7688446 C-146.80089788 97.80822742 -150.01397251 98.05120078 -153.73706055 101.16113281 C-154.87780662 104.51207439 -155.16341479 106.23318534 -153.67456055 109.47363281 C-149.408842 113.18893606 -142.90098709 112.30966574 -137.50366211 112.30639648 C-136.69954895 112.3097551 -135.89543579 112.31311371 -135.06695557 112.3165741 C-132.42051631 112.32603738 -129.77414065 112.32802501 -127.12768555 112.32910156 C-125.27691624 112.33231783 -123.42614719 112.33568218 -121.57537842 112.33918762 C-117.69860241 112.34516768 -113.82184865 112.34702872 -109.94506836 112.34643555 C-104.99805997 112.3463341 -100.05119565 112.35997345 -95.10422134 112.37720776 C-91.28130448 112.38837412 -87.45842191 112.39035332 -83.63549042 112.38982582 C-81.81279759 112.39099945 -79.9901037 112.39538624 -78.16742706 112.40315819 C-56.35101963 112.49551329 -56.35101963 112.49551329 -37.86206055 101.78613281 C-31.02012031 94.37940977 -29.36688739 87.45948082 -29.45581055 77.55566406 C-30.08755241 69.93089079 -33.20410655 63.4535236 -38.73706055 58.16113281 C-45.5438829 53.05914995 -52.44970203 50.78442984 -60.73706055 49.16113281 C-56.69408034 44.22867841 -52.39026059 39.82257055 -47.67456055 35.53613281 C-42.61077158 30.86834521 -37.61072863 26.15264741 -32.73706055 21.28613281 C-32.19654053 20.74641846 -31.65602051 20.2067041 -31.09912109 19.65063477 C-28.2519473 16.77770273 -25.5673822 13.84250784 -22.98706055 10.72363281 C-16.53471307 3.12884974 -9.79064728 0.05536214 0 0 Z " fill="#3A3B3C" transform="translate(378.737060546875,308.8388671875)"/>
<path d="M0 0 C19.49670475 4.09753703 37.11145846 11.15384993 48.48046875 28.421875 C54.39419834 38.74072969 57.411472 49.36194373 57.38671875 61.21875 C57.38510742 62.03698242 57.38349609 62.85521484 57.38183594 63.69824219 C57.19864234 72.94053898 55.58851652 82.31458216 50.63671875 90.28125 C50.10046875 91.209375 49.56421875 92.1375 49.01171875 93.09375 C50.65923564 97.86287785 54.37939828 102.1899969 57.203125 106.34179688 C60.00707411 110.49719893 62.57449721 114.71241919 65.01171875 119.09375 C65.50800781 118.18753906 66.00429688 117.28132813 66.515625 116.34765625 C67.19989134 115.1161123 67.88623507 113.88572118 68.57421875 112.65625 C68.9312085 112.01824463 69.28819824 111.38023926 69.65600586 110.72290039 C72.30438518 106.0910142 75.27025572 102.02468836 78.859375 98.05859375 C80.23803773 96.13134277 80.23803773 96.13134277 79.84765625 93.7265625 C78.90342822 90.75268544 77.77664988 87.91066222 76.57421875 85.03125 C70.00578602 68.02948063 70.72835291 50.72252552 78.01171875 34.09375 C86.08711259 18.16899115 98.64161435 9.27218122 115.12890625 3.62890625 C138.4886109 -3.72356757 164.318593 -5.75595566 188.69921875 -6.28125 C190.00246094 -6.30960937 191.30570312 -6.33796875 192.6484375 -6.3671875 C196.68840812 -5.81350976 198.29935653 -4.93564157 201.01171875 -1.90625 C202.62001444 4.92199552 201.77976092 11.78734547 201.32421875 18.71875 C201.27915192 19.42260834 201.23408508 20.12646667 201.18765259 20.85165405 C197.06931753 83.79370431 197.06931753 83.79370431 179.01171875 104.09375 C178.51285156 104.69703125 178.01398438 105.3003125 177.5 105.921875 C167.82794017 116.73898977 152.78715287 122.48196917 138.58984375 123.46875 C127.41540894 123.92070125 115.97611167 122.54226041 106.01171875 117.09375 C111.41727089 100.61412077 135.87887963 87.79088177 150.01171875 79.09375 C151.38943637 77.92899938 151.38943637 77.92899938 151.32421875 74.71875 C151.34871924 71.15017819 151.34871924 71.15017819 149.44921875 69.09375 C145.94374223 67.65560579 143.70091152 68.30510448 140.01171875 69.09375 C137.45206412 70.34563349 135.1556134 71.58775094 132.76171875 73.09375 C132.10768066 73.49746826 131.45364258 73.90118652 130.77978516 74.31713867 C124.77178117 78.10357839 119.32295522 82.37936656 114.01171875 87.09375 C113.49367676 87.54621094 112.97563477 87.99867188 112.44189453 88.46484375 C93.9476808 104.66992506 76.99994005 125.87367312 74.01171875 151.09375 C73.43343636 160.39255195 73.57115469 169.7403335 73.57592773 179.05322266 C73.5723715 182.267583 73.54512373 185.48110163 73.515625 188.6953125 C73.52380753 189.68069 73.53199005 190.6660675 73.54042053 191.68130493 C73.46600776 198.46970618 73.46600776 198.46970618 71.10522461 201.71264648 C67.75032245 203.9259038 64.8871868 203.76220855 61.01171875 203.09375 C57.77558521 201.35121655 57.1877656 200.62189056 56.01171875 197.09375 C55.91665796 195.5265009 55.8763818 193.95561394 55.86987305 192.38549805 C55.85932137 190.95206306 55.85932137 190.95206306 55.84855652 189.4896698 C55.84439224 188.45538345 55.84022797 187.42109711 55.8359375 186.35546875 C55.81271276 184.15038136 55.7885944 181.94530323 55.76367188 179.74023438 C55.72877719 176.27589966 55.6993386 172.81189993 55.68579102 169.34741211 C55.60961474 153.04451706 54.95194167 139.01319158 46.82421875 124.46875 C46.23241821 123.39258423 46.23241821 123.39258423 45.62866211 122.29467773 C34.90248155 103.2147607 18.44694787 86.83544746 0.01171875 75.09375 C-0.87652588 74.52696533 -0.87652588 74.52696533 -1.78271484 73.94873047 C-8.76497872 69.39114109 -8.76497872 69.39114109 -16.76953125 68.31640625 C-19.98741537 68.76960759 -19.98741537 68.76960759 -21.48828125 70.78125 C-22.18241832 73.99163394 -21.9501976 75.9348642 -20.98828125 79.09375 C-18.73257658 80.78781778 -16.7740551 82.00479047 -14.30078125 83.28125 C-2.47318879 89.91513997 7.27186622 98.11605523 16.88671875 107.65625 C17.59562256 108.35951416 18.30452637 109.06277832 19.03491211 109.78735352 C24.01171875 114.83697642 24.01171875 114.83697642 24.01171875 117.09375 C21.80560309 117.91273266 19.59713535 118.72402543 17.38671875 119.53125 C16.15695313 119.98371094 14.9271875 120.43617188 13.66015625 120.90234375 C-0.98706056 125.68542847 -17.93099511 123.93301422 -31.7109375 117.3046875 C-48.74456357 108.24735631 -57.35784763 96.05302571 -63.04663086 77.99584961 C-69.03889183 57.49845711 -78.85701615 18.59397466 -71.16015625 -2.13671875 C-63.16122758 -14.21510104 -12.62826314 -2.45985774 0 0 Z " fill="#3A3B3C" transform="translate(213.98828125,106.90625)"/>
</svg>
