<?xml version="1.0" encoding="UTF-8"?>
<svg version="1.1" xmlns="http://www.w3.org/2000/svg" width="512" height="512">
<path d="M0 0 C7.90530153 3.30750547 13.76165676 11.6177492 19.22265625 18.00390625 C21.94977223 21.06666727 24.89404637 23.90223493 27.8125 26.78125 C30.40196881 29.40771122 32.78836964 32.16976458 35.1875 34.96875 C37.2109288 37.23638572 39.33653347 39.3657695 41.5 41.5 C44.9071879 44.86114482 48.07458174 48.33701203 51.1875 51.96875 C53.92777083 55.03974317 56.87946902 57.88786876 59.80859375 60.77734375 C62.41287337 63.41876105 64.81923306 66.19186572 67.2265625 69.01171875 C69.83625686 71.93756551 72.65838479 74.63284472 75.49609375 77.3359375 C77 79 77 79 77 81 C63.47 81 49.94 81 36 81 C36 91.23 36 101.46 36 112 C37.98 111.67 39.96 111.34 42 111 C44.36375889 110.89144916 46.72993751 110.8303507 49.09603882 110.80381775 C49.7875644 110.79479622 50.47908998 110.78577469 51.19157088 110.77647978 C53.49796454 110.74752678 55.80437321 110.72520387 58.11083984 110.70288086 C59.7709448 110.68342219 61.43104506 110.66355997 63.09114075 110.64332581 C67.60361716 110.58953324 72.11613868 110.54156723 76.62869215 110.49474788 C81.39195157 110.44445523 86.15515374 110.38920128 90.91836548 110.33460999 C98.95335684 110.24325744 106.98838116 110.15550386 115.0234375 110.07006836 C124.20343305 109.97243454 133.38336643 109.87013879 142.56327856 109.76496977 C152.43713176 109.65189784 162.31102199 109.54235053 172.18492556 109.43377614 C174.97159 109.40291789 177.75824693 109.37144854 180.5449028 109.33982658 C185.0183139 109.28924634 189.49174612 109.24110573 193.96520042 109.19450951 C195.56741944 109.1775103 197.16963169 109.15984991 198.77183342 109.14129257 C218.18145537 108.91775626 237.58782463 109 257 109 C257 200.08 257 291.16 257 385 C173.57853778 386.09169798 173.57853778 386.09169798 147.54492188 386.42089844 C146.63698234 386.43238708 145.7290428 386.44387572 144.79358995 386.4557125 C99.15971229 387.03275267 53.52526982 387.55801225 7.890625 388.0703125 C6.43581179 388.08664838 6.43581179 388.08664838 4.95160842 388.10331428 C-19.62963532 388.37927947 -44.21090508 388.65288843 -68.79218531 388.92558169 C-83.01803904 389.08342009 -97.24388506 389.24194154 -111.46972656 389.40087891 C-113.01836179 389.41817993 -113.01836179 389.41817993 -114.59828258 389.43583047 C-122.68916412 389.52622434 -130.7800453 389.6166497 -138.87092638 389.70708489 C-177.58059884 390.13975142 -216.29030095 390.56970656 -255 391 C-255 299.92 -255 208.84 -255 115 C-218.21021422 113.85031919 -218.21021422 113.85031919 -202.01757812 113.70288086 C-200.15080977 113.68331444 -198.2840445 113.66345211 -196.4172821 113.64332581 C-191.47514662 113.59084276 -186.53298001 113.54235893 -181.59079552 113.49474788 C-176.37923072 113.44380982 -171.16770668 113.3889795 -165.95617676 113.33460999 C-156.14350379 113.23280583 -146.33080027 113.13436456 -136.51808023 113.03721577 C-125.3228439 112.92620958 -114.12764832 112.81132612 -102.93245411 112.69616115 C-79.95501132 112.45987677 -56.97752185 112.22845537 -34 112 C-34 101.77 -34 91.54 -34 81 C-47.53 81 -61.06 81 -75 81 C-72.95543164 76.91086329 -70.54341575 74.35477355 -67.3125 71.25 C-63.25426378 67.27845508 -59.38899995 63.25276637 -55.70703125 58.92578125 C-53.009003 55.88201025 -50.08202267 53.0741575 -47.1875 50.21875 C-45.20279658 48.20569368 -43.33903084 46.14553597 -41.5 44 C-38.24955349 40.20781241 -34.74550431 36.72864469 -31.19140625 33.22265625 C-28.57898932 30.5729856 -26.16697379 27.78827197 -23.74609375 24.96484375 C-21.2764064 22.18575486 -18.62096678 19.61139504 -15.97265625 17.00390625 C-13.43632422 14.4273947 -11.09772743 11.70573699 -8.7421875 8.96484375 C-5.96823079 5.83636791 -2.99616071 2.91419887 0 0 Z M119.0065918 148.44311523 C116.2879835 148.49100373 113.56936841 148.53850158 110.85075378 148.58602905 C104.26070014 148.70149679 97.67067325 148.8184271 91.08065607 148.93595605 C85.71320443 149.03167545 80.3457454 149.12696918 74.97828102 149.22197151 C59.70408056 149.49236935 44.42990053 149.76388327 29.15574553 150.03683745 C28.33469863 150.05150971 27.51365172 150.06618196 26.66772461 150.08129883 C25.84565507 150.09598959 25.02358553 150.11068035 24.17660479 150.12581629 C10.88058327 150.36335391 -2.41548382 150.59822487 -15.71157417 150.83187424 C-29.41926166 151.07278784 -43.12691181 151.31573753 -56.83452672 151.56074673 C-64.50787579 151.69785911 -72.18123694 151.83417563 -79.85463905 151.96829033 C-86.39286504 152.08258016 -92.93105352 152.19879663 -99.46920369 152.31734758 C-102.79192073 152.377544 -106.1146466 152.43664892 -109.43741608 152.49391747 C-126.30222964 152.78527701 -143.1478657 153.27994128 -160 154 C-160.12801498 154.75014877 -160.25602997 155.50029755 -160.38792419 156.2731781 C-160.56082474 157.25996048 -160.73372528 158.24674286 -160.91186523 159.26342773 C-161.08113022 160.24045151 -161.2503952 161.21747528 -161.42478943 162.22410583 C-163.6201647 172.81871191 -170.38734568 181.61968881 -178 189 C-178.56332031 189.57234375 -179.12664062 190.1446875 -179.70703125 190.734375 C-188.36541532 198.90822662 -198.56532711 201.36122933 -210 204 C-210 235.68 -210 267.36 -210 300 C-204.72 301.32 -199.44 302.64 -194 304 C-180.45871932 310.56953221 -168.19322844 321.44915632 -163 336 C-162.42993635 338.40942494 -161.89829286 340.82812593 -161.39648438 343.25268555 C-161.13299194 344.51557907 -160.86949951 345.7784726 -160.59802246 347.07963562 C-160.30200134 348.52521599 -160.30200134 348.52521599 -160 350 C-140.39013106 350.06003988 -120.79638064 349.9144477 -101.18920898 349.55688477 C-98.45715193 349.50874 -95.72508132 349.46138333 -92.99301147 349.41397095 C-86.43141397 349.29960613 -79.86987029 349.18240768 -73.30834382 349.06404395 C-67.97261247 348.96782843 -62.63686435 348.87259838 -57.30110359 348.77802849 C-56.5345959 348.7644404 -55.76808821 348.75085232 -54.97835301 348.73685248 C-53.42023056 348.70923237 -51.86210809 348.68161311 -50.3039856 348.65399467 C-35.79680278 348.39670971 -21.28968304 348.13600031 -6.7825814 347.87418371 C6.4598136 347.63529796 19.70228076 347.40071338 32.94478775 347.16812576 C46.60883317 346.9280966 60.27282519 346.6852162 73.93676513 346.43925327 C81.58208227 346.30167918 89.22741498 346.16519886 96.87280464 346.03170967 C103.36567484 345.91831137 109.85848973 345.80219842 116.35124976 345.68265242 C119.65624911 345.6218722 122.96126288 345.56270443 126.26633644 345.50608253 C129.85984798 345.44430931 133.45324184 345.37776431 137.04664612 345.31007385 C138.07389016 345.29353195 139.10113421 345.27699005 140.15950686 345.25994688 C147.46625266 345.11513247 154.71919384 344.62442696 162 344 C162.25233398 342.55765991 162.25233398 342.55765991 162.50976562 341.08618164 C164.95094555 327.60060001 170.38241012 318.63458209 180 309 C180.56460937 308.42378906 181.12921875 307.84757813 181.7109375 307.25390625 C190.39553797 299.09885459 200.5476778 296.64284358 212 294 C212 262.32 212 230.64 212 198 C207.38 197.01 202.76 196.02 198 195 C182.27587487 188.58198974 171.35867246 177.57044938 164.6875 161.875 C162.98812812 157.32389247 161.92232187 152.76532967 161 148 C146.99909407 147.90648143 133.00468434 148.19232202 119.0065918 148.44311523 Z " fill="#000000" transform="translate(255,61)"/>
<path d="M0 0 C17.9768012 14.47927389 29.15874101 34.09454171 32 57 C34.05991139 79.41084319 27.2614035 102.16429668 12.9375 119.5625 C-1.02976376 135.81344841 -20.10516981 145.48984585 -41.1875 148.75 C-65.9121423 150.37128802 -88.27656208 143.79131791 -107.27416992 127.45703125 C-122.83649206 113.46336868 -131.46929814 94.64172476 -134 74 C-135.21602989 50.80189129 -129.58417845 29.12416868 -114.09570312 11.37280273 C-84.68397913 -21.215673 -35.31711956 -27.20438371 0 0 Z M-55 16 C-55.07179964 17.51928038 -55.08392007 19.04167482 -55.0625 20.5625 C-55.05347656 21.38878906 -55.04445313 22.21507812 -55.03515625 23.06640625 C-55.02355469 23.70449219 -55.01195312 24.34257812 -55 25 C-55.556875 25.07476562 -56.11375 25.14953125 -56.6875 25.2265625 C-63.63477982 26.42356004 -69.0526879 29.05605346 -73.3515625 34.80859375 C-76.99473878 40.90239581 -78.16050347 47.12040273 -76.50390625 54.0859375 C-72.50115758 65.89065391 -62.97687818 70.05535779 -52.4375 75.3125 C-51.42558594 75.80363281 -50.41367187 76.29476562 -49.37109375 76.80078125 C-47 78 -47 78 -46 79 C-45.95907063 81.33297433 -45.95758277 83.66705225 -46 86 C-52.40359897 87.32904884 -52.40359897 87.32904884 -54.8125 86 C-56 84 -56 84 -58 77 C-64.93 77 -71.86 77 -79 77 C-80.4385007 82.75400281 -79.45490787 87.18027143 -76.73828125 92.4453125 C-72.78649736 98.73082703 -68.21461385 102.78011882 -61 105 C-59.33359355 105.02945048 -57.66633454 105.03327124 -56 105 C-56.01160156 105.71027344 -56.02320313 106.42054688 -56.03515625 107.15234375 C-56.04417969 108.07144531 -56.05320312 108.99054688 -56.0625 109.9375 C-56.07410156 110.85402344 -56.08570313 111.77054687 -56.09765625 112.71484375 C-56.25949049 114.96593327 -56.25949049 114.96593327 -55 116 C-51.3308423 116.14310287 -47.67284559 116.04221662 -44 116 C-44 112.37 -44 108.74 -44 105 C-42.989375 104.9175 -41.97875 104.835 -40.9375 104.75 C-35.28094029 103.91580028 -30.9185586 101.30781008 -27.1875 97.0625 C-22.39692069 90.35568897 -22.22970758 84.05394356 -23 76 C-24.71631127 69.64862056 -28.80754732 65.77880699 -34 62 C-38.05420138 59.70288789 -42.27052112 57.74016139 -46.5 55.7890625 C-52.74586695 52.71507783 -52.74586695 52.71507783 -54.1328125 48.8125 C-54 46 -54 46 -53 44 C-51.02 44 -49.04 44 -47 44 C-46.01 46.64 -45.02 49.28 -44 52 C-37.07 52 -30.14 52 -23 52 C-21.49358404 45.97433615 -23.12656476 41.17796954 -26.0625 35.875 C-29.51515168 30.6806546 -34.6863246 26.7865325 -40.78125 25.33984375 C-41.5134375 25.22769531 -42.245625 25.11554688 -43 25 C-42.98839844 24.36191406 -42.97679687 23.72382813 -42.96484375 23.06640625 C-42.95582031 22.24011719 -42.94679688 21.41382813 -42.9375 20.5625 C-42.92589844 19.73878906 -42.91429687 18.91507812 -42.90234375 18.06640625 C-42.76732652 16.00836062 -42.76732652 16.00836062 -44 15 C-45.66429051 14.90176063 -47.33281931 14.87026369 -49 14.875 C-49.9075 14.87242187 -50.815 14.86984375 -51.75 14.8671875 C-53.96966611 14.74826221 -53.96966611 14.74826221 -55 16 Z " fill="#000000" transform="translate(307,245)"/>
</svg>
