<?xml version="1.0" encoding="UTF-8"?>
<svg version="1.1" xmlns="http://www.w3.org/2000/svg" width="512" height="512">
<path d="M0 0 C1.12317627 0.00081573 1.12317627 0.00081573 2.26904297 0.00164795 C14.4177615 0.04213072 25.77698766 0.98835199 37.5 4.375 C38.60190674 4.67253174 38.60190674 4.67253174 39.72607422 4.97607422 C62.33004626 11.17306285 81.57957734 23.38097729 98.5 39.375 C99.31082031 40.12136719 100.12164062 40.86773437 100.95703125 41.63671875 C118.4089877 58.26417332 130.24805568 80.22096739 136.5 103.375 C136.70737793 104.09284668 136.91475586 104.81069336 137.12841797 105.55029297 C143.41911626 127.91335242 142.94733388 155.12454617 136.5 177.375 C136.31808105 178.03371094 136.13616211 178.69242188 135.94873047 179.37109375 C132.19141675 192.72147742 126.30223268 205.54088539 118.6875 217.125 C118.28112305 217.74842285 117.87474609 218.3718457 117.45605469 219.01416016 C115.30378123 222.17755201 113.13917793 224.8120883 110.2421875 227.3203125 C105.38817422 231.65414506 105.38817422 231.65414506 102.5 237.375 C102.53640749 244.94385799 104.85971343 252.17703475 106.85400391 259.41552734 C107.80317096 263.7639034 107.78253907 267.95101673 107.5 272.375 C111.21121127 271.90053649 111.21121127 271.90053649 114.5 270.375 C115.53533434 268.17272102 116.08293796 265.98707419 116.71875 263.640625 C118.0476722 259.78675061 120.00973197 258.34224198 123.5 256.375 C127.69825046 255.54900275 131.60811345 255.33960133 135.44140625 257.4375 C137.60061079 259.18567524 139.2522876 260.87957521 140.5 263.375 C141.1833022 271.28338284 141.06601584 277.73208112 136.5 284.375 C135.9225 285.261875 135.345 286.14875 134.75 287.0625 C129.3564221 292.6058995 122.66020506 296.15525558 114.83984375 296.48828125 C112.38893822 296.49862262 109.94945434 296.44848647 107.5 296.375 C107.52936646 297.29031494 107.52936646 297.29031494 107.55932617 298.22412109 C107.67051604 304.36721421 107.08768393 309.99867684 105.8125 316 C105.54240112 317.29804565 105.54240112 317.29804565 105.2668457 318.62231445 C103.5228847 326.72379924 101.30773388 334.57981868 98.5 342.375 C98.25942871 343.04563477 98.01885742 343.71626953 97.77099609 344.40722656 C92.9547108 357.53353979 86.63026815 371.15101347 77.5390625 381.8671875 C76.10443819 383.86176416 75.46688367 384.87174048 75.6303463 387.35583591 C75.90267806 388.42052805 75.90267806 388.42052805 76.18051147 389.50672913 C76.38302898 390.30145693 76.58554649 391.09618473 76.7942009 391.91499519 C77.94045036 395.91015357 79.22055651 399.84529797 80.57275391 403.77514648 C80.87540665 404.66747986 81.17805939 405.55981323 81.48988342 406.47918701 C82.14219621 408.40148473 82.79647229 410.32311714 83.45253372 412.24413872 C84.4919145 415.29109836 85.52363458 418.34055126 86.55307007 421.3908844 C89.47869831 430.05830268 92.41086351 438.7234353 95.36523438 447.38110352 C97.17658336 452.69097852 98.97308035 458.00568332 100.76023483 463.32374763 C101.44125906 465.34091397 102.12779157 467.35622975 102.82005692 469.36956596 C103.78938926 472.19034433 104.73964529 475.01691473 105.68603516 477.84545898 C105.97276596 478.6649855 106.25949677 479.48451202 106.55491638 480.32887268 C108.40384576 485.9431184 109.38859613 491.4654467 108.5 497.375 C106.80455129 500.49085173 104.71869866 502.76565067 101.5 504.375 C99.19926021 504.49807667 96.89491911 504.55536469 94.59106445 504.58374023 C93.88025223 504.59352402 93.16944 504.6033078 92.43708801 504.61338806 C90.07917148 504.64335727 87.7213119 504.66473494 85.36328125 504.68359375 C84.15452363 504.69345149 84.15452363 504.69345149 82.92134666 504.70350838 C78.65339285 504.73611332 74.38546407 504.76055784 70.11743164 504.7800293 C66.58939114 504.79782265 63.06215293 504.83260794 59.53442383 504.88256836 C55.27208123 504.94286182 51.0104809 504.97351776 46.74773216 504.98320198 C45.12622635 504.99174489 43.50473974 505.01053459 41.88347816 505.0399456 C27.60416989 505.28497281 27.60416989 505.28497281 23.14892578 501.58642578 C21.66664124 499.93717957 21.66664124 499.93717957 20.5 498.375 C19.89744385 497.68462646 19.2948877 496.99425293 18.67407227 496.28295898 C18.22604248 495.65204346 17.7780127 495.02112793 17.31640625 494.37109375 C16.78893799 493.64027588 16.26146973 492.90945801 15.71801758 492.15649414 C15.17169678 491.38297607 14.62537598 490.60945801 14.0625 489.8125 C12.85067126 488.13157627 11.63705613 486.4519393 10.421875 484.7734375 C9.78958984 483.8978418 9.15730469 483.02224609 8.50585938 482.12011719 C5.01219731 477.33886886 1.41144891 472.63971644 -2.1875 467.9375 C-3.21218384 466.59739868 -3.21218384 466.59739868 -4.25756836 465.23022461 C-5.47525698 463.63802745 -6.69358278 462.04631718 -7.9128418 460.45532227 C-9.45295207 458.43666673 -10.97954634 456.40848841 -12.5 454.375 C-16.17799558 455.02793815 -19.56719468 456.01759216 -23.0859375 457.265625 C-37.74946193 462.37403891 -52.1989386 466.68904668 -67.5 469.375 C-68.37962402 469.53726074 -69.25924805 469.69952148 -70.16552734 469.86669922 C-104.26096289 475.93437177 -140.71916361 473.73307229 -174.12866211 465.26904297 C-175.16385986 465.01010254 -176.19905762 464.75116211 -177.265625 464.484375 C-178.18118164 464.24686523 -179.09673828 464.00935547 -180.04003906 463.76464844 C-182.6654281 463.34879682 -184.06371963 463.33001191 -186.5 464.375 C-188.11380344 465.9663703 -188.11380344 465.9663703 -189.49609375 468.03125 C-190.0485376 468.79880615 -190.60098145 469.5663623 -191.17016602 470.35717773 C-191.75338623 471.18805908 -192.33660645 472.01894043 -192.9375 472.875 C-194.1836796 474.60634481 -195.43110415 476.33679413 -196.6796875 478.06640625 C-197.31229492 478.94828613 -197.94490234 479.83016602 -198.59667969 480.73876953 C-201.53187278 484.80421527 -204.53407022 488.81622152 -207.5625 492.8125 C-208.08577881 493.51503906 -208.60905762 494.21757812 -209.14819336 494.94140625 C-209.64714111 495.59882813 -210.14608887 496.25625 -210.66015625 496.93359375 C-211.08949463 497.50392334 -211.51883301 498.07425293 -211.96118164 498.66186523 C-215.00839679 502.05426706 -217.24813437 504.18382879 -221.870224 504.8896637 C-223.15562576 504.89586227 -224.44102753 504.90206085 -225.76538086 504.90844727 C-226.47823746 504.91706284 -227.19109406 504.92567841 -227.92555237 504.93455505 C-230.27235656 504.95718147 -232.61796327 504.95048275 -234.96484375 504.94140625 C-236.60242567 504.94664364 -238.24000457 504.95292054 -239.87757874 504.96018982 C-243.30646987 504.97058804 -246.73494586 504.96604157 -250.16381836 504.95141602 C-254.55005356 504.93423503 -258.93497793 504.95771672 -263.32106686 504.99290562 C-266.70211914 505.01490625 -270.0828591 505.0134317 -273.46396065 505.0051403 C-275.08063761 505.00432211 -276.69733781 505.01116031 -278.31394768 505.02591133 C-280.5785168 505.04340677 -282.84074793 505.02877748 -285.10522461 505.00610352 C-286.39142197 505.00514175 -287.67761932 505.00417999 -289.00279236 505.00318909 C-293.59832657 504.1777121 -295.2178151 502.63854126 -298.5 499.375 C-301.58638467 493.20223066 -299.30418768 485.89445955 -297.28100586 479.7097168 C-296.54398157 477.51305298 -295.79078328 475.32313258 -295.02473259 473.1364193 C-294.20016476 470.78231082 -293.39464421 468.4223977 -292.59339905 466.06025696 C-290.89169183 461.05512013 -289.16537231 456.05865172 -287.4375 451.0625 C-285.43115143 445.25175079 -283.4350666 439.43771326 -281.45749092 433.61710548 C-280.66380679 431.29525285 -279.85533058 428.9789172 -279.04588318 426.66252136 C-278.55978594 425.2396796 -278.07432364 423.81662071 -277.58959961 422.39331055 C-276.94673256 420.53659981 -276.94673256 420.53659981 -276.2908783 418.64237976 C-275.48911184 415.33001742 -275.41995634 413.57254836 -276.5 410.375 C-278.24420619 408.22151504 -278.24420619 408.22151504 -280.5 406.25 C-292.32111399 394.93470229 -305.55576008 379.26135552 -311.51708984 363.72412109 C-313.20953234 361.24413959 -313.20953234 361.24413959 -315.38926697 360.93508911 C-317.93467989 360.78019214 -320.43869197 360.78855912 -322.98828125 360.84375 C-323.9242363 360.84048706 -324.86019135 360.83722412 -325.82450867 360.8338623 C-329.83031009 360.82068402 -333.83500274 360.86538501 -337.84057617 360.90478516 C-340.76515866 360.9252985 -343.68867004 360.91641465 -346.61328125 360.90625 C-347.9635717 360.93567688 -347.9635717 360.93567688 -349.34114075 360.96569824 C-353.69815332 360.94774979 -356.59411143 360.76632132 -360.05541992 357.96679688 C-363.08688718 354.75276947 -363.62311793 353.41558127 -363.65390015 349.1506958 C-363.66250061 348.2647171 -363.67110107 347.3787384 -363.67996216 346.46591187 C-363.68422211 345.4913504 -363.68848206 344.51678894 -363.69287109 343.51269531 C-363.70104858 342.48816254 -363.70922607 341.46362976 -363.71765137 340.40805054 C-363.74253046 337.00641469 -363.75902801 333.60482065 -363.7734375 330.203125 C-363.77876118 329.04299644 -363.78408485 327.88286789 -363.78956985 326.68758392 C-363.81631257 320.54693766 -363.83568377 314.40631181 -363.85009766 308.265625 C-363.86674662 301.91891663 -363.91152398 295.5727274 -363.9624691 289.22621536 C-363.99610624 284.35003047 -364.00767129 279.4739693 -364.01332474 274.59767914 C-364.02004711 272.25808495 -364.03529457 269.91849919 -364.05921555 267.57901764 C-364.09079225 264.3038744 -364.09091449 261.03013797 -364.08349609 257.75488281 C-364.09990143 256.78841827 -364.11630676 255.82195374 -364.13320923 254.82620239 C-364.09195275 250.37614661 -363.94559198 247.33068437 -361.08853149 243.78875732 C-357.06944166 240.04103104 -354.95870131 240.25524918 -349.5234375 240.27734375 C-348.49556625 240.27946617 -348.49556625 240.27946617 -347.44692993 240.28163147 C-345.25624239 240.28723325 -343.0656567 240.29978594 -340.875 240.3125 C-339.39062648 240.31751478 -337.90625135 240.32207772 -336.421875 240.32617188 C-332.78121685 240.33720323 -329.14061836 240.35446901 -325.5 240.375 C-325.2421875 239.08464844 -324.984375 237.79429687 -324.71875 236.46484375 C-319.82594521 214.56269925 -307.43541939 194.61946912 -293.5 177.375 C-293.00741699 176.76140625 -292.51483398 176.1478125 -292.00732422 175.515625 C-290.54151265 173.70500193 -289.05739274 171.91166458 -287.5625 170.125 C-287.14564941 169.61936523 -286.72879883 169.11373047 -286.29931641 168.59277344 C-283.81982476 165.70353142 -281.44275352 163.33239339 -278.36326599 161.04043579 C-273.41933464 157.27731264 -268.60834453 153.61450322 -267.34706116 147.25244141 C-266.82766846 142.47004575 -267.01065467 137.7116855 -267.1875 132.9140625 C-267.20203941 131.15200856 -267.21005958 129.38989005 -267.21191406 127.6277771 C-267.23074854 123.02174631 -267.32267805 118.42038086 -267.4352417 113.8157959 C-267.60513268 106.42866084 -267.67037029 99.04032613 -267.72036743 91.65156174 C-267.74952182 89.08122023 -267.81497533 86.51374233 -267.88549805 83.94424438 C-267.90899421 82.36600105 -267.93158501 80.7877439 -267.953125 79.20947266 C-267.98217422 78.50183777 -268.01122345 77.79420288 -268.04115295 77.06512451 C-268.06140945 73.22152036 -267.47164339 70.88560507 -265.09667969 67.94784546 C-260.35474091 63.24943167 -255.32233191 64.01352342 -248.99707031 63.98999023 C-221.10812594 64.44273284 -195.71997235 77.73261068 -176.5 97.375 C-175.15590811 99.03300258 -173.82090852 100.69846899 -172.5 102.375 C-171.60804932 102.22353516 -170.71609863 102.07207031 -169.79711914 101.91601562 C-166.44893043 101.35106718 -163.09976647 100.79277061 -159.74975586 100.23876953 C-158.30726251 99.99886384 -156.86519077 99.75640729 -155.42358398 99.51123047 C-147.74802458 98.2075826 -140.31801424 97.02559154 -132.5 97.375 C-132.35216064 96.78211182 -132.20432129 96.18922363 -132.05200195 95.57836914 C-127.47869513 77.84138217 -117.23731754 62.17741111 -105.5 48.375 C-104.68917969 47.41722656 -103.87835938 46.45945313 -103.04296875 45.47265625 C-77.20359255 15.72945477 -39.02897016 -0.1068784 0 0 Z M-75.5 53.375 C-76.58145156 54.23154792 -77.66442668 55.08618198 -78.75 55.9375 C-98.6214563 73.55083627 -113.00611136 102.23303461 -114.71923828 128.77124023 C-114.83973266 132.49623075 -114.88020983 136.21057426 -114.875 139.9375 C-114.87445618 140.59663391 -114.87391235 141.25576782 -114.87335205 141.93487549 C-114.83179762 152.91953903 -113.87815213 162.9273203 -110.5 173.375 C-110.29101074 174.04595703 -110.08202148 174.71691406 -109.86669922 175.40820312 C-104.95273373 190.82369937 -97.17385288 204.25420047 -86.5 216.375 C-85.64259035 217.45576847 -84.78781671 218.53864219 -83.9375 219.625 C-66.98952863 238.74578821 -39.88348975 252.57821382 -14.5 255.375 C-13.33855469 255.50777344 -12.17710937 255.64054688 -10.98046875 255.77734375 C18.14287401 258.36156858 48.65714137 250.27047419 71.5 231.6875 C73.17143129 230.25554278 74.83879046 228.81880292 76.5 227.375 C77.58145156 226.51845208 78.66442668 225.66381802 79.75 224.8125 C99.6214563 207.19916373 114.00611136 178.51696539 115.71923828 151.97875977 C115.83973266 148.25376925 115.88020983 144.53942574 115.875 140.8125 C115.87445618 140.15336609 115.87391235 139.49423218 115.87335205 138.81512451 C115.83179762 127.83046097 114.87815213 117.8226797 111.5 107.375 C111.29101074 106.70404297 111.08202148 106.03308594 110.86669922 105.34179688 C105.956553 89.93828199 98.18736526 76.49279656 87.5 64.375 C87.00113281 63.74464844 86.50226563 63.11429688 85.98828125 62.46484375 C81.57710007 56.91610868 76.08825201 52.68725499 70.5 48.375 C69.71753906 47.76527344 68.93507813 47.15554687 68.12890625 46.52734375 C53.21544439 35.48685512 33.98992024 27.41224365 15.5 25.375 C14.33855469 25.24222656 13.17710937 25.10945313 11.98046875 24.97265625 C-20.0891164 22.12700014 -51.2762168 32.32144346 -75.5 53.375 Z M-243.5 90.375 C-243.50808685 91.26813904 -243.51617371 92.16127808 -243.52450562 93.08148193 C-243.60244248 101.49799486 -243.6897305 109.91434762 -243.78752708 118.33065414 C-243.83747549 122.65757795 -243.88380565 126.98447752 -243.921875 131.31152344 C-243.95874622 135.48727032 -244.00511114 139.66281369 -244.05806351 143.83838654 C-244.0765977 145.43154582 -244.09170928 147.02474872 -244.10334396 148.61797333 C-244.12022325 150.84936875 -244.14926172 153.08029907 -244.18115234 155.31152344 C-244.19447601 156.58171326 -244.20779968 157.85190308 -244.2215271 159.1605835 C-244.59829875 163.50966384 -245.47890913 165.46556281 -248.71484375 168.34765625 C-249.61332031 169.03730469 -250.51179688 169.72695312 -251.4375 170.4375 C-276.99029434 190.89306157 -294.90167859 219.81579196 -303.29296875 251.35546875 C-303.52628906 252.22816406 -303.75960937 253.10085938 -304 254 C-304.1753125 254.73476563 -304.350625 255.46953125 -304.53125 256.2265625 C-305.5 258.375 -305.5 258.375 -310.5 263.375 C-320.07 263.705 -329.64 264.035 -339.5 264.375 C-339.5 288.135 -339.5 311.895 -339.5 336.375 C-326.56132971 336.50583811 -326.56132971 336.50583811 -313.62231445 336.58276367 C-311.99427061 336.60921988 -310.36625493 336.63749933 -308.73828125 336.66796875 C-307.90018921 336.66398071 -307.06209717 336.65999268 -306.1986084 336.65588379 C-301.88016736 336.76070968 -300.05117967 336.94240664 -296.55419922 339.68701172 C-294.93067129 341.81145224 -293.54721742 343.69426119 -292.39453125 346.08984375 C-292.05631348 346.76885742 -291.7180957 347.44787109 -291.36962891 348.14746094 C-291.02077637 348.86192383 -290.67192383 349.57638672 -290.3125 350.3125 C-281.34168332 367.89121789 -268.61244637 382.69604174 -254.5 396.375 C-248.28149748 402.4675126 -248.28149748 402.4675126 -247.5 406.375 C-248.43883982 414.89792408 -251.54925399 423.02501782 -254.2890625 431.09765625 C-254.75760165 432.49325175 -255.22555828 433.88904295 -255.69296265 435.28501892 C-256.91411545 438.92771187 -258.14221521 442.56802164 -259.37213135 446.20776367 C-261.34929426 452.06343578 -263.31493964 457.92298848 -265.2820549 463.78204155 C-265.96937228 465.826271 -266.6591979 467.86963984 -267.34951782 469.91285706 C-267.97048843 471.75628944 -267.97048843 471.75628944 -268.60400391 473.63696289 C-268.97103424 474.72376846 -269.33806458 475.81057404 -269.71621704 476.93031311 C-270.55088329 479.10583318 -270.55088329 479.10583318 -270.5 480.375 C-247.98483011 483.24895713 -247.98483011 483.24895713 -226.44189453 478.84863281 C-221.88828037 474.81500231 -219.46147008 469.68197689 -216.95800781 464.22119141 C-214.26353312 458.96128084 -210.46879684 454.49197565 -206.8125 449.875 C-205.47374689 448.11573405 -204.1363965 446.35539936 -202.80078125 444.59375 C-197.80370111 438.02685056 -197.80370111 438.02685056 -194.5 436.375 C-187.43691708 435.70288834 -181.48205232 436.94746516 -174.8125 439.125 C-167.02229311 441.51193409 -159.28429516 443.32878288 -151.25 444.6875 C-149.8410144 444.92581543 -149.8410144 444.92581543 -148.40356445 445.16894531 C-139.88864061 446.55398074 -131.49491738 447.52662753 -122.86328125 447.578125 C-122.0697525 447.58513931 -121.27622375 447.59215363 -120.45864868 447.59938049 C-117.90987399 447.61678884 -115.36133198 447.62323362 -112.8125 447.625 C-111.50335129 447.62601212 -111.50335129 447.62601212 -110.16775513 447.62704468 C-96.72417737 447.61053965 -83.71305057 447.04101906 -70.5 444.375 C-69.61183594 444.20339355 -68.72367187 444.03178711 -67.80859375 443.85498047 C-51.55377127 440.65716993 -35.23939834 436.3784739 -20.375 428.9375 C-14.85590626 426.26396498 -9.5833834 424.87365217 -3.5 426.375 C1.46845685 429.48128885 4.4689023 434.11960548 7.8125 438.8125 C9.04779748 440.51944745 10.2848458 442.22512889 11.5234375 443.9296875 C12.16893555 444.81881836 12.81443359 445.70794922 13.47949219 446.62402344 C17.53477129 452.14539667 21.72471115 457.56534893 25.90551758 462.99194336 C26.53353271 463.81057861 27.16154785 464.62921387 27.80859375 465.47265625 C28.4425708 466.27026367 29.07654785 467.06787109 29.72973633 467.88964844 C31.5 470.375 31.5 470.375 32.79174805 473.19628906 C34.40568715 476.44311762 35.56404103 478.20956171 38.5 480.375 C45.28307091 482.05034723 52.52609747 481.30919586 59.4375 481 C61.38074545 480.94980368 63.32411481 480.90418249 65.26757812 480.86328125 C70.0147888 480.75342622 74.75603317 480.58110778 79.5 480.375 C77.90089165 475.3941947 76.29511259 470.4155648 74.6875 465.4375 C74.4339978 464.65132294 74.18049561 463.86514587 73.91931152 463.05514526 C70.39568719 452.13818745 66.79791666 441.24787952 63.12800026 430.37922859 C62.47364028 428.44041561 61.82044263 426.50121504 61.16764832 424.56187439 C60.73196566 423.26773019 60.29628146 421.97358651 59.8605957 420.67944336 C59.64505507 420.0391088 59.42951445 419.39877424 59.20744228 418.73903561 C58.12255484 415.51843692 57.0337954 412.29923279 55.93734741 409.08255005 C54.69509634 405.43396174 53.46381628 401.78182729 52.234375 398.12890625 C51.66802086 396.4810614 51.66802086 396.4810614 51.09022522 394.79992676 C50.74817551 393.77741821 50.40612579 392.75490967 50.05371094 391.70141602 C49.60170319 390.36990257 49.60170319 390.36990257 49.14056396 389.01148987 C48.27235645 385.43804453 47.84741254 381.95235964 49.27734375 378.49609375 C49.66019531 377.94050781 50.04304688 377.38492187 50.4375 376.8125 C50.89769531 376.12414062 51.35789062 375.43578125 51.83203125 374.7265625 C53.02458176 373.04526178 54.23204051 371.37449573 55.44921875 369.7109375 C66.27798547 354.66342324 74.6862618 338.30822777 79.5 320.375 C79.70737793 319.64120117 79.91475586 318.90740234 80.12841797 318.15136719 C83.18760754 306.99318485 83.88564483 295.9505488 83.9375 284.4375 C83.94765137 283.14626221 83.95780273 281.85502441 83.96826172 280.5246582 C83.89157288 272.11426886 82.74408524 264.47849867 80.5 256.375 C76.52015201 257.91069994 73.08332132 259.77618189 69.4375 262 C39.84986161 279.33247458 1.26311158 285.17305717 -32.12890625 276.62109375 C-33.58738107 276.21082676 -35.04444103 275.79549481 -36.5 275.375 C-37.23460449 275.17664551 -37.96920898 274.97829102 -38.72607422 274.77392578 C-61.34074541 268.57400393 -80.56093978 256.36053696 -97.5 240.375 C-98.23734375 239.70210937 -98.9746875 239.02921875 -99.734375 238.3359375 C-117.79282646 221.23804197 -129.00054861 198.08947768 -135.5 174.375 C-135.69062012 173.70742676 -135.88124023 173.03985352 -136.07763672 172.35205078 C-140.3489657 156.67965301 -138.76857429 139.46053377 -138.5 123.375 C-146.65287445 122.98066508 -154.11707383 124.822724 -162.03710938 126.59765625 C-175.767607 129.52973323 -175.767607 129.52973323 -182.5 128.375 C-185.35546875 126.2421875 -185.35546875 126.2421875 -187.5 123.375 C-188.36238281 122.42882812 -189.22476563 121.48265625 -190.11328125 120.5078125 C-190.77130737 119.77353027 -190.77130737 119.77353027 -191.44262695 119.02441406 C-203.69018469 105.39515894 -219.72930378 92.57307487 -238.70800781 90.81811523 C-239.60610168 90.73351547 -240.50419556 90.64891571 -241.42950439 90.56175232 C-242.11276794 90.50012405 -242.79603149 90.43849579 -243.5 90.375 Z " fill="#000000" transform="translate(367.5,3.625)"/>
<path d="M0 0 C5.92858209 2.96038552 8.02672542 6.91398993 10.8125 12.625 C11.23192871 13.45443115 11.65135742 14.2838623 12.08349609 15.13842773 C12.95882849 16.87417023 13.82723 18.61342385 14.68896484 20.35595703 C15.98789551 22.97558815 17.31219782 25.58081529 18.64453125 28.18359375 C19.47217565 29.80947792 20.29902972 31.43576471 21.125 33.0625 C21.51534424 33.82965332 21.90568848 34.59680664 22.30786133 35.38720703 C25 40.76659291 25 40.76659291 25 43 C26.12921875 43.06803833 26.12921875 43.06803833 27.28125 43.13745117 C35.57246284 43.699045 43.74855309 44.69256669 51.95068359 45.99194336 C54.02373361 46.31621244 56.09937722 46.61797468 58.17578125 46.91992188 C59.51323543 47.12883911 60.85048418 47.33907672 62.1875 47.55078125 C63.37730469 47.73294189 64.56710937 47.91510254 65.79296875 48.1027832 C70.16869999 49.32696197 72.95479136 51.33716807 75.375 55.1875 C76.29283247 59.31774611 76.10301901 62.91447564 75 67 C70.54312055 73.75284765 63.74685644 78.87450589 57.0703125 83.3203125 C51.44887016 87.43654479 46.65152656 91.40466248 44 98 C42.90132131 108.13701824 46.02782725 119.07080012 48.62591553 128.79905701 C50.29710923 135.22814431 51.36799288 141.40553074 48.1875 147.4375 C45.8924857 150.12594532 44.25473218 151.78509374 40.70507812 152.39306641 C32.68066206 152.64364624 27.38429827 150.30490306 20.5 146.375 C19.54480469 145.85292969 18.58960938 145.33085937 17.60546875 144.79296875 C13.71554223 142.66114163 9.84790958 140.5082417 6.04296875 138.22753906 C5.09035156 137.6703418 4.13773437 137.11314453 3.15625 136.5390625 C1.88491211 135.77263428 1.88491211 135.77263428 0.58789062 134.99072266 C-3.89637761 133.2740094 -7.03313784 134.57204227 -11.2956543 136.45874023 C-12.46008057 137.06919189 -13.62450684 137.67964355 -14.82421875 138.30859375 C-15.76633965 138.79876732 -15.76633965 138.79876732 -16.72749329 139.29884338 C-18.7183235 140.33732536 -20.70278274 141.38739143 -22.6875 142.4375 C-24.03152208 143.139398 -25.3759199 143.84057703 -26.72070312 144.54101562 C-33.4959817 148.03655918 -33.4959817 148.03655918 -40 152 C-45.08746258 152.6772783 -49.55682364 152.82467221 -54.0625 150.25 C-57.71174081 146.01217196 -58.3309688 142.83104606 -58.2043457 137.36624146 C-57.8885323 133.70924864 -56.90175583 130.37199215 -55.84375 126.87109375 C-51.17009266 111.43931024 -51.17009266 111.43931024 -52.85455322 95.93652344 C-58.25371087 86.71546407 -67.49221839 80.1451129 -76 74 C-80.01385402 70.93526967 -82.34201712 68.88183849 -84 64 C-84.29191385 59.140493 -83.73687301 55.96202866 -80.75 52.0625 C-75.9542261 48.46566958 -71.12778646 47.53872726 -65.28515625 46.7109375 C-64.5517955 46.60278717 -63.81843475 46.49463684 -63.06285095 46.38320923 C-61.5176762 46.15678945 -59.97205376 45.9334064 -58.42602539 45.71289062 C-56.07249855 45.3764294 -53.7208185 45.0288127 -51.36914062 44.6796875 C-49.86207607 44.4602709 -48.35491741 44.24149948 -46.84765625 44.0234375 C-45.80207298 43.86879532 -45.80207298 43.86879532 -44.73536682 43.71102905 C-40.79106694 43.15483339 -36.98199927 42.89850338 -33 43 C-32.6138855 41.74533936 -32.6138855 41.74533936 -32.2199707 40.46533203 C-30.89051157 36.68899765 -29.24905818 33.13826713 -27.48046875 29.5546875 C-26.96979607 28.51624191 -26.96979607 28.51624191 -26.44880676 27.45681763 C-25.73071885 26.00184546 -25.01035776 24.5479932 -24.2878418 23.09521484 C-23.19006286 20.88017122 -22.10965244 18.65717622 -21.02929688 16.43359375 C-20.32657822 15.01510068 -19.62283621 13.59711403 -18.91796875 12.1796875 C-18.60006882 11.51919403 -18.28216888 10.85870056 -17.95463562 10.17819214 C-14.17126946 2.6838955 -8.59009182 -1.61434484 0 0 Z M-5 42 C-5.29656494 42.62044189 -5.59312988 43.24088379 -5.89868164 43.88012695 C-7.26382192 46.70261459 -8.66255642 49.50712286 -10.0625 52.3125 C-10.76149414 53.77719727 -10.76149414 53.77719727 -11.47460938 55.27148438 C-13.65332423 59.58445053 -15.0950844 62.42015117 -19.21875 65.0625 C-23.93887987 66.23278013 -28.61851515 67.05260135 -33.4375 67.6875 C-34.35982422 67.81705078 -35.28214844 67.94660156 -36.23242188 68.08007812 C-38.48722043 68.39551626 -40.74285238 68.70192233 -43 69 C-41.69697039 71.89392876 -40.33585792 73.88467049 -38.03125 76.05859375 C-37.46019531 76.60966797 -36.88914062 77.16074219 -36.30078125 77.72851562 C-35.10220911 78.86598919 -33.90169107 80.0014159 -32.69921875 81.13476562 C-28.74428238 84.96025149 -26.05623179 87.855706 -25.953125 93.62109375 C-26.05109375 94.55050781 -26.1490625 95.47992188 -26.25 96.4375 C-26.35699219 97.47261719 -26.46398437 98.50773437 -26.57421875 99.57421875 C-27.29776292 105.3957622 -28.11637947 111.20070407 -29 117 C-27.89140625 116.44570312 -26.7828125 115.89140625 -25.640625 115.3203125 C-21.42708333 113.21354167 -17.21354167 111.10677083 -13 109 C-12.35498535 108.63890137 -11.7099707 108.27780273 -11.04541016 107.90576172 C-6.37198595 105.83624587 -1.13999749 106.2191792 3.59082031 107.9453125 C6.16709313 109.20425181 8.6447171 110.56159142 11.125 112 C11.98609375 112.47695312 12.8471875 112.95390625 13.734375 113.4453125 C15.83418333 114.61187268 17.92126407 115.79642022 20 117 C21.87634532 113.24730935 19.84161557 108.13287312 19.02734375 104.09179688 C17.88051041 97.88753181 17.08382622 91.37611571 20.3125 85.6875 C21.1478125 84.8521875 21.1478125 84.8521875 22 84 C22.62003906 83.35804688 23.24007812 82.71609375 23.87890625 82.0546875 C24.57886719 81.37664062 25.27882813 80.69859375 26 80 C27.6471544 78.37633909 29.29298253 76.75133165 30.9375 75.125 C31.70964844 74.38507813 32.48179687 73.64515625 33.27734375 72.8828125 C35.2250104 71.17939784 35.2250104 71.17939784 35 69 C34.29915283 68.90501221 33.59830566 68.81002441 32.8762207 68.7121582 C29.68487263 68.26719159 26.49910327 67.79021594 23.3125 67.3125 C21.65831055 67.08916992 21.65831055 67.08916992 19.97070312 66.86132812 C11.88620706 65.6156807 11.88620706 65.6156807 8.03125 62.9375 C5.32764122 59.02766577 3.22213411 54.97682016 1.1875 50.6875 C0.78080078 49.85154297 0.37410156 49.01558594 -0.04492188 48.15429688 C-1.03925669 46.10713696 -2.02390175 44.05590096 -3 42 C-3.66 42 -4.32 42 -5 42 Z " fill="#000000" transform="translate(372,60)"/>
<path d="M0 0 C3.12578143 1.6720747 5.39281175 3.7856235 7 7 C7.51512617 11.09157355 7.94367269 15.23589546 5.953125 18.95703125 C3.55501226 21.85592636 1.60351712 23.79811835 -2.171875 24.2734375 C-9.98876369 24.58137554 -9.98876369 24.58137554 -13.5625 21.625 C-17.3057723 17.59378368 -17.39037018 14.90519941 -17.359375 9.55078125 C-16.78039966 5.44131496 -15.00085071 3.78650423 -12 1 C-8.27533151 -0.86233425 -4.05504687 -0.57130829 0 0 Z " fill="#000000" transform="translate(149,228)"/>
</svg>
