<?xml version="1.0" encoding="UTF-8"?>
<svg version="1.1" xmlns="http://www.w3.org/2000/svg" width="512" height="512">
<path d="M0 0 C1.12535156 0.08314453 1.12535156 0.08314453 2.2734375 0.16796875 C8.80154546 1.95723422 11.71833206 7.64525882 15 13.0625 C15.51328857 13.89241455 16.02657715 14.7223291 16.55541992 15.57739258 C17.66809119 17.37649617 18.77725742 19.17777119 19.88330078 20.98095703 C22.25442135 24.8357729 24.65798545 28.66991802 27.06103516 32.50488281 C28.96690745 35.54693867 30.86877795 38.59146213 32.76953125 41.63671875 C36.55239005 47.69674956 40.33838911 53.7548132 44.125 59.8125 C45.37501464 61.81249085 46.62501462 63.81249086 47.875 65.8125 C48.49375 66.8025 49.1125 67.7925 49.75 68.8125 C70.375 101.8125 70.375 101.8125 72.25073242 104.8137207 C73.49823247 106.80968828 74.74579088 108.80561939 75.9934082 110.80151367 C79.15714182 115.86290916 82.31979561 120.92497394 85.48046875 125.98828125 C91.34353876 135.37886585 97.21346163 144.76482978 103.125 154.125 C103.61282959 154.89811523 104.10065918 155.67123047 104.60327148 156.46777344 C106.69330106 159.77569233 108.79058327 163.07786234 110.921875 166.359375 C111.56640625 167.35453125 112.2109375 168.3496875 112.875 169.375 C113.41640625 170.20128906 113.9578125 171.02757812 114.515625 171.87890625 C115.625 173.8125 115.625 173.8125 115.625 175.8125 C116.285 175.8125 116.945 175.8125 117.625 175.8125 C117.90029541 175.07547852 118.17559082 174.33845703 118.45922852 173.57910156 C119.54329952 171.00639106 120.74396634 168.87102906 122.27734375 166.546875 C122.80086426 165.74805908 123.32438477 164.94924316 123.86376953 164.1262207 C124.42435059 163.28019287 124.98493164 162.43416504 125.5625 161.5625 C126.74629158 159.75924444 127.92988215 157.9558569 129.11328125 156.15234375 C129.7057666 155.25241699 130.29825195 154.35249023 130.90869141 153.42529297 C133.37493744 149.67084559 135.8136447 145.89888368 138.25 142.125 C139.14059125 140.74867608 140.03121624 139.37237399 140.921875 137.99609375 C142.81127387 135.07416468 144.69579745 132.14914519 146.578125 129.22265625 C147.06716309 128.46364014 147.55620117 127.70462402 148.06005859 126.92260742 C148.98629239 125.48488778 149.91120611 124.04631638 150.83447266 122.60668945 C158.72720848 110.36498709 158.72720848 110.36498709 162.0625 108.3125 C165.45841784 107.64988188 167.322795 107.66683704 170.625 108.8125 C175.82913726 114.25251884 179.64800253 120.34634756 183.5625 126.75 C184.89437355 128.90504539 186.22640932 131.05999052 187.55859375 133.21484375 C188.23390137 134.3116748 188.90920898 135.40850586 189.60498047 136.53857422 C192.75524563 141.64433393 195.94092468 146.72778438 199.125 151.8125 C200.37519044 153.81238096 201.62518995 155.8123813 202.875 157.8125 C203.49375 158.8025 204.1125 159.7925 204.75 160.8125 C255.37500001 241.81250001 255.37500001 241.81250001 257.25073242 244.8137207 C258.49823247 246.80968828 259.74579088 248.80561939 260.9934082 250.80151367 C264.15714182 255.86290916 267.31979561 260.92497394 270.48046875 265.98828125 C278.48147023 278.8034827 278.48147023 278.8034827 286.53540039 291.58544922 C287.53689728 293.1689511 288.53616346 294.75386649 289.53295898 296.34033203 C291.69832286 299.78565329 293.88040294 303.21236456 296.14453125 306.59375 C302.09470609 315.5912994 302.09470609 315.5912994 302.375 320.3125 C301.53585158 324.22852597 300.52697461 326.07635251 297.625 328.8125 C293.89662023 330.05529326 290.44058322 329.95270324 286.55763531 329.94392776 C285.30405448 329.94700672 285.30405448 329.94700672 284.02514878 329.95014787 C281.20023825 329.95584166 278.37537611 329.9543577 275.55046082 329.95294189 C273.51449585 329.95552416 271.4785314 329.95853693 269.44256765 329.9619453 C263.82854938 329.97003472 258.21454389 329.97180594 252.60052049 329.97254276 C246.55336371 329.97438993 240.50621361 329.98193553 234.45906067 329.98867798 C220.53763822 330.00298461 206.61621888 330.00878947 192.69479093 330.01336992 C185.81764206 330.01570482 178.94049402 330.01930734 172.0633458 330.0230653 C148.52912263 330.03590117 124.99489993 330.04662067 101.46067333 330.0500679 C99.98301149 330.05028954 98.50534965 330.05051132 97.02768781 330.05073325 C95.54642796 330.05095389 94.06516811 330.05117438 92.58390826 330.0513947 C89.61217256 330.05183726 86.64043687 330.05228437 83.66870117 330.05273438 C82.93188209 330.05284377 82.19506302 330.05295316 81.43591609 330.05306586 C57.53799608 330.05669748 33.64010638 330.07262128 9.74219798 330.09592474 C-15.51526975 330.12050898 -40.77272014 330.13424007 -66.03020018 330.13543582 C-68.80168037 330.13560728 -71.57316055 330.13582271 -74.34464073 330.13607025 C-75.36828918 330.1361539 -75.36828918 330.1361539 -76.41261739 330.13623925 C-87.40469851 330.13739088 -98.39674857 330.14842231 -109.3888192 330.16295731 C-120.43268971 330.17730853 -131.4765287 330.18031412 -142.52040819 330.17251733 C-148.50587409 330.16860007 -154.49123525 330.1695928 -160.47668839 330.18357468 C-165.95234555 330.19624907 -171.42781858 330.1951732 -176.90347525 330.18298396 C-178.88800315 330.18101572 -180.8725438 330.18415697 -182.85705373 330.19282833 C-185.54829888 330.20384644 -188.23888563 330.1964857 -190.93011189 330.1844368 C-191.70603891 330.19203199 -192.48196593 330.19962718 -193.2814059 330.20745254 C-199.66250103 330.14550173 -203.53012541 328.45684475 -208.25 324.25 C-210.81000346 320.89207339 -210.96996587 317.79303768 -211.0390625 313.66796875 C-208.9761912 304.79762218 -202.18826081 296.78346927 -197.25 289.3125 C-196.48643902 288.15202231 -195.72325936 286.99129364 -194.96044922 285.83032227 C-193.82062397 284.09557825 -192.68062601 282.36095233 -191.53945923 280.62709045 C-188.50443862 276.01540798 -185.49406084 271.38834927 -182.5 266.75 C-182.06848633 266.08202393 -181.63697266 265.41404785 -181.19238281 264.72583008 C-180.34288233 263.41045889 -179.49359438 262.09495042 -178.64453125 260.77929688 C-176.43190605 257.35142983 -174.21609208 253.92562642 -172 250.5 C-171.55092285 249.80575928 -171.1018457 249.11151855 -170.63916016 248.39624023 C-166.50747403 242.01177014 -162.36182199 235.63640962 -158.21582031 229.26123047 C-153.37179001 221.8111981 -148.54245452 214.35173298 -143.71777344 206.88916016 C-140.97806232 202.65207238 -138.23639268 198.41625154 -135.49511719 194.18017578 C-133.22789573 190.67650718 -130.9610957 187.17256767 -128.6953125 183.66796875 C-123.21412124 175.19124273 -117.71918153 166.7235796 -112.21582031 158.26123047 C-107.37179001 150.8111981 -102.54245452 143.35173298 -97.71777344 135.88916016 C-95.43776071 132.36301684 -93.15629794 128.83781191 -90.875 125.3125 C-89.95832659 123.8958377 -89.04165992 122.47917103 -88.125 121.0625 C-86.29166667 118.22916667 -84.45833333 115.39583333 -82.625 112.5625 C-81.9446167 111.51098755 -81.9446167 111.51098755 -81.25048828 110.43823242 C-80.332221 109.01910689 -79.41392665 107.59999886 -78.49560547 106.1809082 C-76.22820799 102.67700403 -73.96125499 99.17281405 -71.6953125 95.66796875 C-66.21412124 87.19124273 -60.71918153 78.7235796 -55.21582031 70.26123047 C-50.37179001 62.8111981 -45.54245452 55.35173298 -40.71777344 47.88916016 C-39.3565203 45.78392031 -37.99476305 43.67900748 -36.6328125 41.57421875 C-36.17753174 40.87055176 -35.72225098 40.16688477 -35.25317383 39.44189453 C-34.33930027 38.02988299 -33.42507875 36.61809659 -32.51049805 35.20654297 C-30.14775106 31.55874879 -27.79262282 27.90634926 -25.44921875 24.24609375 C-24.96582031 23.49328125 -24.48242188 22.74046875 -23.984375 21.96484375 C-23.07174714 20.54325035 -22.16138898 19.12019583 -21.25390625 17.6953125 C-9.33308842 -0.84411892 -9.33308842 -0.84411892 0 0 Z M-2.375 15.8125 C-3.09786187 16.95169247 -3.82045709 18.09105414 -4.54296875 19.23046875 C-5.01702148 19.97804443 -5.49107422 20.72562012 -5.97949219 21.49584961 C-7.05775839 23.20155233 -8.13249073 24.90949295 -9.20410156 26.61938477 C-11.9169666 30.9464747 -14.65149778 35.24774932 -17.50390625 39.484375 C-25.86487459 52.12894392 -31.97317135 65.47288025 -37.90722656 79.37475586 C-42.22438256 89.47205811 -46.61173046 98.16627311 -53.9375 106.4375 C-54.99759277 107.65347417 -56.05748266 108.86962524 -57.1171875 110.0859375 C-57.65569336 110.70049805 -58.19419922 111.31505859 -58.74902344 111.94824219 C-61.37946295 114.96416353 -63.96771217 118.01591873 -66.5625 121.0625 C-70.0233391 125.12456761 -73.54813441 129.09539252 -77.1875 133 C-84.55498108 141.15051981 -89.66252074 150.92416656 -94.9375 160.5 C-99.65411626 168.99598869 -104.45186504 177.43450917 -109.375 185.8125 C-114.13960569 193.92650173 -118.7992248 202.0905437 -123.375 210.3125 C-128.65113666 219.79159792 -134.04123778 229.19631658 -139.54248047 238.54663086 C-143.15081587 244.6800691 -143.15081587 244.6800691 -146.609375 250.8984375 C-150.7730624 258.55480483 -155.59289716 265.0790153 -161.109375 271.7734375 C-164.65674158 276.10362682 -167.95647933 280.6003168 -171.25 285.125 C-176.70600899 292.61744982 -182.32446167 299.96008578 -188.10888672 307.20239258 C-188.94830811 308.2642981 -188.94830811 308.2642981 -189.8046875 309.34765625 C-190.30210449 309.970354 -190.79952148 310.59305176 -191.31201172 311.23461914 C-192.56124036 312.77186215 -192.56124036 312.77186215 -192.375 314.8125 C-94.695 314.8125 2.985 314.8125 103.625 314.8125 C102.75701589 309.60459532 101.49528008 305.99529701 99.125 301.4375 C98.76970215 300.74269531 98.4144043 300.04789062 98.04833984 299.33203125 C92.64514324 288.86053717 86.84788283 278.65389172 80.5625 268.6875 C61.46010784 238.37051155 61.46010784 238.37051155 61.5 224.6875 C61.50257813 223.71296875 61.50515625 222.7384375 61.5078125 221.734375 C61.61481142 219.06653529 61.95355089 216.5694067 62.375 213.9375 C63.91726047 199.29753494 52.89686415 183.90597567 46.08154297 171.55493164 C30.19521377 142.7520702 30.19521377 142.7520702 30.4375 125.5625 C30.4384668 124.23605469 30.4384668 124.23605469 30.43945312 122.8828125 C30.46599122 118.97876342 30.66446643 115.59731658 31.625 111.8125 C32.46229793 103.77884185 30.5394028 96.89797965 28.0625 89.3125 C27.69825928 88.17119629 27.33401855 87.02989258 26.95874023 85.85400391 C22.6859341 72.64444582 18.27041555 60.25321922 11.046875 48.37426758 C6.81891855 41.05045517 4.56323434 33.05182485 2.18774414 24.97631836 C1.72549438 23.41216187 1.72549438 23.41216187 1.25390625 21.81640625 C0.98650635 20.87611572 0.71910645 19.9358252 0.44360352 18.96704102 C-0.1637835 16.63591072 -0.1637835 16.63591072 -2.375 15.8125 Z M165.625 118.8125 C165.21886475 119.76390869 164.81272949 120.71531738 164.39428711 121.69555664 C150.59936275 153.7313599 150.59936275 153.7313599 139.95678711 162.91357422 C134.97407091 167.22457616 131.54431053 171.87121163 128.125 177.5 C127.41186646 178.65242188 127.41186646 178.65242188 126.68432617 179.828125 C124.30041544 183.51591948 124.30041544 183.51591948 123.81518555 187.71191406 C124.86305212 190.42998581 126.26260871 192.74730783 127.80078125 195.22265625 C128.45763916 196.28500488 129.11449707 197.34735352 129.79125977 198.44189453 C130.50650819 199.58636615 131.22192557 200.73073219 131.9375 201.875 C132.67217693 203.05819307 133.40646707 204.24162638 134.14038086 205.42529297 C139.24256787 213.64303807 144.3975153 221.82760561 149.578125 229.99609375 C153.05488014 235.48263324 156.49695309 240.99070548 159.9375 246.5 C160.88314819 248.01424561 160.88314819 248.01424561 161.84790039 249.55908203 C163.1326015 251.61662772 164.41718745 253.67424532 165.70166016 255.73193359 C168.21948309 259.76466903 170.739123 263.7962664 173.25952148 267.82739258 C174.49830989 269.809681 175.73611102 271.79258676 176.97290039 273.77612305 C180.22554642 278.99003031 183.49701732 284.19082247 186.796875 289.375 C187.47943359 290.45265625 188.16199219 291.5303125 188.86523438 292.640625 C190.16787467 294.69649267 191.4761304 296.74881727 192.79101562 298.796875 C193.38076172 299.73015625 193.97050781 300.6634375 194.578125 301.625 C195.09536133 302.43582031 195.61259766 303.24664062 196.14550781 304.08203125 C197.99204171 307.48989182 199.26405346 311.18330923 200.625 314.8125 C211.845 314.8125 223.065 314.8125 234.625 314.8125 C232.99659546 309.78969552 232.99659546 309.78969552 230.77734375 305.25390625 C230.42381836 304.62830811 230.07029297 304.00270996 229.70605469 303.3581543 C229.13999512 302.37649292 229.13999512 302.37649292 228.5625 301.375 C227.97130371 300.33436401 227.97130371 300.33436401 227.36816406 299.27270508 C224.6204273 294.46307623 221.76082501 289.72752935 218.875 285 C208.38793414 267.78878154 208.38793414 267.78878154 208.79394531 257.76074219 C209.23013978 244.92190974 205.32625376 236.87364515 199.18188477 225.74902344 C187.46235207 204.49732146 187.46235207 204.49732146 187.63183594 195.49951172 C187.87198573 178.82566518 182.86031372 164.39860913 177.28509521 148.95172119 C176.06324213 145.54582765 174.87610992 142.12786596 173.68554688 138.7109375 C171.36486986 132.0662937 169.00756984 125.43523159 166.625 118.8125 C166.295 118.8125 165.965 118.8125 165.625 118.8125 Z " fill="#000000" transform="translate(210.375,91.1875)"/>
</svg>
