<?xml version="1.0" encoding="UTF-8"?>
<svg version="1.1" xmlns="http://www.w3.org/2000/svg" width="1920" height="1080">
<path d="M0 0 C1.10031303 0.00303635 1.10031303 0.00303635 2.22285461 0.00613403 C2.99192642 0.00438171 3.76099823 0.00262939 4.55337524 0.00082397 C7.10793787 -0.00359483 9.66243185 -0.00065646 12.21699524 0.00271606 C13.98437005 0.00204303 15.75174477 0.00107302 17.51911926 -0.00018311 C21.22815327 -0.00166012 24.93716324 0.00049458 28.64619446 0.00515747 C33.41147017 0.01085476 38.17668956 0.00757577 42.9419632 0.00158501 C46.59295581 -0.00202052 50.24393497 -0.00088206 53.89492798 0.0017128 C55.65248623 0.00238209 57.41004569 0.00155357 59.16760254 -0.00076675 C61.61964678 -0.00329314 64.07159855 0.0005471 66.52363586 0.00613403 C67.25717789 0.0041098 67.99071991 0.00208557 68.74649048 0 C73.7589826 0.02126592 73.7589826 0.02126592 74.87324524 1.13552856 C74.9769878 2.71151406 75.01120827 4.29212402 75.01800537 5.87150574 C75.02490387 6.89626007 75.03180237 7.9210144 75.03890991 8.9768219 C75.04152328 10.1107991 75.04413666 11.24477631 75.04682922 12.41311646 C75.05351624 13.60010132 75.06020325 14.78708618 75.0670929 16.01004028 C75.08487689 19.27693855 75.09840037 22.54382595 75.11070514 25.81074834 C75.12512529 29.23035143 75.14665055 32.64990717 75.16793823 36.06947327 C75.23917661 47.72482386 75.29878129 59.38022018 75.35005188 71.03567505 C75.37842234 77.46798116 75.41384632 83.90021122 75.45670563 90.33243746 C75.47902492 93.7353461 75.49756641 97.13818462 75.50715446 100.54115486 C75.51933504 104.34493777 75.54349942 108.14847466 75.57026672 111.95217896 C75.57085587 113.07198654 75.57144501 114.19179413 75.572052 115.34553528 C75.63531846 122.14520485 75.72915965 128.70499162 79.43574524 134.63552856 C83.10903099 136.8960121 86.66575877 136.60819279 90.87324524 136.13552856 C93.95880026 135.49917293 93.95880026 135.49917293 94.78730774 133.31521606 C95.02191711 132.55466919 95.25652649 131.79412231 95.49824524 131.01052856 C95.73801086 130.26545044 95.97777649 129.52037231 96.22480774 128.75271606 C97.97583475 121.68531789 98.03453485 114.77114987 98.06269836 107.52468872 C98.07099167 106.3743515 98.07928497 105.22401428 98.08782959 104.03881836 C98.10517949 101.55018078 98.12035993 99.06152734 98.13360596 96.57286453 C98.15467948 92.64020835 98.18169466 88.7076327 98.21028137 84.77502441 C98.27528378 75.72628083 98.33098989 66.67748473 98.38626862 57.62867737 C98.44112857 48.65751722 98.4997253 39.68640291 98.56512451 30.71531296 C98.59178449 26.83030264 98.6125407 22.94528825 98.63313293 19.0602417 C98.64972516 16.69682612 98.66659604 14.33341248 98.68379211 11.97000122 C98.68797653 10.88120667 98.69216095 9.79241211 98.69647217 8.67062378 C98.70481583 7.68649506 98.71315948 6.70236633 98.72175598 5.68841553 C98.72690971 4.82825647 98.73206345 3.96809742 98.73737335 3.08187294 C98.87324524 1.13552856 98.87324524 1.13552856 99.87324524 0.13552856 C102.33229745 0.03520977 104.76327951 -0.00065324 107.22285461 0.00613403 C107.99192642 0.00438171 108.76099823 0.00262939 109.55337524 0.00082397 C112.10793787 -0.00359483 114.66243185 -0.00065646 117.21699524 0.00271606 C118.98437005 0.00204303 120.75174477 0.00107302 122.51911926 -0.00018311 C126.22815327 -0.00166012 129.93716324 0.00049458 133.64619446 0.00515747 C138.41147017 0.01085476 143.17668956 0.00757577 147.9419632 0.00158501 C151.59295581 -0.00202052 155.24393497 -0.00088206 158.89492798 0.0017128 C160.65248623 0.00238209 162.41004569 0.00155357 164.16760254 -0.00076675 C166.61964678 -0.00329314 169.07159855 0.0005471 171.52363586 0.00613403 C172.25717789 0.0041098 172.99071991 0.00208557 173.74649048 0 C178.7589826 0.02126592 178.7589826 0.02126592 179.87324524 1.13552856 C179.97484254 2.72201538 180.00677029 4.31301027 180.01127625 5.90274048 C180.01672958 6.93446381 180.02218292 7.96618713 180.02780151 9.0291748 C180.02884384 10.1709317 180.02988617 11.3126886 180.03096008 12.48904419 C180.0360408 13.68417633 180.04112152 14.87930847 180.0463562 16.11065674 C180.05708959 18.71727491 180.06608219 21.32383905 180.07247543 23.9304657 C180.08314679 28.05806748 180.10339269 32.18558701 180.12559509 36.31314087 C180.1875374 48.05305176 180.24142915 59.79295959 180.27461243 71.5329895 C180.2930056 78.01184378 180.32200673 84.4905619 180.36261714 90.96931601 C180.38362184 94.39632144 180.39913493 97.82315571 180.40142441 101.25022888 C180.4063434 105.08263982 180.42953071 108.91454818 180.45674133 112.74685669 C180.4537352 113.87241974 180.45072906 114.99798279 180.44763184 116.15765381 C180.51357399 122.42482239 180.83155341 128.50983855 183.87324524 134.13552856 C187.57332687 136.60224965 190.58026602 136.80630657 194.87324524 136.13552856 C198.0320862 134.35009672 199.45979532 133.02424443 200.9881134 129.73910522 C202.26987581 124.52075365 202.16498814 119.45822852 202.16035461 114.103302 C202.16718765 112.89619568 202.17402069 111.68908936 202.18106079 110.44540405 C202.19463202 107.82951022 202.20468591 105.21388298 202.20877075 102.59798431 C202.2155026 98.46346965 202.23727517 94.32911695 202.26130676 90.19467163 C202.31434419 80.67814588 202.3478501 71.16157043 202.38106537 61.6449585 C202.41173734 52.90984192 202.44651094 44.17479538 202.49737597 35.43976998 C202.52075252 31.32743564 202.53447192 27.21521515 202.54087067 23.10282087 C202.54818347 19.95189945 202.5681956 16.80105314 202.58613586 13.650177 C202.58466301 11.93586487 202.58466301 11.93586487 202.5831604 10.18692017 C202.59143356 9.14948669 202.59970673 8.11205322 202.60823059 7.04318237 C202.61116371 6.13840023 202.61409683 5.23361809 202.61711884 4.3014183 C202.87324524 2.13552856 202.87324524 2.13552856 204.87324524 0.13552856 C207.36213061 -0.05747726 209.73922914 -0.12684781 212.22871399 -0.10739136 C212.98657196 -0.1092897 213.74442993 -0.11118805 214.5252533 -0.11314392 C217.03718827 -0.11685684 219.54883584 -0.1061402 222.06074524 -0.09494019 C223.80187445 -0.09374855 225.54300431 -0.09329519 227.28413391 -0.09355164 C230.93594884 -0.09198587 234.58766587 -0.08368922 238.23945618 -0.07028198 C242.92726276 -0.05329202 247.61496165 -0.0494676 252.30279541 -0.05022717 C255.89893121 -0.04995561 259.49504333 -0.04447665 263.09117126 -0.03722572 C264.81999024 -0.03403702 266.54881191 -0.03207118 268.27763367 -0.03133202 C270.69106137 -0.02917059 273.1043735 -0.02043063 275.51777649 -0.00973511 C276.23680145 -0.01018829 276.95582642 -0.01064148 277.69664001 -0.0111084 C282.64428962 0.02105075 282.64428962 0.02105075 284.87324524 1.13552856 C284.94367135 18.53956114 284.99639657 35.94354856 285.02868176 53.34769154 C285.04407813 61.43074654 285.0650273 69.51371244 285.0995636 77.59671021 C285.12968957 84.65092924 285.14887259 91.70508367 285.15551072 98.75936526 C285.1593842 102.48632899 285.16833157 106.21310809 285.19043541 109.94001198 C285.42397563 150.96218135 285.42397563 150.96218135 276.87324524 169.13552856 C276.21002258 170.547052 276.21002258 170.547052 275.53340149 171.98709106 C271.89215933 179.14853686 267.20014523 185.14944697 261.87324524 191.13552856 C260.84070618 192.31115356 260.84070618 192.31115356 259.78730774 193.51052856 C246.70605019 207.51574111 227.60697513 216.65928538 208.42793274 217.47146606 C180.73847352 217.91592742 160.2786382 208.84534446 139.87324524 190.13552856 C136.10837367 191.43173867 133.80981877 192.90339222 130.99824524 195.69802856 C121.8778408 204.04448853 110.49564225 210.07565016 98.87324524 214.13552856 C98.01472961 214.453927 97.15621399 214.77232544 96.27168274 215.10037231 C76.80318414 221.1877847 54.22947894 217.56660632 36.41426086 208.33840942 C30.69973555 205.20960651 25.67351199 201.54975987 20.87324524 197.13552856 C20.09465149 196.43685669 19.31605774 195.73818481 18.51387024 195.01834106 C1.73710539 179.19863998 -5.10812833 156.221128 -6.31059837 133.69092369 C-6.37668001 130.15169225 -6.3859823 126.61747232 -6.36967468 123.07766724 C-6.37075132 121.73733935 -6.37269563 120.39701193 -6.37542725 119.0566864 C-6.38021178 115.46660622 -6.37270574 111.87665324 -6.3624742 108.28658843 C-6.35360715 104.51547785 -6.35545267 100.74437023 -6.35583496 96.97325134 C-6.35490347 90.65842591 -6.34628169 84.34364905 -6.33256531 78.02883911 C-6.31675655 70.72359578 -6.31157051 63.4184052 -6.31230086 56.11314601 C-6.31297477 48.31966364 -6.30605272 40.52620162 -6.29685426 32.73272538 C-6.29472112 30.48847963 -6.29401289 28.24423714 -6.29361534 25.99999046 C-6.29242932 21.83705504 -6.28273937 17.67418275 -6.27201843 13.51126099 C-6.27269821 11.64209518 -6.27269821 11.64209518 -6.27339172 9.73516846 C-6.26912674 8.60970108 -6.26486176 7.4842337 -6.26046753 6.32466125 C-6.25879169 5.34085574 -6.25711584 4.35705023 -6.25538921 3.34343243 C-6.00899517 -0.88571728 -3.67786045 0.01560364 0 0 Z " fill="#FFFFFF" transform="translate(313.1267547607422,462.8644714355469)"/>
<path d="M0 0 C1.11669571 0.00539291 1.11669571 0.00539291 2.25595093 0.01089478 C3.0363826 0.01074875 3.81681427 0.01060272 4.62089539 0.01045227 C7.21273534 0.01115158 9.80450432 0.01894481 12.39633179 0.02676392 C14.18852194 0.02862803 15.9807126 0.03005196 17.77290344 0.03105164 C22.49938351 0.03487733 27.22583305 0.04470805 31.95230103 0.05575562 C36.77153104 0.06596863 41.59076596 0.07054902 46.41000366 0.07559204 C55.87290773 0.08633027 65.3357891 0.10340731 74.79867554 0.12442017 C74.86894282 25.10798477 74.92175021 50.09153442 74.95411205 75.07517815 C74.9695416 86.6770751 74.99055583 98.27891043 75.0249939 109.88076782 C75.05501655 119.99999032 75.07427893 130.11916816 75.08094102 140.23843396 C75.08483159 145.59010229 75.09389228 150.94164294 75.11586571 156.29327011 C75.13643472 161.3444276 75.14246868 166.39540647 75.13799858 171.44660187 C75.13881475 173.28704173 75.14465751 175.12748842 75.15629196 176.96789169 C75.24611697 191.92797249 74.19794044 206.95448293 69.17367554 221.18692017 C68.92279175 221.91459595 68.67190796 222.64227173 68.41342163 223.39199829 C63.91959111 235.85131109 57.61076732 247.21524065 48.79867554 257.12442017 C48.19797241 257.86692017 47.59726929 258.60942017 46.97836304 259.37442017 C33.65929452 275.42417637 13.6879567 285.75365928 -6.20132446 291.12442017 C-7.2828479 291.44152954 -8.36437134 291.75863892 -9.47866821 292.08535767 C-39.14564187 299.49360538 -70.45669686 292.95632731 -96.33413696 277.61660767 C-102.5116939 273.76834401 -107.86951498 269.05006688 -113.20132446 264.12442017 C-114.28800415 263.15955688 -114.28800415 263.15955688 -115.39663696 262.17520142 C-135.73491476 243.19555351 -146.18878164 216.25731068 -147.42007446 188.85488892 C-148.34720672 157.02451438 -137.1237838 129.83232455 -115.49819946 106.49160767 C-95.62773651 86.01286524 -69.99983315 74.08993587 -41.38882446 72.97598267 C-33.39353541 72.89406372 -25.10705299 72.82114299 -17.20132446 74.12442017 C-14.64201984 76.68372479 -14.96568812 78.34246792 -14.95248413 81.83093262 C-14.96326996 83.02639206 -14.96326996 83.02639206 -14.97427368 84.2460022 C-14.97398163 85.08510132 -14.97368958 85.92420044 -14.97338867 86.78872681 C-14.97478513 89.56999961 -14.99036111 92.3510065 -15.00601196 95.13223267 C-15.00974097 97.05751397 -15.01258847 98.98279717 -15.0145874 100.90808105 C-15.0222327 105.98146787 -15.04188886 111.05474061 -15.06399536 116.12808228 C-15.08443451 121.30262712 -15.09358498 126.47719036 -15.10366821 131.65176392 C-15.12513393 141.80936618 -15.15928065 151.9668837 -15.20132446 162.12442017 C-18.92398071 163.24453735 -18.92398071 163.24453735 -21.42007446 162.16348267 C-22.17288696 161.69684204 -22.92569946 161.23020142 -23.70132446 160.74942017 C-29.73242351 157.05227383 -35.45272255 156.14652309 -42.43960571 157.58535767 C-50.41160902 159.92601494 -57.08832894 164.39968741 -61.22866821 171.72598267 C-64.35001668 179.42280177 -65.47245767 188.33940882 -62.20132446 196.12442017 C-57.80335348 204.27321325 -52.70607698 209.09017182 -44.01382446 212.36270142 C-36.13722714 214.49594653 -27.50097869 213.87932867 -20.20132446 210.12442017 C-16.18742257 207.36869853 -14.14054225 204.7986872 -12.01382446 200.43692017 C-11.52526978 199.46367798 -11.03671509 198.49043579 -10.53335571 197.48770142 C-6.60749161 187.57518238 -6.90096618 177.70240891 -6.89834595 167.22793579 C-6.89067637 165.41544214 -6.88212841 163.60295203 -6.87277222 161.79046631 C-6.85455918 157.90276201 -6.84247918 154.01510518 -6.83523369 150.12736511 C-6.82371821 143.98501395 -6.79825287 137.84276821 -6.7709198 131.70046997 C-6.72934985 121.99446158 -6.69689208 112.28844811 -6.66844565 102.58239317 C-6.61735009 85.17306901 -6.55542892 67.7637882 -6.48310524 50.35453939 C-6.45813783 44.24238235 -6.43872802 38.13023953 -6.4237231 32.01805019 C-6.41355504 28.22893805 -6.39941064 24.43984813 -6.38424683 20.65075302 C-6.37806662 18.88703303 -6.37362124 17.12330603 -6.37098885 15.35957718 C-6.36720553 12.9628312 -6.35741736 10.56618445 -6.34608459 8.16946411 C-6.34647073 7.46258154 -6.34685686 6.75569898 -6.34725469 6.02739573 C-6.3081011 0.14301493 -5.85300691 0.01192859 0 0 Z " fill="#FFFFFF" transform="translate(902.2013244628906,382.8755798339844)"/>
<path d="M0 0 C26.73 0 53.46 0 81 0 C81.33 28.38 81.66 56.76 82 86 C85.3 84.02 88.6 82.04 92 80 C107.91549216 72.03258473 124.97272043 70.85322516 142 76 C159.86697597 82.68172592 171.51472114 94.70895153 179.6875 111.8984375 C185.65583551 126.00218273 187.30944329 139.93689127 187.22705078 155.13183594 C187.22648525 156.6114196 187.226806 158.09100382 187.22793579 159.57058716 C187.22850476 163.54913891 187.21682511 167.5275677 187.20278788 171.50609112 C187.19020373 175.67806547 187.189104 179.85004329 187.18673706 184.02203369 C187.18054471 191.90525528 187.16416459 199.78842076 187.14403808 207.67161775 C187.11740702 218.33621535 187.10668828 229.00082853 187.09503365 239.66545105 C187.07628214 256.44367598 187.0364216 273.22178256 187 290 C160.27 290 133.54 290 106 290 C105.96261719 281.21375 105.92523437 272.4275 105.88671875 263.375 C105.85258839 257.09759208 105.81659774 250.82021642 105.77792263 244.54283714 C105.72808513 236.41350339 105.68261987 228.28422261 105.65356445 220.15478516 C105.63054357 213.71768662 105.59710016 207.28073966 105.55129844 200.84376144 C105.52742105 197.43746465 105.50865651 194.03131746 105.50238609 190.62493896 C105.49275116 186.81613924 105.46469711 183.00788421 105.43237305 179.19921875 C105.43380814 178.07784012 105.43524323 176.95646149 105.4367218 175.80110168 C105.36133873 169.51260969 104.7426695 164.696492 102 159 C98.35433305 156.31936254 94.39198691 156.83604762 90.0859375 157.47265625 C86.94826953 158.26588692 85.74599325 159.27625052 84 162 C81.88481984 168.68688019 81.69494273 174.94415873 81.68115234 181.92382812 C81.67110672 183.0954248 81.6610611 184.26702148 81.65071106 185.47412109 C81.61994923 189.32649265 81.60286313 193.17879491 81.5859375 197.03125 C81.56722023 199.71025592 81.54774162 202.38924549 81.5272522 205.0682373 C81.48059494 211.38614601 81.44378799 217.70407158 81.41057932 224.02206373 C81.36850178 231.92622864 81.31317001 239.83029385 81.2578125 247.734375 C81.15919967 261.82286175 81.08053066 275.91137253 81 290 C54.27 290 27.54 290 0 290 C0 194.3 0 98.6 0 0 Z " fill="#FFFFFF" transform="translate(1642,383)"/>
<path d="M0 0 C8.8918034 7.62796526 16.92306758 15.74621386 23.1328125 25.734375 C23.64070313 26.4975 24.14859375 27.260625 24.671875 28.046875 C31.67341921 38.9621029 38.28815085 53.60692152 38.1328125 66.734375 C28.60537422 67.12720914 19.077874 67.51849607 9.55029202 67.90782928 C5.12586311 68.08867651 0.70145705 68.27004874 -3.72290039 68.45263672 C-7.99574245 68.62895223 -12.26863976 68.80386784 -16.54157829 68.97782898 C-18.1685991 69.04431205 -19.79559967 69.11129234 -21.42257881 69.17878723 C-23.70818065 69.27351836 -25.99384923 69.36645224 -28.27954102 69.45898438 C-29.57859879 69.51227905 -30.87765656 69.56557373 -32.21607971 69.6204834 C-34.02337807 69.67685974 -34.02337807 69.67685974 -35.8671875 69.734375 C-37.12969833 69.78388306 -38.39220917 69.83339111 -39.69297791 69.88439941 C-44.07310962 69.67737884 -44.94911183 67.93036264 -47.8671875 64.734375 C-54.95185811 59.15127234 -61.50105304 56.20806197 -70.7265625 56.48046875 C-78.20282485 57.36725169 -85.44023543 59.81315099 -90.4921875 65.59375 C-96.92553381 73.82101019 -98.7777021 82.27402954 -97.50390625 92.7109375 C-95.7348886 100.41647451 -92.08417838 106.76185867 -85.55078125 111.3671875 C-77.51139984 116.00274515 -70.10946948 116.58366578 -60.8671875 115.734375 C-52.92946088 113.53837776 -48.0686561 108.65646671 -43.8671875 101.734375 C-43.26945872 100.24005305 -42.68496328 98.74033265 -42.1171875 97.234375 C-41.24617004 95.39122009 -41.24617004 95.39122009 -39.8671875 93.734375 C-37.66679382 93.19264221 -37.66679382 93.19264221 -34.9831543 93.04907227 C-33.49964981 92.95917526 -33.49964981 92.95917526 -31.98617554 92.86746216 C-30.44227646 92.80158401 -30.44227646 92.80158401 -28.8671875 92.734375 C-27.90293854 92.68376923 -26.93868958 92.63316345 -25.94522095 92.58102417 C-22.88457637 92.43126154 -19.82395971 92.31150194 -16.76171875 92.19921875 C-15.07739998 92.13475304 -15.07739998 92.13475304 -13.35905457 92.06898499 C-10.99682942 91.97936663 -8.63454852 91.89120706 -6.2722168 91.80444336 C-2.70668628 91.67287129 0.85856144 91.53500105 4.42382812 91.39648438 C16.33253258 90.94479962 28.21476962 90.58077731 40.1328125 90.734375 C38.91174129 121.86332728 26.32145077 148.53043422 3.8984375 170.265625 C-18.76120985 190.49288083 -47.48384214 199.1167533 -77.6171875 197.609375 C-103.6960221 195.74925841 -126.73579817 185.30082451 -145.8671875 167.734375 C-146.67929688 167.00476563 -147.49140625 166.27515625 -148.328125 165.5234375 C-168.74888889 146.24910246 -180.01110995 118.6465017 -181.08203125 90.83984375 C-181.90426667 58.10459594 -171.10776492 30.85046164 -148.6171875 7.046875 C-108.42070819 -31.43302868 -43.50623497 -35.84678297 0 0 Z " fill="#FFFFFF" transform="translate(1569.8671875,480.265625)"/>
<path d="M0 0 C1.69322388 0.0002417 1.69322388 0.0002417 3.4206543 0.00048828 C15.02443506 0.15701781 25.64956917 2.05982767 36.4375 6.375 C36.4375 33.765 36.4375 61.155 36.4375 89.375 C32.92509653 90.54580116 31.22030707 89.79542573 27.74609375 88.87109375 C21.16667392 87.45724211 15.16494093 87.66697704 9.2578125 91.0390625 C4.48268963 94.54355182 1.28751949 98.74960137 -0.5625 104.375 C-2.4176689 117.82985658 4.37043966 128.61267529 10.75 139.9375 C27.07354648 169.60304958 35.79307815 199.59115566 26.25 233.125 C22.30234166 245.99998456 15.98984072 256.96408608 7.4375 267.375 C6.75042969 268.22707031 6.06335938 269.07914063 5.35546875 269.95703125 C-11.39849713 289.69500589 -35.09997302 301.15501148 -60.5625 304.375 C-80.7451455 305.85783997 -96.90962086 303.14703298 -115.5625 295.375 C-115.5625 266.995 -115.5625 238.615 -115.5625 209.375 C-111.55954595 210.97618162 -107.65978993 212.6752048 -103.74609375 214.47265625 C-96.6865261 217.38993734 -89.39135758 217.3348194 -82.25 214.6875 C-78.18290257 212.87706792 -75.38841094 210.88598025 -72.5625 207.375 C-71.964375 206.67375 -71.36625 205.9725 -70.75 205.25 C-68.53873434 199.89640945 -68.68789571 194.07014667 -70.46948242 188.58007812 C-71.73631428 185.72189824 -73.11263794 182.95722669 -74.5625 180.1875 C-75.06289795 179.1864624 -75.5632959 178.1854248 -76.07885742 177.15405273 C-77.55193351 174.21614582 -79.05209038 171.293855 -80.5625 168.375 C-90.26758383 149.48985505 -98.75797779 129.96301262 -99.5625 108.375 C-99.6140625 107.29734375 -99.665625 106.2196875 -99.71875 105.109375 C-100.44044124 76.84313474 -90.90981753 51.70853619 -71.51953125 31.1171875 C-52.13255145 10.94389876 -28.17760819 -0.03795532 0 0 Z " fill="#FFFFFF" transform="translate(235.5625,375.625)"/>
<path d="M0 0 C21.56458606 19.0980757 35.0717807 44.83215588 37.25 73.75 C37.39562762 76.96006762 37.43490881 80.16192856 37.4375 83.375 C37.44974609 84.18195313 37.46199219 84.98890625 37.47460938 85.8203125 C37.47654297 86.614375 37.47847656 87.4084375 37.48046875 88.2265625 C37.48457764 88.92861816 37.48868652 89.63067383 37.49291992 90.35400391 C37.25 92.75 37.25 92.75 35.25 99.75 C-4.35 99.75 -43.95 99.75 -84.75 99.75 C-89.59865672 86.82024875 -89.24036786 75.88116367 -85.75 62.75 C-84.76 61.265 -84.76 61.265 -83.75 59.75 C-80.7704901 59.48346054 -78.0011418 59.40232216 -75.0234375 59.45703125 C-74.16062164 59.46127609 -73.29780579 59.46552094 -72.40884399 59.46989441 C-69.64724803 59.48671608 -66.88637617 59.52437402 -64.125 59.5625 C-62.25521886 59.57754236 -60.3854263 59.59123154 -58.515625 59.60351562 C-53.92680342 59.63663094 -49.33852456 59.68843661 -44.75 59.75 C-45.36815523 58.15199896 -45.99157528 56.55603391 -46.6171875 54.9609375 C-46.96378418 54.07196777 -47.31038086 53.18299805 -47.66748047 52.26708984 C-50.01522713 46.80807584 -53.04190285 43.80527212 -58.375 41.375 C-66.05646758 38.64710884 -74.01474707 38.68593022 -81.62890625 41.671875 C-91.60134063 46.74073667 -96.05533542 56.0971526 -99.62890625 66.24609375 C-103.41722807 81.53183984 -101.45298963 99.80061509 -93.48046875 113.3046875 C-89.05516952 119.55804488 -83.35621302 124.20368197 -75.75 125.75 C-69.34751473 126.47616047 -63.392373 126.03571922 -57.75 122.75 C-55.5983755 120.9766831 -53.58285314 119.14518195 -51.609375 117.17578125 C-49.75 115.75 -49.75 115.75 -45.75 115.75 C-43.77734375 117.69921875 -43.77734375 117.69921875 -41.6875 120.4375 C-40.90246094 121.44167969 -40.11742187 122.44585938 -39.30859375 123.48046875 C-38.89335449 124.01591309 -38.47811523 124.55135742 -38.05029297 125.10302734 C-35.85710676 127.8809534 -33.55005811 130.56050981 -31.25 133.25 C-27.13391013 138.09040784 -23.09266058 142.98568556 -19.08203125 147.9140625 C-15.94684037 151.72670669 -12.75586241 155.49073564 -9.5546875 159.24804688 C-6.89669849 162.37255607 -4.2958993 165.53350252 -1.75 168.75 C-5.57956998 178.07064651 -19.92041052 183.70448272 -28.75 187.75 C-33.63930128 189.7875235 -38.65090329 191.32699627 -43.75 192.75 C-44.82507812 193.0696875 -45.90015625 193.389375 -47.0078125 193.71875 C-74.509191 200.6100467 -105.68881271 195.71614893 -130.25 181.875 C-144.95916009 172.96087401 -158.62246051 160.40718643 -167.75 145.75 C-168.25789063 144.99847656 -168.76578125 144.24695313 -169.2890625 143.47265625 C-185.1597228 119.01556178 -187.45160853 87.33485618 -181.93359375 59.38671875 C-178.1051972 41.86714839 -169.23614841 26.36230779 -157.75 12.75 C-157.30914063 12.18667969 -156.86828125 11.62335938 -156.4140625 11.04296875 C-142.27159529 -6.94359189 -119.53632785 -18.04820824 -97.75 -23.25 C-96.74453125 -23.49621094 -95.7390625 -23.74242187 -94.703125 -23.99609375 C-61.24711631 -30.55166302 -25.86047503 -22.08074084 0 0 Z " fill="#FFFFFF" transform="translate(1333.75,481.25)"/>
<path d="M0 0 C26.73 0 53.46 0 81 0 C81 26.4 81 52.8 81 80 C92.22 80 103.44 80 115 80 C115.66 80.33 116.32 80.66 117 81 C117.02312297 91.93496471 117.04091485 102.86992366 117.05181217 113.8049078 C117.0570411 118.88191018 117.06413892 123.95889589 117.07543945 129.03588867 C117.08626799 133.93120552 117.09227676 138.82650629 117.09487724 143.72183418 C117.09673155 145.59382951 117.10035228 147.46582391 117.10573006 149.33781242 C117.11294004 151.95040699 117.11399096 154.56293427 117.11352539 157.17553711 C117.11712067 157.95740387 117.12071594 158.73927063 117.12442017 159.54483032 C117.11405216 164.88594784 117.11405216 164.88594784 116 166 C113.40640678 166.08851529 110.83960309 166.11525945 108.24609375 166.09765625 C107.47064713 166.0962413 106.6952005 166.09482635 105.89625549 166.09336853 C103.40996506 166.08775345 100.9237634 166.07519846 98.4375 166.0625 C96.75586067 166.05748694 95.07421994 166.0529237 93.39257812 166.04882812 C89.26168434 166.03777913 85.13085724 166.02050445 81 166 C82.30433667 184.75190704 82.30433667 184.75190704 91.25 200.4375 C99.48665512 206.58038355 107.61600512 206.61546735 118 208 C118 236.05 118 264.1 118 293 C81.06760874 293 53.73303468 285.14291833 27.40307617 258.84228516 C4.52067532 234.98592875 -0.54773441 200.95203783 -0.34057617 169.26635742 C-0.33972672 167.40121474 -0.34021122 165.53607106 -0.34190369 163.67092896 C-0.34275267 158.68257074 -0.32530812 153.69443585 -0.30418181 148.70612884 C-0.2852287 143.46517475 -0.28365008 138.22421366 -0.28010559 132.98323059 C-0.2708392 123.09220174 -0.24629987 113.20127422 -0.21605712 103.31028968 C-0.1823432 92.03554545 -0.16598469 80.76079598 -0.15097082 69.48601377 C-0.11974449 46.32394033 -0.06480138 23.16200552 0 0 Z " fill="#FFFFFF" transform="translate(1008,383)"/>
<path d="M0 0 C0.71902496 0.00561951 1.43804993 0.01123901 2.17886353 0.01702881 C2.9367215 0.01513046 3.69457947 0.01323212 4.47540283 0.01127625 C6.98733781 0.00756332 9.49898538 0.01827996 12.01089478 0.02947998 C13.75202399 0.03067162 15.49315385 0.03112498 17.23428345 0.03086853 C20.88609838 0.03243429 24.53781541 0.04073095 28.18960571 0.05413818 C32.87741229 0.07112815 37.56511118 0.07495257 42.25294495 0.074193 C45.84908075 0.07446456 49.44519286 0.07994351 53.0413208 0.08719444 C54.77013978 0.09038315 56.49896144 0.09234899 58.2277832 0.09308815 C60.64121091 0.09524958 63.05452304 0.10398954 65.46792603 0.11468506 C66.18695099 0.11423187 66.90597595 0.11377869 67.64678955 0.11331177 C72.59443916 0.14547092 72.59443916 0.14547092 74.82339478 1.25994873 C74.84672026 28.75365965 74.86437222 56.2473691 74.87520695 83.74108791 C74.88037065 96.50592313 74.88741476 109.27075221 74.89883423 122.0355835 C74.9087788 133.1570246 74.91524766 144.27846127 74.91748327 155.39990669 C74.91879076 161.2925697 74.92187905 167.18522 74.92912483 173.07787895 C74.93588148 178.61730289 74.93801247 184.15670881 74.93650246 189.69613647 C74.93677895 191.73560242 74.93878617 193.77506893 74.94260025 195.81453133 C74.94753195 198.58614956 74.94639501 201.3576986 74.94364929 204.12931824 C74.94656213 204.94739549 74.94947497 205.76547274 74.95247608 206.6083402 C74.93751599 212.14582752 74.93751599 212.14582752 73.82339478 213.25994873 C71.33385781 213.36028739 68.87204524 213.39612816 66.38198853 213.38934326 C65.60316315 213.39109558 64.82433777 213.3928479 64.02191162 213.39465332 C61.43488366 213.39907222 58.84792349 213.39613372 56.26089478 213.39276123 C54.47109972 213.39343426 52.68130475 213.39440427 50.89151001 213.3956604 C47.13539767 213.39713742 43.37930906 213.39498267 39.62319946 213.39031982 C34.79738984 213.38462253 29.97163583 213.38790151 25.14582825 213.39389229 C21.44851255 213.39749778 17.75121013 213.39635937 14.05389404 213.3937645 C12.2740071 213.39309519 10.49411896 213.39392376 8.7142334 213.39624405 C6.23105655 213.39877038 3.74797103 213.39493027 1.26480103 213.38934326 C0.15046188 213.39237961 0.15046188 213.39237961 -0.98638916 213.39547729 C-6.06234261 213.37421135 -6.06234261 213.37421135 -7.17660522 212.25994873 C-7.2788937 209.55861087 -7.31546579 206.88269041 -7.31031799 204.18074036 C-7.31258355 203.32375107 -7.31484911 202.46676178 -7.31718332 201.58380312 C-7.32355341 198.6894613 -7.32269204 195.79516595 -7.3218689 192.90081787 C-7.32485851 190.83497557 -7.32826057 188.76913384 -7.33204651 186.70329285 C-7.3409107 181.07529511 -7.34322563 175.44731256 -7.3438623 169.81930852 C-7.34480933 165.1296308 -7.34848523 160.43995667 -7.35203439 155.75028032 C-7.36018809 144.69108268 -7.36261779 133.63189318 -7.36190796 122.57269287 C-7.36130687 111.14435104 -7.37186286 99.71605636 -7.38765162 88.28772646 C-7.40070356 78.49327402 -7.40609285 68.69883704 -7.40545255 58.90437597 C-7.40519688 53.04689628 -7.40808604 47.18945846 -7.4186306 41.33198738 C-7.42827226 35.82535639 -7.42841795 30.31880764 -7.42111397 24.81217384 C-7.42006322 22.78602733 -7.42245981 20.7598758 -7.42847443 18.73373795 C-7.43612843 15.97777371 -7.4315937 13.22209823 -7.42384338 10.46614075 C-7.42898695 9.65554941 -7.43413051 8.84495807 -7.43942994 8.00980335 C-7.39940446 1.6138106 -6.52793807 0.04172951 0 0 Z " fill="#FFFFFF" transform="translate(648.1766052246094,459.74005126953125)"/>
<path d="M0 0 C9.57127758 7.01786628 16.63934122 15.51629751 18.578125 27.45703125 C19.57179697 38.53403028 17.65819474 48.8413298 10.953125 57.89453125 C6.8004174 62.64930426 2.22810284 65.71379442 -3.421875 68.45703125 C-4.07929687 68.78445313 -4.73671875 69.111875 -5.4140625 69.44921875 C-15.85018823 73.99607851 -28.60182716 73.23550097 -39.1484375 69.48828125 C-50.34160077 64.35952533 -56.8786719 56.815039 -61.421875 45.45703125 C-64.29639076 36.93929437 -63.34690514 25.13355966 -59.87890625 16.984375 C-54.09736979 6.95581176 -44.6813089 -1.20465822 -33.67578125 -4.84765625 C-22.05762735 -7.33028697 -10.15031771 -6.46673467 0 0 Z " fill="#FFFFFF" transform="translate(704.421875,372.54296875)"/>
</svg>
