<?xml version="1.0" encoding="UTF-8"?>
<svg version="1.1" xmlns="http://www.w3.org/2000/svg" width="512" height="512">
<path d="M0 0 C4.66354226 4.433828 9.00477679 8.84012503 12.59765625 14.203125 C13.06671387 14.89833252 13.53577148 15.59354004 14.01904297 16.30981445 C14.90163302 17.65658267 15.75070336 19.02612307 16.55908203 20.41870117 C17.85389309 22.58541355 17.85389309 22.58541355 20.6875 25.00390625 C24.12471427 25.31049964 27.3089779 24.60516084 30.6875 24.00390625 C60.10350607 22.00577401 87.99809313 29.64518345 110.6875 49.00390625 C121.36408713 58.48683768 130.16017527 69.23305351 136.6875 82.00390625 C136.6875 82.66390625 136.6875 83.32390625 136.6875 84.00390625 C137.24695313 84.0296875 137.80640625 84.05546875 138.3828125 84.08203125 C158.2251469 85.48566905 174.04966674 94.06390534 187.6875 108.00390625 C188.42613281 108.7103125 189.16476562 109.41671875 189.92578125 110.14453125 C203.81450851 124.27597414 208.01850904 143.77686947 208.07250977 162.85229492 C207.94899408 172.49653295 206.60154495 180.16991675 202.6875 189.00390625 C201.94306641 190.70353516 201.94306641 190.70353516 201.18359375 192.4375 C197.00800439 200.97985027 191.36511729 207.38352568 184.6875 214.00390625 C183.99140625 214.73351562 183.2953125 215.463125 182.578125 216.21484375 C178.09784508 220.60829654 173.08512571 223.73803124 167.625 226.75390625 C166.98353027 227.11895264 166.34206055 227.48399902 165.68115234 227.86010742 C153.6467031 234.1814517 140.42124507 235.6031139 127.04119873 235.51184082 C125.53608547 235.51646402 124.03097674 235.52282635 122.52587724 235.5307498 C118.43893853 235.54727257 114.35237887 235.53927556 110.26543975 235.52680492 C105.83855122 235.51768565 101.41172402 235.53175817 96.98484802 235.54272461 C88.33080517 235.56044336 79.67690167 235.55669909 71.02285352 235.54507405 C63.98249148 235.53601138 56.94216827 235.53482794 49.90180206 235.53916931 C48.39420523 235.54008871 48.39420523 235.54008871 46.85615189 235.54102668 C44.81382605 235.5423057 42.77150022 235.54360255 40.72917441 235.54491705 C21.60935044 235.556304 2.48960337 235.54324 -16.63020799 235.52171558 C-32.99944151 235.50385726 -49.3685615 235.50694195 -65.73779297 235.52539062 C-84.7866899 235.5468496 -103.83551949 235.55519408 -122.88442683 235.54294157 C-124.92013088 235.5416675 -126.95583493 235.54041002 -128.991539 235.53916931 C-130.4935883 235.53824366 -130.4935883 235.53824366 -132.02598204 235.53729931 C-139.04748168 235.53386064 -146.06893825 235.53964281 -153.09043121 235.54908752 C-161.66256089 235.56036541 -170.23454426 235.55714726 -178.8066574 235.53596455 C-183.17175243 235.52552972 -187.53660452 235.52120102 -191.90169716 235.53456116 C-225.153173 235.62774301 -255.6394601 232.4508611 -280.49609375 208.00390625 C-289.67609946 198.49277701 -295.93142402 187.41745326 -300.3125 175.00390625 C-300.53695801 174.37242676 -300.76141602 173.74094727 -300.99267578 173.09033203 C-308.81694277 149.78566574 -305.57521305 123.56508069 -295.2265625 101.6953125 C-292.53386484 96.31682153 -289.14003397 91.63004224 -285.3125 87.00390625 C-284.64734375 86.16472656 -283.9821875 85.32554688 -283.296875 84.4609375 C-267.84553593 66.00517139 -244.70065028 56.91307061 -221.3125 54.00390625 C-221.20035156 53.47925781 -221.08820313 52.95460938 -220.97265625 52.4140625 C-214.0824013 25.34842052 -191.72009094 -0.23273136 -168.2578125 -14.53515625 C-164.34480115 -16.82478399 -160.35370584 -18.94284951 -156.3125 -20.99609375 C-155.21164063 -21.56070312 -154.11078125 -22.1253125 -152.9765625 -22.70703125 C-102.74890601 -47.13875552 -40.91436859 -37.56486482 0 0 Z " fill="#000000" transform="translate(304.3125,35.99609375)"/>
<path d="M0 0 C0.66 0 1.32 0 2 0 C3.13818359 1.39501953 3.13818359 1.39501953 4.3984375 3.3828125 C4.8720874 4.12700439 5.3457373 4.87119629 5.83374023 5.63793945 C6.34235596 6.45866943 6.85097168 7.27939941 7.375 8.125 C7.90230713 8.9708667 8.42961426 9.8167334 8.97290039 10.68823242 C33.44328202 50.40412214 33.44328202 50.40412214 31 67 C28.976168 75.19056714 24.6788537 81.68855777 17.78125 86.5703125 C9.7798038 91.11658875 0.67088342 92.25083467 -8.25 89.9375 C-16.80681974 86.82592919 -22.48153771 82.58657021 -26.84765625 74.51953125 C-30.97080605 65.50450881 -30.68039302 57.39955201 -27.63671875 48.09765625 C-21.67095421 32.36250514 -12.00926094 12.00926094 0 0 Z " fill="#000000" transform="translate(166,421)"/>
<path d="M0 0 C0.66 0 1.32 0 2 0 C3.26171875 1.64208984 3.26171875 1.64208984 4.6875 3.9609375 C5.21657959 4.81598877 5.74565918 5.67104004 6.29077148 6.55200195 C6.85481689 7.48359131 7.4188623 8.41518066 8 9.375 C8.58015869 10.32656982 9.16031738 11.27813965 9.75805664 12.25854492 C11.51886351 15.1645173 13.26321594 18.0796149 15 21 C15.49226074 21.82612793 15.98452148 22.65225586 16.49169922 23.50341797 C34.01752479 53.18875438 34.01752479 53.18875438 30.33203125 68.8359375 C27.82358044 76.83230907 23.60735584 83.30591007 16.125 87.375 C7.08470198 91.27915941 -1.70808068 92.20492792 -11.12109375 88.90625 C-19.21698878 85.26764549 -24.50389447 80.7105148 -28.0859375 72.515625 C-32.49615153 59.4872863 -28.47479941 49.00794358 -22.640625 37.09765625 C-7.89712682 7.89712682 -7.89712682 7.89712682 0 0 Z " fill="#000000" transform="translate(76,346)"/>
<path d="M0 0 C3.50332661 1.16777554 3.82718629 1.84548864 5.71484375 4.8828125 C6.23062988 5.70942383 6.74641602 6.53603516 7.27783203 7.38769531 C8.09936768 8.74266113 8.09936768 8.74266113 8.9375 10.125 C9.50581543 11.0540918 10.07413086 11.98318359 10.65966797 12.94042969 C14.87432213 19.92484689 18.82789193 27.03083601 22.625 34.25 C23.1212085 35.18859863 23.61741699 36.12719727 24.12866211 37.09423828 C29.70675585 47.9066831 33.43051199 58.3068867 30.34375 70.6171875 C26.93462476 79.1106116 21.00043509 85.35851699 12.671875 89.09375 C4.18806358 91.97130007 -4.95860939 91.71424796 -13.15625 88.03125 C-20.18976661 84.02755593 -26.07891407 77.94251104 -28.49609375 70.11328125 C-32.15369484 54.77403949 -25.10626374 42.22867968 -18 29 C-17.63712891 28.31969727 -17.27425781 27.63939453 -16.90039062 26.93847656 C-11.84227332 17.51605449 -6.27458983 8.66279069 0 0 Z " fill="#000000" transform="translate(436,346)"/>
<path d="M0 0 C0.66 0 1.32 0 2 0 C3.16992188 1.45849609 3.16992188 1.45849609 4.46875 3.5234375 C4.95263184 4.28825439 5.43651367 5.05307129 5.93505859 5.84106445 C6.45148926 6.67726318 6.96791992 7.51346191 7.5 8.375 C8.03318848 9.2311792 8.56637695 10.0873584 9.11572266 10.96948242 C34.47022948 52.03202224 34.47022948 52.03202224 30.3515625 69.796875 C27.47063511 77.72558116 22.73865367 83.75360587 15.375 87.9375 C7.07736798 91.65756299 -2.09371558 92.17614888 -10.65625 89.0625 C-19.14899092 85.21245745 -24.14411456 80.58455576 -28 72 C-32.12353305 60.79391712 -28.8122267 50.63289304 -24.04101562 40.17919922 C-18.65594185 28.9064111 -12.30973819 18.17313806 -5.4375 7.75 C-4.92493652 6.96906982 -4.41237305 6.18813965 -3.88427734 5.38354492 C-3.40555176 4.67431885 -2.92682617 3.96509277 -2.43359375 3.234375 C-2.01134521 2.60756836 -1.58909668 1.98076172 -1.15405273 1.33496094 C-0.58279663 0.67415527 -0.58279663 0.67415527 0 0 Z " fill="#000000" transform="translate(346,421)"/>
<path d="M0 0 C0.66 0 1.32 0 2 0 C3.16992188 1.45849609 3.16992188 1.45849609 4.46875 3.5234375 C4.95263184 4.28825439 5.43651367 5.05307129 5.93505859 5.84106445 C6.45148926 6.67726318 6.96791992 7.51346191 7.5 8.375 C8.03318848 9.2311792 8.56637695 10.0873584 9.11572266 10.96948242 C32.5607759 48.93959318 32.5607759 48.93959318 31 67 C29.12366106 74.88966616 24.82113111 81.69408153 18.0859375 86.3125 C9.85102036 90.77444713 1.15216628 91.99519799 -8 90 C-17.36943749 86.54810198 -23.49919401 80.87020159 -28 72 C-32.20461113 60.64321529 -28.76774642 50.31202298 -24.00732422 39.81005859 C-9.40639443 9.40639443 -9.40639443 9.40639443 0 0 Z " fill="#000000" transform="translate(256,346)"/>
</svg>
