<?xml version="1.0" encoding="UTF-8"?>
<svg version="1.1" xmlns="http://www.w3.org/2000/svg" width="512" height="512">
<path d="M0 0 C1.66996714 -0.00678593 3.33992679 -0.01569452 5.00987244 -0.02655029 C9.52032713 -0.04923447 14.03020637 -0.04055263 18.54067039 -0.02465487 C23.27521619 -0.01193917 28.00971483 -0.02375166 32.7442627 -0.03158569 C40.69304186 -0.04066581 48.64158826 -0.02873745 56.59033203 -0.00488281 C65.76206063 0.02232533 74.93323338 0.01351 84.10494852 -0.01401484 C91.99913217 -0.0367517 99.89314911 -0.03988367 107.78735495 -0.02682149 C112.4936696 -0.01905209 117.19972352 -0.01791593 121.90602112 -0.03450394 C126.33207095 -0.04901628 130.75740862 -0.03880448 135.18338203 -0.01003265 C136.80141076 -0.00345778 138.4195001 -0.00525747 140.0375042 -0.01634598 C150.08838836 -0.07884232 158.70833827 0.43109273 166.45391083 7.62247276 C172.80125587 14.28455738 175.29817413 21.53370602 175.32617188 30.64697266 C174.78060326 37.70378404 172.00163408 43.3659835 167.32617188 48.64697266 C158.61905266 55.93665386 150.77564919 56.93974902 139.70898438 56.84228516 C138.49669159 56.83945526 137.2843988 56.83662537 136.03536987 56.83370972 C132.17386898 56.82253933 128.31260235 56.79744003 124.45117188 56.77197266 C121.8287794 56.76193882 119.20638328 56.75281367 116.58398438 56.74462891 C110.16455128 56.72431424 103.74562297 56.68515842 97.32617188 56.64697266 C97.32617188 72.15697266 97.32617188 87.66697266 97.32617188 103.64697266 C105.65789127 103.5286115 105.65789127 103.5286115 113.98901367 103.37670898 C115.03226807 103.36921631 116.07552246 103.36172363 117.15039062 103.35400391 C118.21346436 103.33829346 119.27653809 103.32258301 120.37182617 103.30639648 C123.94143382 103.71789989 125.59265165 104.29330938 128.32617188 106.64697266 C133.8083972 121.26624019 137.25249893 136.57438275 141.32617188 151.64697266 C172.34617187 151.97697266 203.36617188 152.30697266 235.32617188 152.64697266 C235.32617188 145.38697266 235.32617188 138.12697266 235.32617188 130.64697266 C239.97276168 123.67708795 239.97276168 123.67708795 243.32617188 122.64697266 C245.89279175 122.37954712 245.89279175 122.37954712 248.82568359 122.35644531 C249.92717743 122.34368561 251.02867126 122.3309259 252.1635437 122.31777954 C253.34900787 122.31555389 254.53447205 122.31332825 255.75585938 122.31103516 C256.97894806 122.30437836 258.20203674 122.29772156 259.46218872 122.29086304 C262.04948421 122.28073764 264.63680581 122.27604598 267.22412109 122.27636719 C271.17914962 122.27199699 275.13305975 122.23568167 279.08789062 122.19775391 C281.60220973 122.19188518 284.11653413 122.18791616 286.63085938 122.18603516 C287.81227509 122.17166412 288.9936908 122.15729309 290.21090698 122.14248657 C296.49395757 122.17738575 300.6678308 122.20911013 305.32617188 126.64697266 C307.58072996 130.10757142 307.5796702 133.05502534 307.58686829 137.13059998 C307.59069383 137.77977467 307.59451938 138.42894937 307.59846085 139.09779602 C307.60877215 141.27109048 307.60480236 143.44411982 307.60083008 145.61743164 C307.60517759 147.17639409 307.61036087 148.7353544 307.61631775 150.29431152 C307.62971466 154.5277705 307.63028566 158.76114023 307.62775445 162.99461627 C307.62668523 166.52848978 307.63156684 170.06234519 307.63635987 173.59621483 C307.64745741 181.93289069 307.64789105 190.2695215 307.6418457 198.60620117 C307.63580442 207.20746872 307.64812026 215.80857274 307.66941577 224.40981239 C307.68702651 231.79420943 307.69303398 239.17855439 307.68977803 246.56297165 C307.68796422 250.97350355 307.69061111 255.38391879 307.70449257 259.79443169 C307.71705776 263.9419669 307.71513931 268.08924702 307.70208168 272.23677826 C307.6997135 273.75854897 307.70245925 275.28033757 307.7107048 276.80208778 C307.72115404 278.88047567 307.71308738 280.9580047 307.70039368 283.03636169 C307.70064529 284.78043635 307.70064529 284.78043635 307.70090199 286.55974483 C307.17417016 290.89924436 305.59235342 293.5390638 302.32617188 296.39697266 C298.95380738 298.50470047 296.18994337 298.77861743 292.30737305 298.80810547 C291.28588669 298.81771301 290.26440033 298.82732056 289.21195984 298.83721924 C287.55726433 298.84359406 287.55726433 298.84359406 285.86914062 298.85009766 C284.73342117 298.85579773 283.59770172 298.8614978 282.42756653 298.86737061 C280.02260266 298.87682219 277.61762584 298.88335521 275.21264648 298.88720703 C271.53866899 298.89690666 267.86525228 298.92792692 264.19140625 298.95947266 C261.85482103 298.96600338 259.51823181 298.97125358 257.18164062 298.97509766 C256.08458298 298.98744446 254.98752533 298.99979126 253.85722351 299.01251221 C247.31090856 298.99345573 242.72585945 298.4605072 237.51367188 294.14697266 C231.55663702 286.62229706 235.32617188 269.93814356 235.32617188 264.64697266 C213.21617187 264.64697266 191.10617187 264.64697266 168.32617188 264.64697266 C167.66617187 267.94697266 167.00617188 271.24697266 166.32617188 274.64697266 C165.19773541 277.4203834 164.08127543 279.95451429 162.70117188 282.58447266 C162.34998291 283.26759521 161.99879395 283.95071777 161.63696289 284.65454102 C150.55846033 305.66396232 132.36847681 319.84410052 109.93945312 327.11572266 C78.9224988 336.56570421 44.82014573 334.52856957 15.82910156 319.50097656 C-6.0930833 307.41758798 -20.19696898 289.29972898 -27.67382812 265.64697266 C-36.76898775 265.12225191 -46.56735464 266.5804709 -53.67382812 272.64697266 C-60.35694888 279.48551482 -62.11586899 286.39110935 -62.08007812 295.60009766 C-62.0963324 296.83406281 -62.0963324 296.83406281 -62.11291504 298.09295654 C-62.15844768 301.57835625 -62.17029979 305.06367245 -62.18505859 308.54931641 C-62.20074256 311.10817924 -62.23371672 313.66642131 -62.26757812 316.22509766 C-62.26455688 317.01055969 -62.26153564 317.79602173 -62.25842285 318.60528564 C-62.30305538 321.84825695 -62.44901282 324.23295148 -64.01171875 327.11083984 C-66.70861296 329.60332786 -69.28927569 329.77308381 -72.79733276 329.78741455 C-73.63564636 329.79312469 -74.47395996 329.79883484 -75.337677 329.80471802 C-76.7123262 329.80639481 -76.7123262 329.80639481 -78.11474609 329.80810547 C-79.08250977 329.81307037 -80.05027344 329.81803528 -81.04736328 329.82315063 C-84.25358792 329.83777355 -87.4597631 329.84457418 -90.66601562 329.85009766 C-92.89177451 329.85584861 -95.11753338 329.86160635 -97.34329224 329.86737061 C-102.01222973 329.87788069 -106.68115 329.88372344 -111.35009766 329.88720703 C-117.33465291 329.89269447 -123.31898095 329.91672794 -129.30346489 329.94517899 C-133.90166898 329.96379529 -138.4998182 329.96901041 -143.09805679 329.97054291 C-145.30447762 329.97357179 -147.51089744 329.98160819 -149.71728134 329.99472809 C-152.80307097 330.01176867 -155.8883036 330.00991315 -158.97412109 330.00341797 C-159.88650543 330.01263275 -160.79888977 330.02184753 -161.73892212 330.03134155 C-166.52486481 329.99975965 -169.81159406 329.81120535 -173.67382812 326.64697266 C-175.14729544 323.70003802 -174.83378228 321.05070952 -174.86669922 317.76074219 C-174.87487671 317.05130463 -174.8830542 316.34186707 -174.89147949 315.6109314 C-174.91638144 313.25055773 -174.93288222 310.89024545 -174.94726562 308.52978516 C-174.9525893 307.71810757 -174.95791298 306.90642998 -174.96339798 306.0701561 C-174.99017942 301.75478816 -175.00951837 297.43944932 -175.02392578 293.12402344 C-175.03713633 289.58794536 -175.06473693 286.05246216 -175.10595703 282.51660156 C-175.53400138 244.96340872 -175.53400138 244.96340872 -169.67382812 228.64697266 C-169.43448044 227.95847229 -169.19513275 227.26997192 -168.9485321 226.56060791 C-163.79773744 211.77266999 -156.20907939 198.26125339 -145.67382812 186.64697266 C-145.13628906 186.02822266 -144.59875 185.40947266 -144.04492188 184.77197266 C-130.92569127 170.5676929 -111.95447954 161.82072171 -93.67382812 156.64697266 C-92.44148438 156.28861328 -91.20914063 155.93025391 -89.93945312 155.56103516 C-72.53973965 151.0939858 -54.41960497 152.19089172 -36.60626221 152.37231445 C-32.09370481 152.41379602 -27.58105391 152.43162047 -23.06835938 152.45166016 C-14.26993035 152.49410564 -5.47194945 152.56205131 3.32617188 152.64697266 C3.50310326 151.70813736 3.50310326 151.70813736 3.68360901 150.75033569 C4.75570581 145.20740262 6.01721061 139.79035677 7.60351562 134.37353516 C7.92153893 133.27699112 7.92153893 133.27699112 8.24598694 132.15829468 C8.68999069 130.6335217 9.13624726 129.10940297 9.5847168 127.5859375 C10.26759121 125.25861507 10.93673135 122.92760985 11.60546875 120.59619141 C12.04148882 119.10506337 12.47830918 117.61416905 12.91601562 116.12353516 C13.11299545 115.43184235 13.30997528 114.74014954 13.51292419 114.02749634 C14.59807354 110.39327802 15.61081454 107.35528358 18.32617188 104.64697266 C26.41715774 102.62422619 34.98617454 103.64697266 43.32617188 103.64697266 C43.32617188 88.13697266 43.32617188 72.62697266 43.32617188 56.64697266 C39.2553125 56.69337891 35.18445313 56.73978516 30.99023438 56.78759766 C27.71939073 56.81336899 24.44857625 56.83504324 21.1776886 56.85397339 C17.73852759 56.87498983 14.29976876 56.90301537 10.86083984 56.94873047 C6.9040228 57.00099363 2.94736299 57.02000722 -1.00976562 57.03759766 C-2.22683197 57.0582428 -3.44389832 57.07888794 -4.69784546 57.10015869 C-13.23833137 57.10238222 -20.19222666 55.80846493 -27.25976562 50.82275391 C-33.8642507 43.94428364 -36.8419185 38.29309604 -37.17382812 28.64697266 C-36.90128301 20.20715884 -34.4420827 13.46361719 -28.53594208 7.32437706 C-20.15785269 -0.22266055 -10.61379411 -0.07273844 0 0 Z M-20.04882812 19.20947266 C-23.22127293 23.96813987 -23.28858894 28.01022205 -22.67382812 33.64697266 C-20.28080481 38.70913735 -17.76414633 40.53213537 -12.67382812 42.64697266 C-9.34177705 43.09568901 -9.34177705 43.09568901 -5.76660156 43.03465271 C-4.76070795 43.04273102 -4.76070795 43.04273102 -3.73449326 43.05097252 C-1.50054002 43.06521347 0.73281743 43.05815837 2.96679688 43.05102539 C4.5736946 43.05673095 6.18058828 43.06369593 7.78747559 43.07182312 C12.14281473 43.08974772 16.49795233 43.08858766 20.85331726 43.08288074 C24.49158806 43.07978834 28.12982018 43.0858818 31.76808548 43.09191948 C40.35128249 43.10596036 48.93437996 43.10440663 57.51757812 43.09301758 C66.36885433 43.08153227 75.21982769 43.09561989 84.071064 43.12241405 C91.67548378 43.14457095 99.2798085 43.15120859 106.88425827 43.14533764 C111.4239299 43.14196737 115.96340731 43.14438794 120.50305176 43.16158867 C124.77133982 43.17705596 129.03917902 43.17310487 133.30744934 43.15428352 C134.87233901 43.15059725 136.43726193 43.1537073 138.00212097 43.16416931 C140.14157895 43.17737918 142.27955078 43.16583443 144.41894531 43.1481781 C146.2130484 43.14786417 146.2130484 43.14786417 148.043396 43.14754391 C152.64238493 42.44627104 155.90409895 40.41435311 158.82226562 36.78759766 C160.90509119 32.60466166 161.97470126 29.26557768 161.06445312 24.60400391 C159.68042745 20.93523744 157.41381364 18.04199876 154.32617188 15.64697266 C149.96038223 13.9083888 146.29893092 13.39457964 141.61549377 13.38627625 C140.64128515 13.38053792 140.64128515 13.38053792 139.64739555 13.37468368 C137.48497997 13.36441744 135.32283309 13.36833353 133.16040039 13.37231445 C131.60438798 13.36796446 130.04837771 13.36278035 128.49237061 13.35682678 C124.27542402 13.34345694 120.05856717 13.34285583 115.84160352 13.34539008 C112.31775949 13.34646109 108.79393353 13.34157313 105.27009338 13.33678466 C96.95535771 13.32569659 88.64066722 13.32524823 80.32592773 13.33129883 C71.75533203 13.33733981 63.18490044 13.32502287 54.61433274 13.30372876 C47.2485476 13.28610261 39.88281465 13.28011297 32.5170092 13.2833665 C28.12097486 13.28517777 23.72505763 13.28255869 19.32904243 13.26865196 C15.19460677 13.25606161 11.06042669 13.25802906 6.92599487 13.27106285 C5.41151276 13.2734255 3.89701259 13.2707051 2.38255119 13.26243973 C0.30935097 13.25194362 -1.76299612 13.26009462 -3.83616638 13.27275085 C-4.9944416 13.27258311 -6.15271681 13.27241537 -7.34609127 13.27224255 C-12.52038468 13.85490987 -16.43312191 15.30831595 -20.04882812 19.20947266 Z M57.32617188 56.64697266 C57.32617188 72.15697266 57.32617188 87.66697266 57.32617188 103.64697266 C66.23617187 103.64697266 75.14617187 103.64697266 84.32617188 103.64697266 C84.32617188 88.13697266 84.32617188 72.62697266 84.32617188 56.64697266 C75.41617188 56.64697266 66.50617188 56.64697266 57.32617188 56.64697266 Z M27.32617188 117.64697266 C22.67627521 132.75913681 18.03548705 147.85697824 13.61132812 163.03369141 C13.10638803 164.76077116 12.60129222 166.48780539 12.09605408 168.21479797 C10.78772586 172.68851993 9.48159885 177.16288141 8.17596436 181.63739014 C6.61270795 186.99274617 5.04631264 192.34718512 3.48041344 197.70176888 C2.20717009 202.05679824 0.93569587 206.41232947 -0.33187866 210.76901245 C-2.45576277 218.06698632 -4.58238248 225.36361562 -6.76153088 232.64531612 C-7.62197881 235.52252491 -8.47577962 238.4016847 -9.32888985 241.28107643 C-9.9084886 243.2268924 -10.49801438 245.16974288 -11.08787537 247.11247253 C-14.51752436 258.71305004 -14.01006256 265.58979851 -8.67382812 276.64697266 C3.04261261 297.11899989 22.08690164 309.33049212 44.47851562 315.64697266 C70.03029936 322.28784234 98.02121012 319.58850645 121.34179688 307.02197266 C137.46798805 297.29220368 148.02290645 283.79995963 154.58789062 266.27978516 C156.10374255 258.82083122 153.96261626 251.52440395 151.98461914 244.30810547 C151.74694321 243.42012772 151.50926727 242.53214996 151.26438904 241.61726379 C150.48004508 238.69315068 149.68636979 235.77165886 148.89257812 232.85009766 C148.33446595 230.77698884 147.77693655 228.70372305 147.21995544 226.63031006 C145.74841221 221.15866765 144.26893717 215.68920058 142.78778076 210.22015381 C141.31988876 204.79470299 139.85946021 199.36724526 138.3984375 193.93994141 C135.85274008 184.48724962 133.29943052 175.03663672 130.74242592 165.58699799 C128.91592883 158.83466403 127.09731175 152.08024763 125.28271484 145.32470703 C124.58772166 142.74061264 123.89252347 140.15657353 123.19721794 137.57256317 C122.76360386 135.95942437 122.3307152 134.34609038 121.898592 132.73255157 C121.31247806 130.54432692 120.72380591 128.35680618 120.13452148 126.16943359 C119.80713486 124.94963806 119.47974823 123.72984253 119.1424408 122.4730835 C118.44201431 119.72744268 118.44201431 119.72744268 117.32617188 117.64697266 C87.62617188 117.64697266 57.92617187 117.64697266 27.32617188 117.64697266 Z M249.32617188 136.64697266 C249.32617188 185.48697266 249.32617188 234.32697266 249.32617188 284.64697266 C263.84617187 284.64697266 278.36617188 284.64697266 293.32617188 284.64697266 C293.32617188 235.80697266 293.32617188 186.96697266 293.32617188 136.64697266 C278.80617188 136.64697266 264.28617187 136.64697266 249.32617188 136.64697266 Z M-138.29882812 199.39697266 C-159.39608224 224.5151152 -161.41969994 252.67695685 -160.98632812 283.83447266 C-160.88320312 294.33259766 -160.78007812 304.83072266 -160.67382812 315.64697266 C-132.95382813 315.64697266 -105.23382813 315.64697266 -76.67382812 315.64697266 C-76.34382813 305.74697266 -76.01382813 295.84697266 -75.67382812 285.64697266 C-71.76292702 272.61063565 -67.92327771 264.18513454 -56.16210938 257.14306641 C-46.65138935 252.59800049 -36.02976411 251.81558095 -25.67382812 250.64697266 C-19.6381741 230.63324849 -13.62826342 210.61165915 -7.72619629 190.55807495 C-7.19171341 188.7437971 -6.65582668 186.92993222 -6.11853027 185.1164856 C-5.36735583 182.57962299 -4.62143267 180.04127552 -3.87695312 177.50244141 C-3.6525354 176.74798737 -3.42811768 175.99353333 -3.19689941 175.21621704 C-2.33466512 172.25760789 -1.67382812 169.74639936 -1.67382812 166.64697266 C-10.8290527 166.52985199 -19.98400985 166.44164814 -29.13982677 166.3879118 C-33.39370328 166.36208899 -37.64705829 166.32720861 -41.90063477 166.26977539 C-79.21272481 165.77950256 -111.57097588 170.67810658 -138.29882812 199.39697266 Z M145.32617188 166.64697266 C146.04843676 171.70282688 146.93753865 176.40129561 148.25976562 181.29467773 C148.45337677 182.02400513 148.64698792 182.75333252 148.84646606 183.50476074 C149.48158903 185.8930802 150.12249091 188.27980435 150.76367188 190.66650391 C151.20854287 192.3331489 151.65311844 193.99987277 152.09741211 195.66667175 C153.02629388 199.1480068 153.95789398 202.6285988 154.89160156 206.10864258 C156.08964481 210.57429926 157.28215771 215.04140946 158.4728241 219.50903797 C159.38900336 222.94520478 160.3074206 226.38077008 161.22659302 229.81613731 C161.66730709 231.46386989 162.10747402 233.11174891 162.54708862 234.75977516 C163.16007219 237.05585432 163.77590299 239.35115021 164.39257812 241.64624023 C164.57442657 242.32935776 164.75627502 243.01247528 164.94363403 243.71629333 C165.89947633 247.26735631 165.89947633 247.26735631 167.32617188 250.64697266 C189.76617187 250.64697266 212.20617187 250.64697266 235.32617188 250.64697266 C235.32617188 222.92697266 235.32617188 195.20697266 235.32617188 166.64697266 C205.62617188 166.64697266 175.92617188 166.64697266 145.32617188 166.64697266 Z " fill="#000000" transform="translate(189.673828125,-0.64697265625)"/>
<path d="M0 0 C2.2643261 3.39648915 3.08853 6.67955928 4.125 10.5625 C10.10203987 31.72806629 21.32257993 51.11082158 32.72485352 69.76513672 C43.00863826 86.7630447 47.91650563 101.93114967 43.9375 121.875 C40.63630702 133.92819298 34.60830177 143.68169854 23.89453125 150.30078125 C16.14158385 154.42468944 8.92899619 155.38977025 0.25 155.375 C-0.72775391 155.37338867 -1.70550781 155.37177734 -2.71289062 155.37011719 C-9.76957593 155.25007351 -15.73179691 154.45170648 -22 151 C-23.051875 150.4225 -24.10375 149.845 -25.1875 149.25 C-38.29105905 138.76715276 -42.96985161 126.25796518 -45 110 C-47.04875399 90.5494837 -34.80195805 73.11563706 -25.0625 57.25 C-15.72223856 41.94460541 -8.06776022 26.09537651 -3.12109375 8.8359375 C-2.22950729 5.78528278 -1.25049826 2.91590838 0 0 Z " fill="#000000" transform="translate(81,357)"/>
</svg>
