<?xml version="1.0" encoding="UTF-8"?>
<svg version="1.1" xmlns="http://www.w3.org/2000/svg" width="512" height="512">
<path d="M0 0 C0.8040907 -0.00382555 1.60818139 -0.00765109 2.43663847 -0.01159257 C5.11640604 -0.02186656 7.7959571 -0.01794111 10.47573853 -0.01396179 C12.4030324 -0.01831138 14.33032455 -0.02349535 16.25761414 -0.02944946 C21.48286342 -0.04282442 26.7080403 -0.04341978 31.93330336 -0.04088616 C36.29953391 -0.0398154 40.66574987 -0.04470255 45.0319773 -0.04949158 C55.33501951 -0.06058166 65.63802526 -0.06102703 75.94107056 -0.05497742 C86.56054529 -0.04893776 97.17988752 -0.06124964 107.79933965 -0.08254749 C116.92566915 -0.100176 126.05195652 -0.10616285 135.17830241 -0.10290974 C140.62513433 -0.10109868 146.07187174 -0.10371542 151.5186882 -0.11762428 C156.64216152 -0.13021823 161.76542863 -0.12824361 166.88889885 -0.11521339 C168.76536695 -0.11285146 170.64184964 -0.11556853 172.51830101 -0.12383652 C175.08771458 -0.1343383 177.65644058 -0.12617611 180.22583008 -0.11352539 C180.96135648 -0.12089968 181.69688288 -0.12827396 182.45469797 -0.13587171 C189.03378804 -0.06812326 195.17611877 1.34997614 200.50405884 5.320755 C203.57991425 9.36524626 205.50287689 13.65152623 207.51333618 18.29975891 C207.9457663 19.27587128 208.37819641 20.25198364 208.82373047 21.25767517 C210.14418268 24.25238281 211.44566706 27.25457376 212.73989868 30.26069641 C213.2997345 31.55904419 213.2997345 31.55904419 213.87088013 32.88362122 C216.02213092 37.89223606 218.13773766 42.91530748 220.23977661 47.94474792 C222.27073675 52.80218452 224.31408029 57.65441027 226.35708618 62.50679016 C227.00586731 64.04820427 227.00586731 64.04820427 227.66775513 65.62075806 C232.88611456 78.00372809 238.18849047 90.35061273 243.48989868 102.69819641 C251.55992702 121.49870199 259.60462048 140.30965204 267.61489868 159.13569641 C274.36490961 174.99885324 281.12910683 190.85566866 287.92739868 206.69819641 C294.11670897 221.12407613 300.28823955 235.55745665 306.4397583 249.99949646 C307.34233011 252.11821865 308.24529933 254.23677158 309.14868164 256.35514832 C310.40033088 259.29060652 311.65042614 262.22672139 312.90005493 265.16304016 C313.27516205 266.0421405 313.65026917 266.92124084 314.03674316 267.82698059 C314.37972443 268.63389343 314.72270569 269.44080627 315.07608032 270.27217102 C315.37486588 270.97377853 315.67365143 271.67538605 315.98149109 272.39825439 C318.35408619 278.2247003 319.10189798 284.6619655 316.83364868 290.65522766 C313.88037747 295.757193 310.67083364 297.96174188 305.05238628 299.81832504 C301.64674506 300.46981315 298.25666397 300.40511495 294.80259705 300.40113831 C293.99698607 300.40410943 293.1913751 300.40708055 292.36135167 300.41014171 C289.65850333 300.41882186 286.95569931 300.42033639 284.25283813 300.42182922 C282.31613572 300.42645793 280.37943421 300.43148266 278.44273376 300.43687439 C273.17807177 300.44999644 267.91342252 300.45644312 262.64874673 300.46088505 C259.35876243 300.46381644 256.06878161 300.4679214 252.77879906 300.47238922 C242.48290692 300.48606441 232.18702275 300.49573064 221.89112216 300.49959111 C210.01058563 300.50407031 198.13016423 300.52161176 186.2496627 300.55059171 C177.06395238 300.57221948 167.87827442 300.582296 158.69253892 300.58363223 C153.20764788 300.58467958 147.72286507 300.59057252 142.23800087 300.60845184 C137.07600316 300.62495112 131.91419481 300.62707895 126.7521801 300.61831284 C124.86119708 300.61754343 122.97020379 300.62187248 121.07924652 300.63177109 C118.48998022 300.6445264 115.90138101 300.63859451 113.31211853 300.62818909 C112.57065482 300.63624549 111.82919111 300.6443019 111.0652588 300.65260243 C104.367614 300.59001221 98.03119864 299.34991871 92.99380493 294.75679016 C89.83073161 290.34247984 87.80831599 285.28878207 85.67739868 280.32319641 C85.17119995 279.16408752 84.66500122 278.00497864 84.14346313 276.81074524 C82.3240482 272.63517728 80.53103685 268.4484558 78.73989868 264.26069641 C78.22109131 263.04911865 78.22109131 263.04911865 77.69180298 261.81306458 C72.72421111 250.20922815 67.78795113 238.59216 62.86019897 226.97135925 C58.20833991 216.00272028 53.53928854 205.04142704 48.8687439 194.08073425 C46.44256397 188.38699389 44.0170106 182.69298664 41.59146118 176.99897766 C41.10742828 175.86275467 40.62339539 174.72653168 40.12469482 173.55587769 C36.75241951 165.63924848 33.38245481 157.72163819 30.01333618 149.80366516 C18.62876542 123.05129803 7.2077873 96.31482459 -4.25352478 69.59526062 C-5.17496052 67.44682822 -6.09605785 65.29825064 -7.01679993 63.14952087 C-9.25398872 57.92995059 -11.49543724 52.71229627 -13.74820614 47.49943352 C-14.86498292 44.91429913 -15.97946102 42.32817689 -17.0936985 39.74194717 C-17.88738226 37.90224391 -18.68426425 36.06392147 -19.48121643 34.22563171 C-19.96101456 33.1113681 -20.44081268 31.99710449 -20.93515015 30.84907532 C-21.36064651 29.86484589 -21.78614288 28.88061646 -22.22453308 27.86656189 C-24.27412697 22.7090399 -25.41050388 17.60561689 -23.54135132 12.17085266 C-21.52416477 7.80299307 -19.46350877 4.80229162 -15.26010132 2.26069641 C-10.11339292 0.48846525 -5.39794806 -0.02756882 0 0 Z " fill="#000000" transform="translate(194.26010131835938,105.73930358886719)"/>
<path d="M0 0 C4.09380738 3.48970859 5.80174018 7.92669244 7.86132812 12.79492188 C8.28533401 13.76228271 8.7093399 14.72964355 9.14619446 15.72631836 C10.49895524 18.82557507 11.82794045 21.93428511 13.15429688 25.04492188 C14.01610115 27.04130204 14.87856346 29.03739827 15.74169922 31.03320312 C18.46771462 37.35947673 21.15543411 43.70173415 23.84179688 50.04492188 C24.84044152 52.3969362 25.83939052 54.74882131 26.83862305 57.10058594 C28.90956337 61.97540415 30.97921493 66.85076628 33.04785156 71.7265625 C37.52800168 82.28413669 42.02121832 92.83614498 46.51553345 103.38769531 C47.48551729 105.66499014 48.45538568 107.94233415 49.42514038 110.21972656 C56.00426375 125.67003001 62.60395038 141.11133478 69.22637939 156.54312134 C76.78425411 174.15634688 84.29334145 191.79025608 91.79614258 209.42700195 C96.11751131 219.58294644 100.44361876 229.73659435 104.81054688 239.87304688 C105.16172073 240.68890762 105.51289459 241.50476837 105.87471008 242.34535217 C107.45901456 246.02548955 109.04613371 249.70435079 110.6394043 253.38061523 C120.89636453 277.12614262 120.89636453 277.12614262 118.42382812 284.10742188 C116.44509943 288.50100722 114.35961435 291.50217178 110.15429688 294.04492188 C105.12956318 295.76496094 100.56055012 296.32650191 95.29125977 296.27197266 C94.53921265 296.27226471 93.78716553 296.27255676 93.0123291 296.27285767 C90.55041576 296.27147505 88.08881297 296.25596482 85.62695312 296.24023438 C83.91060044 296.23650044 82.1942456 296.23365526 80.47789001 296.23165894 C75.97832266 296.22405247 71.47888609 296.20442986 66.97937012 296.18225098 C62.38079599 296.16172798 57.78220056 296.15264346 53.18359375 296.14257812 C44.17377092 296.12118096 35.16404481 296.08708135 26.15429688 296.04492188 C23.86226064 286.45351678 21.88043914 276.81708576 20.015625 267.13549805 C19.71483299 265.58316784 19.41383718 264.03087711 19.11265564 262.47862244 C18.30271341 258.30116828 17.4956254 254.12316746 16.68910789 249.94505095 C15.83932657 245.54535344 14.98694948 241.1461588 14.1348877 236.74690247 C12.70444014 229.35947768 11.27568882 221.97172657 9.84814453 214.58374023 C7.844268 204.21307973 5.83718302 193.84304208 3.82951832 183.47311437 C2.42892056 176.23813821 1.02909682 169.00301225 -0.37058449 161.76785874 C-0.70720695 160.02782492 -1.04385005 158.28779508 -1.38051414 156.54776931 C-2.34185786 151.57897813 -3.30270683 146.61009176 -4.26281548 141.64106178 C-4.55166487 140.14645092 -4.84065967 138.65186814 -5.12982368 137.15731812 C-7.07043187 127.12633923 -8.97249386 117.08868876 -10.84570312 107.04492188 C-14.68775066 124.17458559 -18.10575707 141.37544966 -21.40523982 158.61653137 C-22.09967844 162.24182254 -22.79741976 165.8664782 -23.49476624 169.49121094 C-24.81421881 176.35212169 -26.13090281 183.21356049 -27.44649464 190.07521248 C-29.06874936 198.53561955 -30.69448692 206.99535667 -32.3203125 215.45507812 C-32.90054798 218.47435943 -33.48075517 221.49364617 -34.06092834 224.51293945 C-34.2024121 225.24923804 -34.34389586 225.98553663 -34.489667 226.7441473 C-35.43722711 231.67588387 -36.38388607 236.60779279 -37.33006287 241.53979492 C-40.81666348 259.71179626 -44.32400481 277.87969289 -47.84570312 296.04492188 C-57.87742946 296.11457787 -67.9090978 296.16781221 -77.94101715 296.20035839 C-82.59976269 296.21598267 -87.25834219 296.23716154 -91.91699219 296.27124023 C-96.41684084 296.30394951 -100.91653024 296.32179922 -105.41648865 296.3295536 C-107.12921148 296.33507641 -108.84192606 296.34586098 -110.55458069 296.36211205 C-112.9623567 296.38404055 -115.36948319 296.38688244 -117.77734375 296.38549805 C-118.82823685 296.40167679 -118.82823685 296.40167679 -119.90036011 296.41818237 C-126.4459189 296.37773013 -131.74100185 294.82934252 -136.72070312 290.60742188 C-140.67842371 285.83487647 -141.35751887 282.25995783 -141.22119141 276.13330078 C-140.52458427 270.40372971 -138.1388468 265.45565056 -135.78320312 260.23242188 C-135.20660061 258.91230944 -134.6322346 257.59121845 -134.05981445 256.26928711 C-132.75006426 253.24968469 -131.43025294 250.23471455 -130.10546875 247.22167969 C-127.59451562 241.49136364 -125.14786678 235.73424757 -122.70507812 229.97460938 C-122.02409813 228.36943199 -122.02409813 228.36943199 -121.32936096 226.73182678 C-120.38319509 224.50146344 -119.43707474 222.27108079 -118.49099731 220.04067993 C-109.49289724 198.84921148 -100.41486897 177.69173978 -91.33947754 156.53329468 C-83.96459289 139.3385097 -76.61222328 122.13430589 -69.28320312 104.91992188 C-68.8152533 103.82101624 -68.34730347 102.7221106 -67.86517334 101.58990479 C-63.22729093 90.69813564 -58.59234616 79.80512537 -53.96514988 68.90881157 C-51.63303889 63.41715026 -49.29903964 57.92629257 -46.96463013 52.43560791 C-45.98798086 50.13724114 -45.0120981 47.83854848 -44.03707886 45.53948975 C-41.40512031 39.33349078 -38.76158733 33.13277188 -36.09338379 26.94226074 C-35.25713487 25.00034037 -34.42407706 23.05704291 -33.59411621 21.11242676 C-32.4063736 18.33703176 -31.20269775 15.56911772 -29.99414062 12.80273438 C-29.6475943 11.98618378 -29.30104797 11.16963318 -28.94400024 10.32833862 C-26.57813507 4.97869293 -23.95526942 0.80965749 -18.70507812 -2.16992188 C-11.65215778 -4.58620014 -6.22074313 -4.27382558 0 0 Z " fill="#000000" transform="translate(140.845703125,109.955078125)"/>
</svg>
