<?xml version="1.0" encoding="UTF-8"?>
<svg version="1.1" xmlns="http://www.w3.org/2000/svg" width="512" height="512">
<path d="M0 0 C0.88107422 0.1556543 1.76214844 0.31130859 2.66992188 0.47167969 C34.59452079 6.14741569 65.8928699 18.14932607 93 36 C93.98685791 36.64751221 93.98685791 36.64751221 94.99365234 37.30810547 C107.29196524 45.43867281 118.50282514 54.46018574 129.2734375 64.51953125 C131.01702352 66.10574489 132.80901644 67.6412645 134.65625 69.10546875 C136.75186003 70.79942019 138.40154135 72.44267763 140.125 74.5 C143.06694986 77.95774626 146.13216056 81.26256452 149.25 84.5625 C155.46174772 91.26431169 160.80930773 98.49041634 166 106 C166.44843262 106.64533691 166.89686523 107.29067383 167.35888672 107.95556641 C186.81225142 136.22143842 199.66888778 167.8229441 206.8125 201.3125 C207.00739014 202.21709961 207.20228027 203.12169922 207.40307617 204.05371094 C210.65581184 220.1840687 211.37690152 236.27358288 211.3125 252.6875 C211.30976578 254.13858658 211.30976578 254.13858658 211.30697632 255.61898804 C211.26155569 269.94956519 210.76214314 283.90110797 208 298 C207.83371094 298.91297852 207.66742188 299.82595703 207.49609375 300.76660156 C199.83636923 342.3986228 181.59375117 381.16052206 155 414 C154.55994629 414.54446777 154.11989258 415.08893555 153.66650391 415.64990234 C142.18825137 429.72173929 129.42280936 442.93680647 115 454 C114.06929688 454.75925781 113.13859375 455.51851563 112.1796875 456.30078125 C79.92831086 482.1596216 40.47485354 498.62794761 0 506 C-0.83563477 506.16371094 -1.67126953 506.32742188 -2.53222656 506.49609375 C-30.26510697 511.79105001 -62.32514444 511.38182109 -90 506 C-91.32161133 505.76651855 -91.32161133 505.76651855 -92.66992188 505.52832031 C-124.59452079 499.85258431 -155.8928699 487.85067393 -183 470 C-183.65790527 469.5683252 -184.31581055 469.13665039 -184.99365234 468.69189453 C-197.29196524 460.56132719 -208.50282514 451.53981426 -219.2734375 441.48046875 C-221.01702352 439.89425511 -222.80901644 438.3587355 -224.65625 436.89453125 C-226.75186003 435.20057981 -228.40154135 433.55732237 -230.125 431.5 C-233.06694986 428.04225374 -236.13216056 424.73743548 -239.25 421.4375 C-245.46174772 414.73568831 -250.80930773 407.50958366 -256 400 C-256.67264893 399.03199463 -256.67264893 399.03199463 -257.35888672 398.04443359 C-276.81225142 369.77856158 -289.66888778 338.1770559 -296.8125 304.6875 C-297.00739014 303.78290039 -297.20228027 302.87830078 -297.40307617 301.94628906 C-300.65581184 285.8159313 -301.37690152 269.72641712 -301.3125 253.3125 C-301.31067719 252.34510895 -301.30885437 251.3777179 -301.30697632 250.38101196 C-301.26155569 236.05043481 -300.76214314 222.09889203 -298 208 C-297.83371094 207.08702148 -297.66742188 206.17404297 -297.49609375 205.23339844 C-289.83636923 163.6013772 -271.59375117 124.83947794 -245 92 C-244.55994629 91.45553223 -244.11989258 90.91106445 -243.66650391 90.35009766 C-232.18825137 76.27826071 -219.42280936 63.06319353 -205 52 C-204.06929688 51.24074219 -203.13859375 50.48148438 -202.1796875 49.69921875 C-169.92831086 23.8403784 -130.47485354 7.37205239 -90 0 C-89.16436523 -0.16371094 -88.32873047 -0.32742188 -87.46777344 -0.49609375 C-59.73489303 -5.79105001 -27.67485556 -5.38182109 0 0 Z M-139 62 C-139.63276855 62.3211377 -140.26553711 62.64227539 -140.91748047 62.97314453 C-162.38896306 73.95842943 -180.93004553 88.00843268 -198 105 C-198.54495117 105.54092285 -199.08990234 106.0818457 -199.65136719 106.63916016 C-213.77279214 120.83574611 -224.44289878 137.50006424 -234 155 C-234.63421875 156.13179688 -235.2684375 157.26359375 -235.921875 158.4296875 C-261.33337105 206.10538421 -263.90465236 264.18025344 -248.96459961 315.43945312 C-240.77936547 341.90513671 -227.40021409 364.84226394 -211 387 C-204.26371732 381.46913183 -198.18197954 375.31869766 -192.0348053 369.15505981 C-190.82041065 367.94110161 -189.60579612 366.72736334 -188.39098161 365.5138253 C-185.06388797 362.1889622 -181.73991127 358.86099835 -178.41644466 355.53251028 C-174.82802665 351.93976726 -171.23671238 348.34992138 -167.64575195 344.75971985 C-161.42802667 338.5425185 -155.21213257 332.32349121 -148.99748421 326.10321426 C-140.01218104 317.10977844 -131.0241125 308.11911052 -122.03537016 299.12911223 C-107.45122894 284.54278327 -92.86932154 269.9542233 -78.28881836 255.36425781 C-64.12657965 241.19283781 -49.96328934 227.02247017 -35.79858398 212.85351562 C-34.92523334 211.97990226 -34.0518827 211.1062889 -33.15206689 210.2062024 C-28.77064567 205.82347612 -24.38920377 201.44077052 -20.00775158 197.05807519 C16.33137186 160.70858778 52.66687039 124.35547848 89 88 C86.63460079 85.60620212 84.36793188 83.40500074 81.6015625 81.484375 C80.96476562 81.04198486 80.32796875 80.59959473 79.671875 80.14379883 C78.65867187 79.45386841 78.65867187 79.45386841 77.625 78.75 C76.91601562 78.26619873 76.20703125 77.78239746 75.4765625 77.28393555 C68.8496478 72.81446618 62.05805415 68.75830875 55 65 C54.37125977 64.66371582 53.74251953 64.32743164 53.09472656 63.98095703 C25.48436507 49.35117614 -5.70749898 40.84574327 -37 40 C-38.04607422 39.96132813 -38.04607422 39.96132813 -39.11328125 39.921875 C-73.64451135 38.74534246 -108.21720587 46.33071999 -139 62 Z M117.95860475 120.91719675 C117.05069344 121.82548778 116.14278213 122.73377881 115.20735836 123.66959381 C114.448392 124.42682941 114.448392 124.42682941 113.67409298 125.1993627 C111.9565179 126.91426274 110.24257206 128.63274635 108.52854919 130.35119629 C107.29458454 131.58472542 106.06040039 132.81803502 104.8260141 134.05114222 C101.41694593 137.45796167 98.01102496 140.86791279 94.60558045 144.27835393 C90.93933362 147.9488997 87.27021756 151.61657529 83.60144043 155.28459167 C77.23955312 161.64595339 70.87950639 168.00915057 64.52068901 174.37358093 C55.32678413 183.57559609 46.13013509 192.77486459 36.9328034 201.97345454 C22.01257293 216.89587627 7.09457925 231.82053205 -7.82202148 246.74658203 C-22.31629599 261.25002874 -36.81161535 275.75242986 -51.30834961 290.25341797 C-52.20119856 291.14652965 -53.09404752 292.03964132 -54.0139525 292.95981699 C-58.49290199 297.44007147 -62.97187212 301.92030532 -67.45085251 306.40052891 C-104.63710242 343.59715374 -141.81972815 380.7973998 -179 418 C-176.63460079 420.39379788 -174.36793188 422.59499926 -171.6015625 424.515625 C-170.64636719 425.17921021 -170.64636719 425.17921021 -169.671875 425.85620117 C-168.99640625 426.31615479 -168.3209375 426.7761084 -167.625 427.25 C-166.91601562 427.73380127 -166.20703125 428.21760254 -165.4765625 428.71606445 C-158.8496478 433.18553382 -152.05805415 437.24169125 -145 441 C-144.37125977 441.33628418 -143.74251953 441.67256836 -143.09472656 442.01904297 C-115.48436507 456.64882386 -84.29250102 465.15425673 -53 466 C-52.30261719 466.02578125 -51.60523438 466.0515625 -50.88671875 466.078125 C-16.35548865 467.25465754 18.21720587 459.66928001 49 444 C49.63276855 443.6788623 50.26553711 443.35772461 50.91748047 443.02685547 C72.38896306 432.04157057 90.93004553 417.99156732 108 401 C108.54495117 400.45907715 109.08990234 399.9181543 109.65136719 399.36083984 C123.77279214 385.16425389 134.44289878 368.49993576 144 351 C144.63421875 349.86820313 145.2684375 348.73640625 145.921875 347.5703125 C171.33337105 299.89461579 173.90465236 241.81974656 158.96459961 190.56054688 C150.91210583 164.52405861 137.87841879 140.38213653 121 119 C119.65473476 118.88590252 119.65473476 118.88590252 117.95860475 120.91719675 Z " fill="#000000" transform="translate(301,3)"/>
</svg>
