<?xml version="1.0" encoding="UTF-8"?>
<svg version="1.1" xmlns="http://www.w3.org/2000/svg" width="512" height="512">
<path d="M0 0 C1.37678936 -0.00302839 2.75357703 -0.00692128 4.1303618 -0.01159257 C7.87632505 -0.02179296 11.62219175 -0.01971128 15.36816263 -0.01541197 C19.42284052 -0.01293012 23.47749602 -0.02197696 27.53216553 -0.02944946 C35.46166735 -0.04215855 43.39113525 -0.04399487 51.32064554 -0.0416492 C57.77089897 -0.03986148 64.22114215 -0.04162538 70.67139435 -0.04587364 C71.59169534 -0.04646883 72.51199634 -0.04706402 73.46018524 -0.04767724 C75.33018587 -0.04888908 77.2001865 -0.05010322 79.07018712 -0.05131962 C96.58323063 -0.06218074 114.09625486 -0.06003955 131.60929945 -0.05393478 C147.60166568 -0.04876794 163.59397096 -0.06001746 179.58632514 -0.07903299 C196.03867508 -0.09844429 212.49099624 -0.10666156 228.94335771 -0.10290974 C238.16747688 -0.10100255 247.39154421 -0.10343798 256.61565399 -0.11762428 C264.46913457 -0.12958115 272.32253138 -0.13089502 280.1760132 -0.11883412 C284.17614039 -0.11297526 288.17611469 -0.11176215 292.17623138 -0.12383652 C326.47575416 -0.22018431 356.55512641 4.19114947 381.87115479 29.26069641 C400.83771164 48.69500956 409.54636278 73.85695184 409.34576416 100.65229797 C408.98156509 114.47162924 405.90064456 126.77610583 399.87115479 139.26069641 C399.45349854 140.14757141 399.03584229 141.03444641 398.60552979 141.94819641 C387.31725596 164.26524351 367.35716051 181.03055765 343.87115479 189.26069641 C331.30597832 193.08070226 319.42331944 194.41009977 306.34358215 194.40113831 C304.97110932 194.40372545 303.59863724 194.40673958 302.22616619 194.41014171 C298.46893195 194.41817412 294.71171685 194.41999917 290.95447505 194.42073917 C286.89630604 194.42259635 282.83814682 194.43014707 278.77998352 194.43687439 C269.91183139 194.45043227 261.04368381 194.45647867 252.17552304 194.46088505 C246.63211487 194.46365221 241.08870844 194.46789046 235.54530144 194.47238922 C220.18031327 194.48457938 204.81532649 194.49487866 189.4503336 194.49826431 C188.46770896 194.49848388 187.48508433 194.49870344 186.47268319 194.49892966 C185.48777817 194.49914794 184.50287315 194.49936622 183.48812252 194.49959111 C181.49250893 194.50003457 179.49689533 194.50048113 177.50128174 194.50093079 C176.01645867 194.50126293 176.01645867 194.50126293 174.50163918 194.50160179 C158.47662573 194.50554637 142.45165784 194.52299118 126.42666198 194.54629031 C109.95187402 194.57004888 93.47710889 194.58246824 77.00230354 194.58363223 C67.76133773 194.58454655 58.52043127 194.59023717 49.27948189 194.60845184 C41.40758691 194.62391388 33.53576964 194.62893756 25.66386236 194.62071374 C21.65363946 194.61682851 17.64357274 194.61763162 13.63336945 194.63177109 C-22.11118692 194.75041186 -51.34934112 189.48804484 -77.65228271 163.79585266 C-96.86435106 143.56744623 -103.70227738 118.06174786 -103.41009521 90.92085266 C-102.83233268 70.49405809 -94.24223174 50.78045696 -81.12884521 35.26069641 C-80.144646 34.0580011 -80.144646 34.0580011 -79.14056396 32.83100891 C-59.13191297 9.34736369 -30.16973901 -0.09120867 0 0 Z " fill="#CBCBCB" transform="translate(103.12884521484375,158.7393035888672)"/>
<path d="M0 0 C1.37678936 -0.00302839 2.75357703 -0.00692128 4.1303618 -0.01159257 C7.87632505 -0.02179296 11.62219175 -0.01971128 15.36816263 -0.01541197 C19.42284052 -0.01293012 23.47749602 -0.02197696 27.53216553 -0.02944946 C35.46166735 -0.04215855 43.39113525 -0.04399487 51.32064554 -0.0416492 C57.77089897 -0.03986148 64.22114215 -0.04162538 70.67139435 -0.04587364 C71.59169534 -0.04646883 72.51199634 -0.04706402 73.46018524 -0.04767724 C75.33018587 -0.04888908 77.2001865 -0.05010322 79.07018712 -0.05131962 C96.58323063 -0.06218074 114.09625486 -0.06003955 131.60929945 -0.05393478 C147.60166568 -0.04876794 163.59397096 -0.06001746 179.58632514 -0.07903299 C196.03867508 -0.09844429 212.49099624 -0.10666156 228.94335771 -0.10290974 C238.16747688 -0.10100255 247.39154421 -0.10343798 256.61565399 -0.11762428 C264.46913457 -0.12958115 272.32253138 -0.13089502 280.1760132 -0.11883412 C284.17614039 -0.11297526 288.17611469 -0.11176215 292.17623138 -0.12383652 C326.47575416 -0.22018431 356.55512641 4.19114947 381.87115479 29.26069641 C400.83771164 48.69500956 409.54636278 73.85695184 409.34576416 100.65229797 C408.98156509 114.47162924 405.90064456 126.77610583 399.87115479 139.26069641 C399.45349854 140.14757141 399.03584229 141.03444641 398.60552979 141.94819641 C387.31725596 164.26524351 367.35716051 181.03055765 343.87115479 189.26069641 C331.30597832 193.08070226 319.42331944 194.41009977 306.34358215 194.40113831 C304.97110932 194.40372545 303.59863724 194.40673958 302.22616619 194.41014171 C298.46893195 194.41817412 294.71171685 194.41999917 290.95447505 194.42073917 C286.89630604 194.42259635 282.83814682 194.43014707 278.77998352 194.43687439 C269.91183139 194.45043227 261.04368381 194.45647867 252.17552304 194.46088505 C246.63211487 194.46365221 241.08870844 194.46789046 235.54530144 194.47238922 C220.18031327 194.48457938 204.81532649 194.49487866 189.4503336 194.49826431 C188.46770896 194.49848388 187.48508433 194.49870344 186.47268319 194.49892966 C185.48777817 194.49914794 184.50287315 194.49936622 183.48812252 194.49959111 C181.49250893 194.50003457 179.49689533 194.50048113 177.50128174 194.50093079 C176.01645867 194.50126293 176.01645867 194.50126293 174.50163918 194.50160179 C158.47662573 194.50554637 142.45165784 194.52299118 126.42666198 194.54629031 C109.95187402 194.57004888 93.47710889 194.58246824 77.00230354 194.58363223 C67.76133773 194.58454655 58.52043127 194.59023717 49.27948189 194.60845184 C41.40758691 194.62391388 33.53576964 194.62893756 25.66386236 194.62071374 C21.65363946 194.61682851 17.64357274 194.61763162 13.63336945 194.63177109 C-22.11118692 194.75041186 -51.34934112 189.48804484 -77.65228271 163.79585266 C-96.86435106 143.56744623 -103.70227738 118.06174786 -103.41009521 90.92085266 C-102.83233268 70.49405809 -94.24223174 50.78045696 -81.12884521 35.26069641 C-80.144646 34.0580011 -80.144646 34.0580011 -79.14056396 32.83100891 C-59.13191297 9.34736369 -30.16973901 -0.09120867 0 0 Z M-66.03118896 45.84663391 C-69.62993196 49.98820407 -72.42356497 54.50103041 -75.12884521 59.26069641 C-75.59161865 60.06249329 -76.05439209 60.86429016 -76.53118896 61.69038391 C-85.60800073 78.51973096 -87.14309954 99.25954743 -82.69134521 117.82319641 C-78.36297917 132.18550192 -70.88656351 143.9216917 -60.12884521 154.26069641 C-59.47400146 154.92327454 -58.81915771 155.58585266 -58.14447021 156.26850891 C-41.82634928 171.81953869 -21.11514485 175.41615265 0.56330872 175.40113831 C1.92925806 175.40372711 3.29520665 175.40674169 4.66115421 175.41014171 C8.39106664 175.41815437 12.12095977 175.41999805 15.85087979 175.42073917 C19.88311021 175.42259978 23.91533084 175.43015206 27.94755554 175.43687439 C36.75360773 175.45041702 45.55965535 175.45647596 54.36571622 175.46088505 C59.87127799 175.46365416 65.37683802 175.46789269 70.88239861 175.47238922 C86.14624324 175.48457617 101.41008649 175.49487687 116.67393589 175.49826431 C118.13736465 175.49859366 118.13736465 175.49859366 119.63035762 175.49892966 C120.60821654 175.49914794 121.58607547 175.49936622 122.59356648 175.49959111 C124.57484917 175.50003457 126.55613186 175.50048113 128.53741455 175.50093079 C129.52018436 175.50115222 130.50295417 175.50137365 131.51550489 175.50160179 C147.43046037 175.50554761 163.34537001 175.52299765 179.2603078 175.54629031 C195.62667788 175.57004901 211.99302501 175.5824682 228.35941261 175.58363223 C237.53775053 175.58454641 246.71602868 175.59023376 255.89435005 175.60845184 C263.71129999 175.6239139 271.52817168 175.62893746 279.34513403 175.62071374 C283.32701751 175.61682885 287.30874371 175.61763001 291.29060745 175.63177109 C320.8790068 175.73058977 345.48651567 173.84556558 368.12115479 152.57319641 C384.18381012 135.75311506 390.44109024 115.84088539 390.35870361 92.99555969 C390.13274601 83.54876778 388.72358277 75.91456513 384.87115479 67.26069641 C384.45301514 66.30912659 384.45301514 66.30912659 384.02642822 65.33833313 C379.55965328 55.42783082 373.62111383 47.81604792 365.87115479 40.26069641 C365.21502197 39.59554016 364.55888916 38.93038391 363.88287354 38.24507141 C347.85347978 23.00513388 326.27042617 18.92548808 304.89138794 19.01345825 C303.51872324 19.01186632 302.14605933 19.00939894 300.77339756 19.00614184 C297.03445444 18.99978022 293.29562103 19.00575585 289.55668521 19.01390612 C285.51167398 19.02052388 281.4666742 19.01552584 277.42166138 19.01202393 C269.51107497 19.00699822 261.60053057 19.01260287 253.68994938 19.02187423 C244.47006369 19.03228938 235.25018693 19.03218721 226.03029646 19.03170165 C209.57668701 19.03120169 193.12309705 19.04034497 176.66949463 19.05488586 C160.71701706 19.06897651 144.76455663 19.07605637 128.81207275 19.07539368 C127.82919694 19.07535372 126.84632112 19.07531376 125.83366118 19.0752726 C124.85245512 19.07523224 123.87124906 19.07519189 122.86030948 19.07515031 C104.67727632 19.07445983 86.49425041 19.08035357 68.3112196 19.08930353 C61.88971903 19.092315 55.46821979 19.0933825 49.0467186 19.09383583 C41.21901976 19.09451917 33.39133316 19.09900073 25.56363951 19.10816864 C21.57253784 19.11277357 17.58145179 19.11583694 13.59034729 19.11457443 C9.93261966 19.11347351 6.27492645 19.11703351 2.61720599 19.12422296 C0.67663797 19.12687475 -1.26393483 19.12468646 -3.20450318 19.12229091 C-28.57405721 19.19226776 -48.21906891 27.56329375 -66.03118896 45.84663391 Z " fill="#000000" transform="translate(103.12884521484375,158.7393035888672)"/>
<path d="M0 0 C116.49 0 232.98 0 353 0 C353 8.58 353 17.16 353 26 C236.51 26 120.02 26 0 26 C0 17.42 0 8.84 0 0 Z " fill="#020202" transform="translate(80,243)"/>
</svg>
